<?xml version="1.0" encoding="UTF-8"?>
<svg width="1079px" height="654px" viewBox="0 0 1079 654" version="1.1" xmlns="http://www.w3.org/2000/svg" xmlns:xlink="http://www.w3.org/1999/xlink">
    <!-- Generator: Sketch 42 (36781) - http://www.bohemiancoding.com/sketch -->
    <title>Artboard 4</title>
    <desc>Created with Sketch.</desc>
    <defs>
        <radialGradient cx="50%" cy="50%" fx="50%" fy="50%" r="100%" id="radialGradient-1">
            <stop stop-color="#FFFFFF" offset="0%"></stop>
            <stop stop-color="#EFEFEF" offset="100%"></stop>
        </radialGradient>
    </defs>
    <g id="Page-1" stroke="none" stroke-width="1" fill="none" fill-rule="evenodd">
        <g id="Artboard-4">
            <g id="Group-3">
                <rect id="Rectangle" fill="url(#radialGradient-1)" x="0" y="0" width="1079" height="654"></rect>
                <g id="Artboard-Copy" transform="translate(493.000000, 271.000000)" stroke-width="2.07036036" stroke="#000000">
                    <g id="Artboard" transform="translate(45.500000, 54.000000) rotate(-6.000000) translate(-45.500000, -54.000000) translate(6.000000, 4.000000)">
                        <g id="Page-1">
                            <g id="A4">
                                <g id="logo">
                                    <g id="mark">
                                        <path d="M29.2962811,98.3858047 C28.2489544,96.7318409 42.9709966,69.9104402 53.2483468,63.0656565 C63.5256972,56.2208726 77.2755117,56.9751204 78.006017,58.1309474 C78.7365225,59.2867744 77.1917954,69.8840621 64.8511015,79.877363 C52.5104073,89.870664 30.3436077,100.039769 29.2962811,98.3858047 Z M25.2163322,80.3823683 C23.5029499,81.2776946 9.26376679,61.1042963 3.44852967,46.1217807 C-2.36670745,31.1392649 1.46210392,21.1696392 2.65825013,20.5432524 C3.85439634,19.9168655 16.1298099,26.3142999 21.6931617,37.5120782 C27.2565134,48.7098564 26.9297145,79.4870419 25.2163322,80.3823683 Z M36.7575665,61.9350756 C35.0441842,61.0397494 34.7173853,30.2625637 40.280737,19.0647855 C45.8440887,7.86700734 58.1195023,1.4695729 59.3156485,2.09595975 C60.5117947,2.7223466 64.340606,12.6919723 58.5253689,27.674488 C52.7101318,42.6570038 38.4709486,62.830402 36.7575665,61.9350756 Z" id="Combined-Shape"></path>
                                        <path d="M29.0147562,98.3858047 C27.9674295,96.7318409 42.6894717,69.9104402 52.9668219,63.0656565 C63.2441722,56.2208726 76.9939868,56.9751204 77.7244921,58.1309474 C78.4549975,59.2867744 76.9102705,69.8840621 64.5695765,79.877363 C52.2288824,89.870664 30.0620828,100.039769 29.0147562,98.3858047 Z M24.9348073,80.3823683 C23.2214249,81.2776946 8.98224186,61.1042963 3.16700474,46.1217807 C-2.64823239,31.1392649 1.18057898,21.1696392 2.37672521,20.5432524 C3.57287141,19.9168655 15.8482849,26.3142999 21.4116367,37.5120782 C26.9749884,48.7098564 26.6481896,79.4870419 24.9348073,80.3823683 Z M36.4760415,61.9350756 C34.7626592,61.0397494 34.4358604,30.2625637 39.9992121,19.0647855 C45.5625638,7.86700734 57.8379774,1.4695729 59.0341236,2.09595975 C60.2302698,2.7223466 64.0590811,12.6919723 58.243844,27.674488 C52.4286068,42.6570038 38.1894237,62.830402 36.4760415,61.9350756 Z" id="Combined-Shape-Copy"></path>
                                        <path d="M53.6230211,108.409324 C53.6230211,108.409324 42.0804544,80.0792031 55.189692,45.3423149" id="Path-3-Copy" stroke-linecap="round" stroke-linejoin="round" transform="translate(52.058589, 76.875819) rotate(50.000000) translate(-52.058589, -76.875819) "></path>
                                        <path d="M17.5582334,81.6168648 C17.5582334,81.6168648 6.01566679,53.2867444 19.1249043,18.5498559" id="Path-3-Copy" stroke-linecap="round" stroke-linejoin="round" transform="translate(15.993801, 50.083360) scale(-1, 1) rotate(20.000000) translate(-15.993801, -50.083360) "></path>
                                        <path d="M47.5445301,63.1695722 C47.5445301,63.1695722 36.0019635,34.8394517 49.1112011,0.102563365" id="Path-3-Copy" stroke-linecap="round" stroke-linejoin="round" transform="translate(45.980098, 31.636068) rotate(20.000000) translate(-45.980098, -31.636068) "></path>
                                    </g>
                                </g>
                            </g>
                        </g>
                    </g>
                </g>
            </g>
        </g>
    </g>
</svg>