<?xml version="1.0" encoding="UTF-8" standalone="no"?>
<svg width="223px" height="224px" viewBox="0 0 223 224" version="1.1" xmlns="http://www.w3.org/2000/svg" xmlns:xlink="http://www.w3.org/1999/xlink">
    <!-- Generator: Sketch 3.8.2 (29753) - http://www.bohemiancoding.com/sketch -->
    <title>Path 1</title>
    <desc>Created with Sketch.</desc>
    <defs></defs>
    <g id="Page-1" stroke="none" stroke-width="1" fill="none" fill-rule="evenodd">
        <polyline id="Path-1" stroke="#000000" stroke-width="5" points="68 221 179.004504 221 179 188 196 187 196 150.986114 210.000007 150.986114 210 107 220 107 220 57.989797 188.999998 57.989797 188.999998 83 178 83 178 16.9697039 139.355142 16.9697039 139.355142 82.0009697 135 82.0009697 135 2.99367122 97.8780656 2.99367122 97.8780656 83.0000929 93 83.0000929 93 41 75 41 75 20.7762516 51.7751738 20.7762516 43.9042852 20.7762516 43.9042852 71.0953171 57.0003469 71.0953171 57.0003469 98 57.0003469 108.049841 32.9999482 108.049841 32.9999482 90 2.98333793 90 2.98333793 126.223384 68.3829159 191.622962 69 218"></polyline>
    </g>
</svg>