<?xml version="1.0" encoding="UTF-8"?>
<svg width="583px" height="75px" viewBox="0 0 583 75" version="1.1" xmlns="http://www.w3.org/2000/svg" xmlns:xlink="http://www.w3.org/1999/xlink">
    <!-- Generator: Sketch 46.2 (44496) - http://www.bohemiancoding.com/sketch -->
    <title>logotype@2x</title>
    <desc>Created with Sketch.</desc>
    <defs></defs>
    <g id="Page-1" stroke="none" stroke-width="1" fill="none" fill-rule="evenodd">
        <g id="Artboard-2" transform="translate(-309.000000, -278.000000)">
            <g id="logotype" transform="translate(309.000000, 278.000000)">
                <path d="M121.374733,59.7375 L100.363851,59.7375 L108.031329,5.4375 C108.130907,4.3375 107.433863,3.4375 106.338509,3.4375 L94.2896149,3.4375 C93.3934161,3.4375 92.6963727,3.8375 92.4972174,4.9375 L83.2364969,71.4375 C83.0373416,72.6375 83.7343851,73.4375 84.8297391,73.4375 L120.080224,73.4375 C120.976422,73.4375 121.275155,73.2375 121.474311,72.3375 L122.967975,61.6375 C123.067553,60.7375 122.270932,59.7375 121.374733,59.7375 Z M185.303578,24.4375 C186.199776,24.4375 186.996398,25.4375 186.797242,26.3375 L180.424273,72.3375 C180.225118,73.2375 179.926385,73.4375 179.030186,73.4375 L168.275801,73.4375 C167.379602,73.4375 166.782137,72.3375 166.682559,71.4375 L166.782137,68.7375 C162.699453,72.3375 157.720571,74.7375 152.642112,74.7375 C140.095329,74.7375 131.830385,65.1375 131.830385,52.4375 C131.830385,37.1375 143.580547,23.3375 158.417615,23.3375 C164.491851,23.3375 169.072422,26.3375 172.159329,30.5375 L173.055528,25.7375 C173.254683,24.8375 173.852149,24.4375 174.748348,24.4375 L185.303578,24.4375 Z M155.629441,61.0375 C162.599876,61.0375 168.674112,54.2375 168.674112,46.6375 C168.674112,41.2375 164.989739,36.9375 159.114658,36.9375 C152.442957,36.9375 146.169565,43.2375 146.169565,51.4375 C146.169565,57.0375 149.853938,61.0375 155.629441,61.0375 Z M242.859453,24.4375 L230.910137,24.4375 C230.013938,24.4375 229.715205,24.5375 229.51605,25.4375 L225.931255,51.5375 C225.433366,55.3375 221.350683,60.7375 214.678981,60.7375 C211.193764,60.7375 207.011503,59.0375 208.206435,51.1375 L211.592075,26.3375 C211.79123,25.4375 210.994609,24.4375 210.09841,24.4375 L198.149093,24.4375 C197.252894,24.4375 196.954161,24.5375 196.755006,25.4375 L192.871478,53.2375 C191.079081,66.3375 197.949938,74.7375 209.202211,74.7375 C214.778559,74.7375 220.155752,71.6375 223.939702,66.8375 L223.541391,71.4375 C223.441814,72.3375 224.138857,73.4375 225.035056,73.4375 L236.586062,73.4375 C237.482261,73.4375 237.780994,73.2375 237.980149,72.3375 L244.353118,26.3375 C244.552273,25.4375 243.755652,24.4375 242.859453,24.4375 Z M284.881217,23.3375 C278.209516,23.3375 273.031478,26.7375 269.247528,31.8375 L269.745416,26.3375 C269.844994,25.4375 269.14795,24.4375 268.251752,24.4375 L256.899901,24.4375 C256.003702,24.4375 255.406236,24.9375 255.306658,25.8375 L248.834112,71.9375 C248.734534,72.6375 249.332,73.4375 250.228199,73.4375 L262.077938,73.4375 C263.073714,73.4375 263.67118,72.8375 263.770758,72.0375 L267.255975,46.7375 C267.654286,44.3375 271.736969,37.2375 278.707404,37.2375 C282.391776,37.2375 286.275304,39.0375 285.080373,47.0375 L281.595155,71.9375 C281.495578,72.6375 282.093043,73.4375 282.989242,73.4375 L294.838981,73.4375 C295.834758,73.4375 296.432224,72.8375 296.531801,72.0375 L300.415329,44.9375 C302.207727,31.8375 295.137714,23.3375 284.881217,23.3375 Z M332.479329,60.8375 C326.902981,60.8375 323.119031,57.0375 323.119031,51.2375 C323.119031,43.5375 328.994112,37.2375 336.362857,37.2375 C339.549342,37.2375 341.939205,38.3375 344.229491,40.9375 C345.026112,41.8375 346.221043,41.9375 346.918087,41.2375 L354.685143,34.8375 C355.481764,34.0375 355.083453,33.2375 354.78472,32.7375 C351.00077,27.0375 344.727379,23.3375 336.860745,23.3375 C321.924099,23.3375 308.879429,36.2375 308.879429,52.1375 C308.879429,65.0375 318.040571,74.7375 330.985665,74.7375 C338.453988,74.7375 345.524,71.7375 350.702037,67.0375 C351.598236,66.1375 351.399081,65.1375 350.702037,64.3375 L344.329068,57.2375 C343.731602,56.5375 342.835404,56.4375 342.038783,57.1375 C339.250609,59.7375 336.362857,60.8375 332.479329,60.8375 Z M395.31282,23.3375 C388.740696,23.3375 383.463081,26.7375 379.67913,31.8375 L383.960969,2.4375 C384.060547,1.4375 383.363503,0.4375 382.467304,0.4375 L370.717143,0.4375 C369.820944,0.4375 369.223478,0.9375 369.123901,1.8375 L359.265714,71.9375 C359.166137,72.6375 359.763602,73.4375 360.659801,73.4375 L372.50954,73.4375 C373.505317,73.4375 374.102783,72.8375 374.20236,72.0375 L377.787155,46.7375 C378.085888,44.3375 382.168571,37.2375 389.238584,37.2375 C392.823379,37.2375 396.706907,39.0375 395.511975,47.0375 L392.026758,71.9375 C391.92718,72.6375 392.624224,73.4375 393.420845,73.4375 L405.270584,73.4375 C406.26636,73.4375 406.863826,72.8375 406.963404,72.0375 L410.846932,44.9375 C412.639329,31.8375 405.569317,23.3375 395.31282,23.3375 Z M472.784224,24.4375 C473.680422,24.4375 474.477043,25.4375 474.277888,26.3375 L467.904919,72.3375 C467.705764,73.2375 467.407031,73.4375 466.510832,73.4375 L455.756447,73.4375 C454.860248,73.4375 454.262783,72.3375 454.163205,71.4375 L454.262783,68.7375 C450.180099,72.3375 445.201217,74.7375 440.122758,74.7375 C427.575975,74.7375 419.311031,65.1375 419.311031,52.4375 C419.311031,37.1375 431.061193,23.3375 445.898261,23.3375 C451.972497,23.3375 456.553068,26.3375 459.639975,30.5375 L460.536174,25.7375 C460.735329,24.8375 461.332795,24.4375 462.228994,24.4375 L472.784224,24.4375 Z M443.110087,61.0375 C450.080522,61.0375 456.154758,54.2375 456.154758,46.6375 C456.154758,41.2375 452.470385,36.9375 446.595304,36.9375 C439.923602,36.9375 433.650211,43.2375 433.650211,51.4375 C433.650211,57.0375 437.334584,61.0375 443.110087,61.0375 Z M503.354559,60.8375 C497.778211,60.8375 493.994261,57.0375 493.994261,51.2375 C493.994261,43.5375 499.869342,37.2375 507.238087,37.2375 C510.424571,37.2375 512.814435,38.3375 515.10472,40.9375 C515.901342,41.8375 517.096273,41.9375 517.793317,41.2375 L525.560373,34.8375 C526.356994,34.0375 525.958683,33.2375 525.65995,32.7375 C521.876,27.0375 515.602609,23.3375 507.735975,23.3375 C492.799329,23.3375 479.754658,36.2375 479.754658,52.1375 C479.754658,65.0375 488.915801,74.7375 501.860894,74.7375 C509.329217,74.7375 516.39923,71.7375 521.577267,67.0375 C522.473466,66.1375 522.274311,65.1375 521.577267,64.3375 L515.204298,57.2375 C514.606832,56.5375 513.710634,56.4375 512.914012,57.1375 C510.125839,59.7375 507.238087,60.8375 503.354559,60.8375 Z M554.238733,74.7375 C541.094484,74.7375 531.634609,64.9375 531.634609,52.0375 C531.634609,36.2375 545.07759,23.3375 560.014236,23.3375 C573.258062,23.3375 582.717938,33.1375 582.717938,46.0375 C582.717938,61.4375 569.474112,74.7375 554.238733,74.7375 Z M555.433665,60.8375 C562.404099,60.8375 568.478335,54.3375 568.478335,46.7375 C568.478335,41.0375 564.694385,37.2375 558.918882,37.2375 C551.948447,37.2375 545.874211,43.7375 545.874211,51.2375 C545.874211,57.0375 549.757739,60.8375 555.433665,60.8375 Z" id="Launchaco" fill="#029BFF"></path>
                <path d="M3.5105401,19.3225806 C3.38652873,19.3225806 3.2631031,19.3161304 3.14070167,19.3032529 C1.05826495,19.0841648 -0.31922754,17.0882452 0.0639860938,14.8452415 L1.45832967,6.6839512 C1.81541765,4.59386469 3.58695703,3 5.55294615,3 L75.4894599,3 C75.6134713,3 75.7368969,3.00645023 75.8592983,3.01932778 C77.9417351,3.23841581 79.3192275,5.23433547 78.9360139,7.47733913 L77.5416703,15.6386294 C77.1845824,17.728716 75.413043,19.3225806 73.4470538,19.3225806 L3.5105401,19.3225806 Z M13.108904,45.6612903 C13.0083656,45.6612903 12.9082031,45.6570508 12.8086504,45.6485817 C10.719507,45.4708546 9.30542347,43.5055012 9.65020647,41.2588419 L10.9026768,33.0975515 C11.2283673,30.9753022 13.0164427,29.3387097 15.0094368,29.3387097 L70.2036266,29.3387097 C70.3041649,29.3387097 70.4043274,29.3429492 70.5038802,29.3514183 C72.5930235,29.5291454 74.007107,31.4944988 73.662324,33.7411581 L72.4098537,41.9024485 C72.0841632,44.0246978 70.2960878,45.6612903 68.3030937,45.6612903 L13.108904,45.6612903 Z M39.5236251,72 C39.471632,72 39.4197344,71.9988662 39.3679646,71.9965993 C37.2672006,71.9046096 35.7789602,70.0045927 36.0438866,67.7527928 L37.0040702,59.5915025 C37.26138,57.4044415 39.0827014,55.6774194 41.1318711,55.6774194 L65.9457327,55.6774194 C65.9977258,55.6774194 66.0496234,55.6785532 66.1013931,55.6808201 C68.2021572,55.7728098 69.6903976,57.6728267 69.4254712,59.9246266 L68.4652876,68.0859169 C68.2079778,70.2729779 66.3866564,72 64.3374866,72 L39.5236251,72 Z" id="Combined-Shape" fill="#83D6FF" opacity="0.699999988"></path>
            </g>
        </g>
    </g>
</svg>