<?xml version="1.0" encoding="UTF-8"?>
<svg width="381px" height="48px" viewBox="0 0 381 48" version="1.1" xmlns="http://www.w3.org/2000/svg" xmlns:xlink="http://www.w3.org/1999/xlink">
    <!-- Generator: Sketch 46.2 (44496) - http://www.bohemiancoding.com/sketch -->
    <title>logotype2</title>
    <desc>Created with Sketch.</desc>
    <defs></defs>
    <g id="Page-1" stroke="none" stroke-width="1" fill="none" fill-rule="evenodd">
        <g id="Artboard-Copy-20" transform="translate(-210.000000, -271.000000)">
            <g id="logotype2" transform="translate(210.000000, 253.000000)">
                <path d="M2.25898209,32.3816348 C2.17918256,32.3816348 2.09975994,32.3775322 2.02099638,32.3693417 C0.68097828,32.2299954 -0.205418333,30.9605326 0.0411741316,29.5339172 L0.938414177,24.3430998 C1.16819516,23.0137442 2.30815529,22 3.57324103,22 L48.5763823,22 C48.6561818,22 48.7356045,22.0041025 48.814368,22.012293 C50.1543861,22.1516394 51.0407827,23.4211022 50.7941903,24.8477176 L49.8969502,30.0385349 C49.6671692,31.3678906 48.5272091,32.3816348 47.2621234,32.3816348 L2.25898209,32.3816348 Z M12.4353913,49.1338181 C12.3706963,49.1338181 12.3062431,49.1311217 12.2421824,49.1257351 C10.8978486,49.0126955 9.98790624,47.7626737 10.2097691,46.3337332 L11.0157158,41.1429158 C11.2252929,39.7931037 12.3758938,38.7521834 13.6583568,38.7521834 L49.1750245,38.7521834 C49.2397195,38.7521834 49.3041727,38.7548798 49.3682334,38.7602664 C50.7125672,38.873306 51.6225096,40.1233278 51.4006467,41.5522683 L50.5947,46.7430857 C50.3851229,48.0928978 49.234522,49.1338181 47.952059,49.1338181 L12.4353913,49.1338181 Z M33.4328846,65.8860015 C33.3994278,65.8860015 33.3660324,65.8852803 33.3327194,65.8838385 C31.9809079,65.8253304 31.0232466,64.6168646 31.1937229,63.1846545 L31.8115872,57.9938371 C31.9771624,56.6028029 33.1491566,55.5043667 34.4677678,55.5043667 L50.4351311,55.5043667 C50.4685878,55.5043667 50.5019832,55.5050879 50.5352963,55.5065297 C51.8871078,55.5650378 52.8447691,56.7735037 52.6742927,58.2057137 L52.0564284,63.3965311 C51.8908533,64.7875653 50.7188591,65.8860015 49.4002478,65.8860015 L33.4328846,65.8860015 Z" id="Combined-Shape" fill="#8FDAFF"></path>
                <text id="Launchaco" font-family="GreycliffCF-ExtraBold, Greycliff CF" font-size="64" font-weight="600" fill="#029BFF">
                    <tspan x="57" y="65">Launchaco</tspan>
                </text>
            </g>
        </g>
    </g>
</svg>