<?xml version="1.0" encoding="UTF-8"?>
<svg width="381px" height="48px" viewBox="0 0 381 48" version="1.1" xmlns="http://www.w3.org/2000/svg" xmlns:xlink="http://www.w3.org/1999/xlink">
    <!-- Generator: Sketch 46.2 (44496) - http://www.bohemiancoding.com/sketch -->
    <title>logotype2</title>
    <desc>Created with Sketch.</desc>
    <defs>
        <linearGradient x1="111.01049%" y1="50%" x2="11.864094%" y2="50%" id="linearGradient-1">
            <stop stop-color="#227EF7" offset="0%"></stop>
            <stop stop-color="#28D0FA" offset="100%"></stop>
        </linearGradient>
    </defs>
    <g id="Page-1" stroke="none" stroke-width="1" fill="none" fill-rule="evenodd">
        <g id="Artboard-Copy-20" transform="translate(-210.000000, -272.000000)">
            <g id="logotype2" transform="translate(210.000000, 272.000000)">
                <path d="M33.4328846,46.8860015 C33.3994278,46.8860015 33.3660324,46.8852803 33.3327194,46.8838385 C31.9809079,46.8253304 31.0232466,45.6168646 31.1937229,44.1846545 L31.8115872,38.9938371 C31.9771624,37.6028029 33.1491566,36.5043667 34.4677678,36.5043667 L50.4351311,36.5043667 C50.4685878,36.5043667 50.5019832,36.5050879 50.5352963,36.5065297 C51.8871078,36.5650378 52.8447691,37.7735037 52.6742927,39.2057137 L52.0564284,44.3965311 C51.8908533,45.7875653 50.7188591,46.8860015 49.4002478,46.8860015 L33.4328846,46.8860015 Z M12.4353913,30.1338181 C12.3706963,30.1338181 12.3062431,30.1311217 12.2421824,30.1257351 C10.8978486,30.0126955 9.98790624,28.7626737 10.2097691,27.3337332 L11.0157158,22.1429158 C11.2252929,20.7931037 12.3758938,19.7521834 13.6583568,19.7521834 L49.1750245,19.7521834 C49.2397195,19.7521834 49.3041727,19.7548798 49.3682334,19.7602664 C50.7125672,19.873306 51.6225096,21.1233278 51.4006467,22.5522683 L50.5947,27.7430857 C50.3851229,29.0928978 49.234522,30.1338181 47.952059,30.1338181 L12.4353913,30.1338181 Z M2.25898209,13.3816348 C2.17918256,13.3816348 2.09975994,13.3775322 2.02099638,13.3693417 C0.68097828,13.2299954 -0.205418333,11.9605326 0.0411741316,10.5339172 L0.938414177,5.34309982 C1.16819516,4.01374417 2.30815529,3 3.57324103,3 L48.5763823,3 C48.6561818,3 48.7356045,3.00410254 48.814368,3.01229303 C50.1543861,3.15163937 51.0407827,4.42110217 50.7941903,5.84771756 L49.8969502,11.0385349 C49.6671692,12.3678906 48.5272091,13.3816348 47.2621234,13.3816348 L2.25898209,13.3816348 Z" id="Combined-Shape" fill="url(#linearGradient-1)"></path>
                <path d="M84.84,38.232 L71.016,38.232 L71.016,3.16 C71.016,2.584 70.632,2.2 70.056,2.2 L62.056,2.2 C61.48,2.2 61.096,2.584 61.096,3.16 L61.096,46.04 C61.096,46.616 61.48,47 62.056,47 L84.84,47 C85.416,47 85.8,46.616 85.8,46.04 L85.8,39.192 C85.8,38.616 85.416,38.232 84.84,38.232 Z M123.304,15.64 C123.88,15.64 124.264,16.024 124.264,16.6 L124.264,46.04 C124.264,46.616 123.88,47 123.304,47 L116.328,47 C115.752,47 115.432,46.616 115.368,46.04 L115.176,43.736 C113,46.168 110.056,47.832 106.216,47.832 C97.512,47.832 91.112,40.536 91.112,31.384 C91.112,22.232 97.512,14.936 106.216,14.936 C109.928,14.936 112.936,16.664 115.176,19.224 L115.368,16.6 C115.432,16.024 115.752,15.64 116.328,15.64 L123.304,15.64 Z M107.432,39.064 C111.464,39.064 114.472,35.48 114.472,31.32 C114.472,27.16 111.464,23.64 107.432,23.64 C103.336,23.64 100.328,26.968 100.328,31.32 C100.328,35.736 103.336,39.064 107.432,39.064 Z M160.552,15.64 L152.872,15.64 C152.296,15.64 151.912,16.024 151.912,16.6 L151.912,33.304 C151.912,35.672 150.056,38.872 145.96,38.872 C143.528,38.872 140.456,37.464 140.456,32.408 L140.456,16.6 C140.456,16.024 140.072,15.64 139.496,15.64 L131.816,15.64 C131.24,15.64 130.856,16.024 130.856,16.6 L130.856,34.328 C130.856,42.712 135.848,47.832 142.824,47.832 C146.6,47.832 149.8,45.656 151.912,42.648 L152.168,46.04 C152.232,46.616 152.552,47 153.128,47 L160.552,47 C161.128,47 161.512,46.616 161.512,46.04 L161.512,16.6 C161.512,16.024 161.128,15.64 160.552,15.64 Z M187.688,14.936 C183.208,14.936 180.008,17.304 178.024,20.568 L177.768,16.6 C177.704,16.024 177.384,15.64 176.808,15.64 L169.384,15.64 C168.808,15.64 168.424,16.024 168.424,16.6 L168.424,46.04 C168.424,46.616 168.808,47 169.384,47 L177.064,47 C177.64,47 178.024,46.616 178.024,46.04 L178.024,29.592 C178.024,28.056 179.816,23.832 184.104,23.832 C186.664,23.832 189.48,25.304 189.48,30.36 L189.48,46.04 C189.48,46.616 189.864,47 190.44,47 L198.12,47 C198.696,47 199.08,46.616 199.08,46.04 L199.08,28.44 C199.08,20.056 194.024,14.936 187.688,14.936 Z M221.352,38.936 C217.192,38.936 214.248,35.672 214.248,31.384 C214.248,27.096 217.192,23.832 221.352,23.832 C223.528,23.832 225.32,24.664 227.112,26.264 C227.624,26.712 228.072,26.776 228.52,26.328 L233.128,21.848 C233.512,21.464 233.576,20.952 233.192,20.504 C230.248,17.112 225.96,14.936 221.096,14.936 C212.072,14.936 205.032,22.168 205.032,31.384 C205.032,40.6 212.072,47.832 221.096,47.832 C226.088,47.832 230.44,45.656 233.384,42.264 C233.768,41.816 233.704,41.304 233.32,40.92 L228.712,36.504 C228.264,36.056 227.816,36.056 227.304,36.504 C225.512,38.04 223.656,38.936 221.352,38.936 Z M258.536,14.936 C254.056,14.936 250.856,17.304 248.872,20.568 L248.872,1.24 C248.872,0.664 248.488,0.28 247.912,0.28 L240.232,0.28 C239.656,0.28 239.272,0.664 239.272,1.24 L239.272,46.04 C239.272,46.616 239.656,47 240.232,47 L247.912,47 C248.488,47 248.872,46.616 248.872,46.04 L248.872,29.592 C248.872,28.056 250.664,23.832 254.952,23.832 C257.512,23.832 260.328,25.304 260.328,30.36 L260.328,46.04 C260.328,46.616 260.712,47 261.288,47 L268.968,47 C269.544,47 269.928,46.616 269.928,46.04 L269.928,28.44 C269.928,20.056 264.872,14.936 258.536,14.936 Z M308.072,15.64 C308.648,15.64 309.032,16.024 309.032,16.6 L309.032,46.04 C309.032,46.616 308.648,47 308.072,47 L301.096,47 C300.52,47 300.2,46.616 300.136,46.04 L299.944,43.736 C297.768,46.168 294.824,47.832 290.984,47.832 C282.28,47.832 275.88,40.536 275.88,31.384 C275.88,22.232 282.28,14.936 290.984,14.936 C294.696,14.936 297.704,16.664 299.944,19.224 L300.136,16.6 C300.2,16.024 300.52,15.64 301.096,15.64 L308.072,15.64 Z M292.2,39.064 C296.232,39.064 299.24,35.48 299.24,31.32 C299.24,27.16 296.232,23.64 292.2,23.64 C288.104,23.64 285.096,26.968 285.096,31.32 C285.096,35.736 288.104,39.064 292.2,39.064 Z M331.304,38.936 C327.144,38.936 324.2,35.672 324.2,31.384 C324.2,27.096 327.144,23.832 331.304,23.832 C333.48,23.832 335.272,24.664 337.064,26.264 C337.576,26.712 338.024,26.776 338.472,26.328 L343.08,21.848 C343.464,21.464 343.528,20.952 343.144,20.504 C340.2,17.112 335.912,14.936 331.048,14.936 C322.024,14.936 314.984,22.168 314.984,31.384 C314.984,40.6 322.024,47.832 331.048,47.832 C336.04,47.832 340.392,45.656 343.336,42.264 C343.72,41.816 343.656,41.304 343.272,40.92 L338.664,36.504 C338.216,36.056 337.768,36.056 337.256,36.504 C335.464,38.04 333.608,38.936 331.304,38.936 Z M364.584,47.832 C355.56,47.832 348.264,40.6 348.264,31.384 C348.264,22.168 355.56,14.936 364.584,14.936 C373.672,14.936 380.968,22.168 380.968,31.384 C380.968,40.6 373.672,47.832 364.584,47.832 Z M364.584,38.936 C368.552,38.936 371.688,35.8 371.688,31.384 C371.688,26.968 368.552,23.832 364.584,23.832 C360.68,23.832 357.48,26.968 357.48,31.384 C357.48,35.8 360.68,38.936 364.584,38.936 Z" id="Launchaco" fill="#354158"></path>
            </g>
        </g>
    </g>
</svg>