<?xml version="1.0" encoding="UTF-8" standalone="no"?>
<svg width="410px" height="410px" viewBox="0 0 410 410" version="1.1" xmlns="http://www.w3.org/2000/svg" xmlns:xlink="http://www.w3.org/1999/xlink">
    <!-- Generator: Sketch 3.8.2 (29753) - http://www.bohemiancoding.com/sketch -->
    <title>card</title>
    <desc>Created with Sketch.</desc>
    <defs></defs>
    <g id="Page-1" stroke="none" stroke-width="1" fill="none" fill-rule="evenodd">
        <g id="Desktop-HD-Copy" transform="translate(-193.000000, -415.000000)">
            <g id="card" transform="translate(193.000000, 415.000000)">
                <rect id="Rectangle-26" fill-opacity="0.599999964" fill="#FFF9E1" x="0" y="0" width="410" height="410"></rect>
                <path d="M64.875,84.6 L64.875,80.475 C64.875,79.674996 64.7833342,79.1000017 64.6,78.75 C64.4166657,78.3999983 64.0333362,78.0666683 63.45,77.75 L63.45,77.7 L68.475,77.7 L68.475,87.425 C68.475,88.1916705 68.574999,88.7333317 68.775,89.05 C68.975001,89.3666682 69.3666637,89.6666652 69.95,89.95 L69.95,90 L64.875,90 L64.875,86.575 C64.5749985,87.7416725 64.0375039,88.6458301 63.2625,89.2875 C62.4874961,89.9291699 61.5583387,90.25 60.475,90.25 C59.2416605,90.25 58.2833367,89.8541706 57.6,89.0625 C56.9166632,88.2708294 56.575,87.2166732 56.575,85.9 L56.575,80.475 C56.575,79.6583293 56.4875009,79.0791684 56.3125,78.7375 C56.1374991,78.3958316 55.7583362,78.0666683 55.175,77.75 L55.175,77.7 L60.175,77.7 L60.175,85.875 C60.175,86.5916702 60.3458316,87.1958309 60.6875,87.6875 C61.0291684,88.1791691 61.53333,88.425 62.2,88.425 C62.9833372,88.425 63.6249975,88.0875034 64.125,87.4125 C64.6250025,86.7374966 64.875,85.800006 64.875,84.6 L64.875,84.6 Z M71.675,73.675 C71.675,73.0916638 71.8791646,72.600002 72.2875,72.2 C72.6958354,71.799998 73.2083302,71.6 73.825,71.6 C74.4416697,71.6 74.9541646,71.799998 75.3625,72.2 C75.7708354,72.600002 75.975,73.0916638 75.975,73.675 C75.975,74.2583363 75.7708354,74.749998 75.3625,75.15 C74.9541646,75.550002 74.4416697,75.75 73.825,75.75 C73.2083302,75.75 72.6958354,75.550002 72.2875,75.15 C71.8791646,74.749998 71.675,74.2583363 71.675,73.675 L71.675,73.675 Z M75.7,77.7 L75.7,87.275 C75.7,88.1083375 75.7749992,88.6874984 75.925,89.0125 C76.0750007,89.3375016 76.4249972,89.6499985 76.975,89.95 L76.975,90 L70.85,90 L70.85,89.95 C71.4000027,89.6499985 71.7458326,89.3416682 71.8875,89.025 C72.0291674,88.7083318 72.1,88.1250043 72.1,87.275 L72.1,80.475 C72.1,79.6583293 72.0125009,79.0791684 71.8375,78.7375 C71.6624991,78.3958316 71.2833362,78.0666683 70.7,77.75 L70.7,77.7 L75.7,77.7 Z M77.45,93.075 L84.85,71.275 L85.675,71.275 L78.275,93.075 L77.45,93.075 Z M96.05,84.6 L96.05,80.475 C96.05,79.674996 95.9583342,79.1000017 95.775,78.75 C95.5916657,78.3999983 95.2083362,78.0666683 94.625,77.75 L94.625,77.7 L99.65,77.7 L99.65,87.425 C99.65,88.1916705 99.749999,88.7333317 99.95,89.05 C100.150001,89.3666682 100.541664,89.6666652 101.125,89.95 L101.125,90 L96.05,90 L96.05,86.575 C95.7499985,87.7416725 95.2125039,88.6458301 94.4375,89.2875 C93.6624961,89.9291699 92.7333387,90.25 91.65,90.25 C90.4166605,90.25 89.4583367,89.8541706 88.775,89.0625 C88.0916632,88.2708294 87.75,87.2166732 87.75,85.9 L87.75,80.475 C87.75,79.6583293 87.6625009,79.0791684 87.4875,78.7375 C87.3124991,78.3958316 86.9333362,78.0666683 86.35,77.75 L86.35,77.7 L91.35,77.7 L91.35,85.875 C91.35,86.5916702 91.5208316,87.1958309 91.8625,87.6875 C92.2041684,88.1791691 92.70833,88.425 93.375,88.425 C94.1583372,88.425 94.7999975,88.0875034 95.3,87.4125 C95.8000025,86.7374966 96.05,85.800006 96.05,84.6 L96.05,84.6 Z M104.85,89.95 L104.85,90 L101.175,90 L101.175,89.95 C101.79167,89.6333317 102.324998,89.2541689 102.775,88.8125 C103.225002,88.3708311 103.741664,87.7750037 104.325,87.025 L106.6,84 L104.475,80.675 C104.008331,79.941663 103.579169,79.375002 103.1875,78.975 C102.795831,78.574998 102.283336,78.1666687 101.65,77.75 L101.65,77.7 L107.65,77.7 L107.65,77.75 C107.416665,77.9333342 107.3,78.1833317 107.3,78.5 C107.283333,78.833335 107.58333,79.4833285 108.2,80.45 L109.425,82.35 L110.7,80.45 C111.200002,79.7666632 111.45,79.2000023 111.45,78.75 C111.45,78.2999977 111.225002,77.9666677 110.775,77.75 L110.775,77.7 L114.4,77.7 L114.4,77.75 C113.78333,78.0666683 113.250002,78.4499977 112.8,78.9 C112.349998,79.3500022 111.850003,79.9499963 111.3,80.7 L109.75,82.85 L112.4,87.025 C112.900002,87.7750037 113.345831,88.349998 113.7375,88.75 C114.129169,89.150002 114.641663,89.549998 115.275,89.95 L115.275,90 L109.25,90 L109.25,89.95 C109.500001,89.749999 109.625,89.5083348 109.625,89.225 C109.608333,88.8083313 109.308336,88.1583377 108.725,87.275 L106.95,84.525 L104.95,87.275 C104.433331,87.9583368 104.175,88.499998 104.175,88.9 C104.175,89.366669 104.399998,89.7166655 104.85,89.95 L104.85,89.95 Z M127.475,88.75 C128.24167,88.75 128.916664,88.4041701 129.5,87.7125 C130.083336,87.0208299 130.375,86.1250055 130.375,85.025 L130.375,82.575 C130.375,81.4083275 130.083336,80.458337 129.5,79.725 C128.916664,78.991663 128.233337,78.625 127.45,78.625 C126.499995,78.625 125.775002,79.0874954 125.275,80.0125 C124.774997,80.9375046 124.525,82.2583247 124.525,83.975 C124.525,85.4916743 124.783331,86.6666625 125.3,87.5 C125.816669,88.3333375 126.541662,88.75 127.475,88.75 L127.475,88.75 Z M130.375,80.575 L130.375,74.025 C130.375,73.2416627 130.270834,72.6666685 130.0625,72.3 C129.854166,71.9333315 129.458336,71.6083347 128.875,71.325 L128.875,71.275 L133.975,71.275 L133.975,87.275 C133.975,88.0416705 134.062499,88.6041649 134.2375,88.9625 C134.412501,89.3208351 134.774997,89.6499985 135.325,89.95 L135.325,90 L130.375,90 L130.375,86.8 C130.108332,87.800005 129.595837,88.6249968 128.8375,89.275 C128.079163,89.9250033 127.158339,90.25 126.075,90.25 C124.541659,90.25 123.258338,89.6750057 122.225,88.525 C121.191661,87.3749942 120.675,85.8583428 120.675,83.975 C120.675,82.041657 121.212495,80.4708394 122.2875,79.2625 C123.362505,78.0541606 124.683325,77.45 126.25,77.45 C127.300005,77.45 128.18333,77.7416637 128.9,78.325 C129.61667,78.9083362 130.108332,79.6583288 130.375,80.575 L130.375,80.575 Z M142.675,77.45 C144.525009,77.45 145.924995,77.9874946 146.875,79.0625 C147.825005,80.1375054 148.3,81.5583245 148.3,83.325 L140.05,83.325 C140.05,84.9083412 140.429163,86.1749952 141.1875,87.125 C141.945837,88.0750048 142.96666,88.55 144.25,88.55 C146.083342,88.55 147.366663,87.7000085 148.1,86 L148.25,86.075 C147.933332,87.3916732 147.283338,88.416663 146.3,89.15 C145.316662,89.883337 144.116674,90.25 142.7,90.25 C140.899991,90.25 139.400006,89.6791724 138.2,88.5375 C136.999994,87.3958276 136.4,85.8416765 136.4,83.875 C136.4,81.9749905 137.008327,80.4291726 138.225,79.2375 C139.441673,78.0458274 140.924991,77.45 142.675,77.45 L142.675,77.45 Z M140.075,82.8 L144.75,82.8 C144.75,82.0499963 144.725,81.408336 144.675,80.875 C144.625,80.341664 144.529167,79.8375024 144.3875,79.3625 C144.245833,78.8874976 144.029168,78.5291679 143.7375,78.2875 C143.445832,78.0458321 143.083335,77.925 142.65,77.925 C141.916663,77.925 141.316669,78.3666622 140.85,79.25 C140.383331,80.1333378 140.125,81.3166593 140.075,82.8 L140.075,82.8 Z M154.225,77.925 C153.591663,77.925 153.091668,78.091665 152.725,78.425 C152.358331,78.758335 152.175,79.1833307 152.175,79.7 C152.175,80.2833362 152.379165,80.7208319 152.7875,81.0125 C153.195835,81.3041681 154.008327,81.6249982 155.225,81.975 C156.875008,82.441669 158.04583,82.9958301 158.7375,83.6375 C159.42917,84.2791699 159.775,85.1583278 159.775,86.275 C159.775,87.5083395 159.316671,88.4791631 158.4,89.1875 C157.483329,89.8958369 156.325007,90.25 154.925,90.25 C154.274997,90.25 153.550004,90.1541676 152.75,89.9625 C151.949996,89.7708324 151.441668,89.675 151.225,89.675 C150.841665,89.675 150.441669,89.8666648 150.025,90.25 L149.75,85.625 L149.8,85.625 C151.13334,88.4083473 152.841656,89.8 154.925,89.8 C155.608337,89.8 156.170831,89.6166685 156.6125,89.25 C157.054169,88.8833315 157.275,88.3750032 157.275,87.725 C157.275,87.1083302 157.033336,86.6500015 156.55,86.35 C156.066664,86.0499985 155.241672,85.7416682 154.075,85.425 C152.591659,84.9916645 151.520837,84.4458366 150.8625,83.7875 C150.204163,83.1291634 149.875,82.2500055 149.875,81.15 C149.875,80.0333278 150.291662,79.1375034 151.125,78.4625 C151.958337,77.7874966 152.99166,77.45 154.225,77.45 C154.791669,77.45 155.429163,77.5541656 156.1375,77.7625 C156.845837,77.9708344 157.316665,78.075 157.55,78.075 C157.950002,78.075 158.399997,77.8666687 158.9,77.45 L158.9,81.525 L158.85,81.525 C158.316664,80.4416612 157.637504,79.5708366 156.8125,78.9125 C155.987496,78.2541634 155.125004,77.925 154.225,77.925 L154.225,77.925 Z M162.075,73.675 C162.075,73.0916638 162.279165,72.600002 162.6875,72.2 C163.095835,71.799998 163.60833,71.6 164.225,71.6 C164.84167,71.6 165.354165,71.799998 165.7625,72.2 C166.170835,72.600002 166.375,73.0916638 166.375,73.675 C166.375,74.2583363 166.170835,74.749998 165.7625,75.15 C165.354165,75.550002 164.84167,75.75 164.225,75.75 C163.60833,75.75 163.095835,75.550002 162.6875,75.15 C162.279165,74.749998 162.075,74.2583363 162.075,73.675 L162.075,73.675 Z M166.1,77.7 L166.1,87.275 C166.1,88.1083375 166.174999,88.6874984 166.325,89.0125 C166.475001,89.3375016 166.824997,89.6499985 167.375,89.95 L167.375,90 L161.25,90 L161.25,89.95 C161.800003,89.6499985 162.145833,89.3416682 162.2875,89.025 C162.429167,88.7083318 162.5,88.1250043 162.5,87.275 L162.5,80.475 C162.5,79.6583293 162.412501,79.0791684 162.2375,78.7375 C162.062499,78.3958316 161.683336,78.0666683 161.1,77.75 L161.1,77.7 L166.1,77.7 Z M174.35,77.875 C173.133327,77.875 172.525,79.0999877 172.525,81.55 C172.525,84.0000123 173.133327,85.225 174.35,85.225 C175.583339,85.225 176.2,84.0000123 176.2,81.55 C176.2,79.0999877 175.583339,77.875 174.35,77.875 L174.35,77.875 Z M181.625,91.025 C181.625,92.5250075 180.900007,93.6916625 179.45,94.525 C177.999993,95.3583375 176.208344,95.775 174.075,95.775 C173.041661,95.775 172.087504,95.6916675 171.2125,95.525 C170.337496,95.3583325 169.575003,95.0500023 168.925,94.6 C168.274997,94.1499978 167.95,93.59167 167.95,92.925 C167.95,92.3083303 168.24583,91.7958354 168.8375,91.3875 C169.42917,90.9791646 170.241661,90.741667 171.275,90.675 C170.508329,90.541666 169.870836,90.2375024 169.3625,89.7625 C168.854164,89.2874976 168.6,88.6750037 168.6,87.925 C168.6,87.2249965 168.858331,86.6208359 169.375,86.1125 C169.891669,85.6041641 170.524996,85.2416678 171.275,85.025 C170.524996,84.6583315 169.954169,84.175003 169.5625,83.575 C169.170831,82.974997 168.975,82.3000037 168.975,81.55 C168.975,80.349994 169.449995,79.3666705 170.4,78.6 C171.350005,77.8333295 172.666658,77.45 174.35,77.45 C176.066675,77.45 177.399995,77.883329 178.35,78.75 C178.583334,78.3666647 178.779166,78.0625011 178.9375,77.8375 C179.095834,77.6124989 179.349998,77.3791679 179.7,77.1375 C180.050002,76.8958321 180.416665,76.775 180.8,76.775 C181.400003,76.775 181.870832,76.9291651 182.2125,77.2375 C182.554168,77.5458349 182.725,77.9583307 182.725,78.475 C182.725,79.1083365 182.504169,79.5749985 182.0625,79.875 C181.620831,80.1750015 181.108336,80.325 180.525,80.325 L180.525,80.275 C180.758334,80.0583322 180.875,79.7666685 180.875,79.4 C180.875,79.0833317 180.783334,78.825001 180.6,78.625 C180.416666,78.424999 180.141668,78.325 179.775,78.325 C179.341664,78.325 178.933335,78.5333313 178.55,78.95 C179.350004,79.6500035 179.75,80.5166615 179.75,81.55 C179.75,82.750006 179.270838,83.7333295 178.3125,84.5 C177.354162,85.2666705 176.033342,85.65 174.35,85.65 C173.299995,85.65 172.400004,85.5000015 171.65,85.2 C170.866663,85.4833347 170.475,85.891664 170.475,86.425 C170.475,87.1083367 170.974995,87.45 171.975,87.45 L176.825,87.45 C178.325007,87.45 179.499996,87.7583302 180.35,88.375 C181.200004,88.9916698 181.625,89.8749943 181.625,91.025 L181.625,91.025 Z M174.075,95.325 C175.525007,95.325 176.704162,95.0875024 177.6125,94.6125 C178.520838,94.1374976 178.975,93.4916707 178.975,92.675 C178.975,91.3916603 178.116675,90.75 176.4,90.75 L172.8,90.75 C171.983329,90.75 171.341669,90.9249982 170.875,91.275 C170.408331,91.6250018 170.175,92.1416633 170.175,92.825 C170.175,93.6083372 170.541663,94.2208311 171.275,94.6625 C172.008337,95.1041689 172.941661,95.325 174.075,95.325 L174.075,95.325 Z M182.6,77.7 L187.6,77.7 L187.6,81.05 C187.933335,79.916661 188.479163,79.0333365 189.2375,78.4 C189.995837,77.7666635 190.908328,77.45 191.975,77.45 C193.225006,77.45 194.191663,77.8416628 194.875,78.625 C195.558337,79.4083372 195.9,80.46666 195.9,81.8 L195.9,87.275 C195.9,88.1083375 195.974999,88.6874984 196.125,89.0125 C196.275001,89.3375016 196.624997,89.6499985 197.175,89.95 L197.175,90 L191.05,90 L191.05,89.95 C191.600003,89.6499985 191.945833,89.3416682 192.0875,89.025 C192.229167,88.7083318 192.3,88.1250043 192.3,87.275 L192.3,81.8 C192.3,81.0499962 192.133335,80.4375024 191.8,79.9625 C191.466665,79.4874976 190.950003,79.25 190.25,79.25 C189.449996,79.25 188.808336,79.5874966 188.325,80.2625 C187.841664,80.9375034 187.6,81.8833272 187.6,83.1 L187.6,87.275 C187.6,88.1083375 187.674999,88.6874984 187.825,89.0125 C187.975001,89.3375016 188.324997,89.6499985 188.875,89.95 L188.875,90 L182.75,90 L182.75,89.95 C183.300003,89.6499985 183.645833,89.3416682 183.7875,89.025 C183.929167,88.7083318 184,88.1250043 184,87.275 L184,80.475 C184,79.6583293 183.912501,79.0791684 183.7375,78.7375 C183.562499,78.3958316 183.183336,78.0666683 182.6,77.75 L182.6,77.7 Z M64,138.25 C62.8833277,138.25 61.9291706,137.991669 61.1375,137.475 C60.3458294,136.958331 59.7916682,136.258338 59.475,135.375 C59.1916652,136.075004 58.7875026,136.683331 58.2625,137.2 C57.7374974,137.716669 57.1166702,138.058333 56.4,138.225 C56.5833342,137.224995 56.675,135.383347 56.675,132.7 L56.675,122.025 C56.675,121.241663 56.5708344,120.666669 56.3625,120.3 C56.1541656,119.933332 55.7583362,119.608335 55.175,119.325 L55.175,119.275 L60.275,119.275 L60.275,128.925 C60.541668,127.924995 61.0583295,127.095837 61.825,126.4375 C62.5916705,125.779163 63.5166612,125.45 64.6,125.45 C66.133341,125.45 67.4124949,126.024994 68.4375,127.175 C69.4625051,128.325006 69.975,129.841657 69.975,131.725 C69.975,133.691676 69.4041724,135.270827 68.2625,136.4625 C67.1208276,137.654173 65.7000085,138.25 64,138.25 L64,138.25 Z M66.15,131.875 C66.15,130.324992 65.8875026,129.120838 65.3625,128.2625 C64.8374974,127.404162 64.108338,126.975 63.175,126.975 C62.4083295,126.975 61.7333362,127.329163 61.15,128.0375 C60.5666637,128.745837 60.275,129.658328 60.275,130.775 L60.275,133.75 C60.275,134.816672 60.5583305,135.687497 61.125,136.3625 C61.6916695,137.037503 62.3583295,137.375 63.125,137.375 C64.1083382,137.375 64.8583307,136.900005 65.375,135.95 C65.8916692,134.999995 66.15,133.641676 66.15,131.875 L66.15,131.875 Z M79.475,130.05 C79.9916692,129.866666 80.25,129.475003 80.25,128.875 C80.25,128.458331 80.1208346,128.133334 79.8625,127.9 C79.6041654,127.666666 79.241669,127.55 78.775,127.55 C78.041663,127.55 77.408336,127.954163 76.875,128.7625 C76.341664,129.570837 76.075,130.583327 76.075,131.8 L76.075,135.275 C76.075,136.058337 76.2249985,136.629165 76.525,136.9875 C76.8250015,137.345835 77.3499962,137.666665 78.1,137.95 L78.1,138 L71.225,138 L71.225,137.95 C71.7750027,137.649998 72.1208326,137.341668 72.2625,137.025 C72.4041674,136.708332 72.475,136.125004 72.475,135.275 L72.475,128.475 C72.475,127.658329 72.3875009,127.079168 72.2125,126.7375 C72.0374991,126.395832 71.6583362,126.066668 71.075,125.75 L71.075,125.7 L76.075,125.7 L76.075,129.8 C76.8250037,126.899986 78.1583237,125.45 80.075,125.45 C80.8250037,125.45 81.4374976,125.670831 81.9125,126.1125 C82.3875024,126.554169 82.625,127.124997 82.625,127.825 C82.625,128.608337 82.4000022,129.220831 81.95,129.6625 C81.4999977,130.104169 80.9666697,130.325 80.35,130.325 C79.949998,130.325 79.6583342,130.233334 79.475,130.05 L79.475,130.05 Z M96.85,137.05 L96.85,137.1 C96.2166635,137.850004 95.3083392,138.225 94.125,138.225 C92.4249915,138.225 91.4666677,137.483341 91.25,136 C91.25,135.966666 91.2416667,135.833334 91.225,135.6 C91.2083332,135.366665 91.2,135.216667 91.2,135.15 C91.0166657,136.016671 90.5500037,136.737497 89.8,137.3125 C89.0499962,137.887503 88.1583385,138.175 87.125,138.175 C86.0749947,138.175 85.2041701,137.908336 84.5125,137.375 C83.8208299,136.841664 83.475,136.066672 83.475,135.05 C83.475,134.516664 83.5874989,134.045835 83.8125,133.6375 C84.0375011,133.229165 84.3041651,132.904168 84.6125,132.6625 C84.9208349,132.420832 85.3708304,132.195834 85.9625,131.9875 C86.5541696,131.779166 87.0624979,131.625 87.4875,131.525 C87.9125021,131.425 88.5083295,131.308334 89.275,131.175 L91.175,130.825 L91.175,128.775 C91.175,127.941663 90.9875019,127.258336 90.6125,126.725 C90.2374981,126.191664 89.6583372,125.925 88.875,125.925 C88.1916632,125.925 87.6750017,126.108332 87.325,126.475 C86.9749982,126.841669 86.8,127.308331 86.8,127.875 C86.8,128.341669 86.9041656,128.699999 87.1125,128.95 C87.3208344,129.200001 87.6083315,129.325 87.975,129.325 C88.108334,129.325 88.2499992,129.3 88.4,129.25 C88.0499982,130.150005 87.3250055,130.6 86.225,130.6 C85.5916635,130.6 85.0708354,130.416669 84.6625,130.05 C84.2541646,129.683332 84.05,129.200003 84.05,128.6 C84.05,127.699995 84.5083287,126.950003 85.425,126.35 C86.3416712,125.749997 87.5166595,125.45 88.95,125.45 C90.883343,125.45 92.3374951,125.79583 93.3125,126.4875 C94.2875049,127.17917 94.775,128.274992 94.775,129.775 C94.775,130.39167 94.7666667,131.249995 94.75,132.35 C94.7333332,133.450005 94.725,134.274997 94.725,134.825 C94.725,135.641671 94.8333322,136.241665 95.05,136.625 C95.2666677,137.008335 95.6583305,137.2 96.225,137.2 C96.4583345,137.2 96.6666657,137.15 96.85,137.05 L96.85,137.05 Z M91.175,131.275 L89.875,131.55 C88.9083285,131.750001 88.2000022,132.091664 87.75,132.575 C87.2999977,133.058336 87.075,133.716662 87.075,134.55 C87.075,135.250003 87.2249985,135.783332 87.525,136.15 C87.8250015,136.516668 88.241664,136.7 88.775,136.7 C89.44167,136.7 89.9958311,136.420836 90.4375,135.8625 C90.8791689,135.304164 91.1083332,134.583338 91.125,133.7 L91.175,131.275 Z M96.95,125.7 L101.95,125.7 L101.95,129.05 C102.283335,127.916661 102.829163,127.033336 103.5875,126.4 C104.345837,125.766663 105.258328,125.45 106.325,125.45 C107.575006,125.45 108.541663,125.841663 109.225,126.625 C109.908337,127.408337 110.25,128.46666 110.25,129.8 L110.25,135.275 C110.25,136.108338 110.324999,136.687498 110.475,137.0125 C110.625001,137.337502 110.974997,137.649998 111.525,137.95 L111.525,138 L105.4,138 L105.4,137.95 C105.950003,137.649998 106.295833,137.341668 106.4375,137.025 C106.579167,136.708332 106.65,136.125004 106.65,135.275 L106.65,129.8 C106.65,129.049996 106.483335,128.437502 106.15,127.9625 C105.816665,127.487498 105.300003,127.25 104.6,127.25 C103.799996,127.25 103.158336,127.587497 102.675,128.2625 C102.191664,128.937503 101.95,129.883327 101.95,131.1 L101.95,135.275 C101.95,136.108338 102.024999,136.687498 102.175,137.0125 C102.325001,137.337502 102.674997,137.649998 103.225,137.95 L103.225,138 L97.1,138 L97.1,137.95 C97.6500027,137.649998 97.9958326,137.341668 98.1375,137.025 C98.2791674,136.708332 98.35,136.125004 98.35,135.275 L98.35,128.475 C98.35,127.658329 98.2625009,127.079168 98.0875,126.7375 C97.9124991,126.395832 97.5333362,126.066668 96.95,125.75 L96.95,125.7 Z M119.375,136.75 C120.14167,136.75 120.816664,136.40417 121.4,135.7125 C121.983336,135.02083 122.275,134.125005 122.275,133.025 L122.275,130.575 C122.275,129.408327 121.983336,128.458337 121.4,127.725 C120.816664,126.991663 120.133337,126.625 119.35,126.625 C118.399995,126.625 117.675002,127.087495 117.175,128.0125 C116.674997,128.937505 116.425,130.258325 116.425,131.975 C116.425,133.491674 116.683331,134.666663 117.2,135.5 C117.716669,136.333338 118.441662,136.75 119.375,136.75 L119.375,136.75 Z M122.275,128.575 L122.275,122.025 C122.275,121.241663 122.170834,120.666669 121.9625,120.3 C121.754166,119.933332 121.358336,119.608335 120.775,119.325 L120.775,119.275 L125.875,119.275 L125.875,135.275 C125.875,136.041671 125.962499,136.604165 126.1375,136.9625 C126.312501,137.320835 126.674997,137.649998 127.225,137.95 L127.225,138 L122.275,138 L122.275,134.8 C122.008332,135.800005 121.495837,136.624997 120.7375,137.275 C119.979163,137.925003 119.058339,138.25 117.975,138.25 C116.441659,138.25 115.158338,137.675006 114.125,136.525 C113.091661,135.374994 112.575,133.858343 112.575,131.975 C112.575,130.041657 113.112495,128.470839 114.1875,127.2625 C115.262505,126.054161 116.583325,125.45 118.15,125.45 C119.200005,125.45 120.08333,125.741664 120.8,126.325 C121.51667,126.908336 122.008332,127.658329 122.275,128.575 L122.275,128.575 Z M129.175,121.675 C129.175,121.091664 129.379165,120.600002 129.7875,120.2 C130.195835,119.799998 130.70833,119.6 131.325,119.6 C131.94167,119.6 132.454165,119.799998 132.8625,120.2 C133.270835,120.600002 133.475,121.091664 133.475,121.675 C133.475,122.258336 133.270835,122.749998 132.8625,123.15 C132.454165,123.550002 131.94167,123.75 131.325,123.75 C130.70833,123.75 130.195835,123.550002 129.7875,123.15 C129.379165,122.749998 129.175,122.258336 129.175,121.675 L129.175,121.675 Z M133.2,125.7 L133.2,135.275 C133.2,136.108338 133.274999,136.687498 133.425,137.0125 C133.575001,137.337502 133.924997,137.649998 134.475,137.95 L134.475,138 L128.35,138 L128.35,137.95 C128.900003,137.649998 129.245833,137.341668 129.3875,137.025 C129.529167,136.708332 129.6,136.125004 129.6,135.275 L129.6,128.475 C129.6,127.658329 129.512501,127.079168 129.3375,126.7375 C129.162499,126.395832 128.783336,126.066668 128.2,125.75 L128.2,125.7 L133.2,125.7 Z M135.45,125.7 L140.45,125.7 L140.45,129.05 C140.783335,127.916661 141.329163,127.033336 142.0875,126.4 C142.845837,125.766663 143.758328,125.45 144.825,125.45 C146.075006,125.45 147.041663,125.841663 147.725,126.625 C148.408337,127.408337 148.75,128.46666 148.75,129.8 L148.75,135.275 C148.75,136.108338 148.824999,136.687498 148.975,137.0125 C149.125001,137.337502 149.474997,137.649998 150.025,137.95 L150.025,138 L143.9,138 L143.9,137.95 C144.450003,137.649998 144.795833,137.341668 144.9375,137.025 C145.079167,136.708332 145.15,136.125004 145.15,135.275 L145.15,129.8 C145.15,129.049996 144.983335,128.437502 144.65,127.9625 C144.316665,127.487498 143.800003,127.25 143.1,127.25 C142.299996,127.25 141.658336,127.587497 141.175,128.2625 C140.691664,128.937503 140.45,129.883327 140.45,131.1 L140.45,135.275 C140.45,136.108338 140.524999,136.687498 140.675,137.0125 C140.825001,137.337502 141.174997,137.649998 141.725,137.95 L141.725,138 L135.6,138 L135.6,137.95 C136.150003,137.649998 136.495833,137.341668 136.6375,137.025 C136.779167,136.708332 136.85,136.125004 136.85,135.275 L136.85,128.475 C136.85,127.658329 136.762501,127.079168 136.5875,126.7375 C136.412499,126.395832 136.033336,126.066668 135.45,125.75 L135.45,125.7 Z M156.975,125.875 C155.758327,125.875 155.15,127.099988 155.15,129.55 C155.15,132.000012 155.758327,133.225 156.975,133.225 C158.208339,133.225 158.825,132.000012 158.825,129.55 C158.825,127.099988 158.208339,125.875 156.975,125.875 L156.975,125.875 Z M164.25,139.025 C164.25,140.525008 163.525007,141.691663 162.075,142.525 C160.624993,143.358338 158.833344,143.775 156.7,143.775 C155.666661,143.775 154.712504,143.691667 153.8375,143.525 C152.962496,143.358333 152.200003,143.050002 151.55,142.6 C150.899997,142.149998 150.575,141.59167 150.575,140.925 C150.575,140.30833 150.87083,139.795835 151.4625,139.3875 C152.05417,138.979165 152.866661,138.741667 153.9,138.675 C153.133329,138.541666 152.495836,138.237502 151.9875,137.7625 C151.479164,137.287498 151.225,136.675004 151.225,135.925 C151.225,135.224997 151.483331,134.620836 152,134.1125 C152.516669,133.604164 153.149996,133.241668 153.9,133.025 C153.149996,132.658331 152.579169,132.175003 152.1875,131.575 C151.795831,130.974997 151.6,130.300004 151.6,129.55 C151.6,128.349994 152.074995,127.36667 153.025,126.6 C153.975005,125.833329 155.291658,125.45 156.975,125.45 C158.691675,125.45 160.024995,125.883329 160.975,126.75 C161.208334,126.366665 161.404166,126.062501 161.5625,125.8375 C161.720834,125.612499 161.974998,125.379168 162.325,125.1375 C162.675002,124.895832 163.041665,124.775 163.425,124.775 C164.025003,124.775 164.495832,124.929165 164.8375,125.2375 C165.179168,125.545835 165.35,125.958331 165.35,126.475 C165.35,127.108337 165.129169,127.574998 164.6875,127.875 C164.245831,128.175001 163.733336,128.325 163.15,128.325 L163.15,128.275 C163.383334,128.058332 163.5,127.766668 163.5,127.4 C163.5,127.083332 163.408334,126.825001 163.225,126.625 C163.041666,126.424999 162.766668,126.325 162.4,126.325 C161.966664,126.325 161.558335,126.533331 161.175,126.95 C161.975004,127.650004 162.375,128.516661 162.375,129.55 C162.375,130.750006 161.895838,131.733329 160.9375,132.5 C159.979162,133.266671 158.658342,133.65 156.975,133.65 C155.924995,133.65 155.025004,133.500001 154.275,133.2 C153.491663,133.483335 153.1,133.891664 153.1,134.425 C153.1,135.108337 153.599995,135.45 154.6,135.45 L159.45,135.45 C160.950007,135.45 162.124996,135.75833 162.975,136.375 C163.825004,136.99167 164.25,137.874994 164.25,139.025 L164.25,139.025 Z M156.7,143.325 C158.150007,143.325 159.329162,143.087502 160.2375,142.6125 C161.145838,142.137498 161.6,141.491671 161.6,140.675 C161.6,139.39166 160.741675,138.75 159.025,138.75 L155.425,138.75 C154.608329,138.75 153.966669,138.924998 153.5,139.275 C153.033331,139.625002 152.8,140.141663 152.8,140.825 C152.8,141.608337 153.166663,142.220831 153.9,142.6625 C154.633337,143.104169 155.566661,143.325 156.7,143.325 L156.7,143.325 Z M69.075,185.05 L69.075,185.1 C68.4416635,185.850004 67.5333392,186.225 66.35,186.225 C64.6499915,186.225 63.6916677,185.483341 63.475,184 C63.475,183.966667 63.4666667,183.833334 63.45,183.6 C63.4333332,183.366666 63.425,183.216667 63.425,183.15 C63.2416657,184.016671 62.7750037,184.737497 62.025,185.3125 C61.2749962,185.887503 60.3833385,186.175 59.35,186.175 C58.2999947,186.175 57.4291701,185.908336 56.7375,185.375 C56.0458299,184.841664 55.7,184.066672 55.7,183.05 C55.7,182.516664 55.8124989,182.045835 56.0375,181.6375 C56.2625011,181.229165 56.5291651,180.904168 56.8375,180.6625 C57.1458349,180.420832 57.5958304,180.195834 58.1875,179.9875 C58.7791696,179.779166 59.2874979,179.625 59.7125,179.525 C60.1375021,179.425 60.7333295,179.308334 61.5,179.175 L63.4,178.825 L63.4,176.775 C63.4,175.941663 63.2125019,175.258336 62.8375,174.725 C62.4624981,174.191664 61.8833372,173.925 61.1,173.925 C60.4166632,173.925 59.9000017,174.108332 59.55,174.475 C59.1999982,174.841669 59.025,175.308331 59.025,175.875 C59.025,176.341669 59.1291656,176.699999 59.3375,176.95 C59.5458344,177.200001 59.8333315,177.325 60.2,177.325 C60.333334,177.325 60.4749992,177.3 60.625,177.25 C60.2749982,178.150004 59.5500055,178.6 58.45,178.6 C57.8166635,178.6 57.2958354,178.416669 56.8875,178.05 C56.4791646,177.683332 56.275,177.200003 56.275,176.6 C56.275,175.699995 56.7333287,174.950003 57.65,174.35 C58.5666712,173.749997 59.7416595,173.45 61.175,173.45 C63.108343,173.45 64.5624951,173.79583 65.5375,174.4875 C66.5125049,175.17917 67,176.274992 67,177.775 C67,178.39167 66.9916667,179.249994 66.975,180.35 C66.9583332,181.450006 66.95,182.274997 66.95,182.825 C66.95,183.641671 67.0583322,184.241665 67.275,184.625 C67.4916677,185.008335 67.8833305,185.2 68.45,185.2 C68.6833345,185.2 68.8916657,185.150001 69.075,185.05 L69.075,185.05 Z M63.4,179.275 L62.1,179.55 C61.1333285,179.750001 60.4250022,180.091664 59.975,180.575 C59.5249977,181.058336 59.3,181.716663 59.3,182.55 C59.3,183.250003 59.4499985,183.783332 59.75,184.15 C60.0500015,184.516668 60.466664,184.7 61,184.7 C61.66667,184.7 62.2208311,184.420836 62.6625,183.8625 C63.1041689,183.304164 63.3333332,182.583338 63.35,181.7 L63.4,179.275 Z M77.575,178.05 C78.0916692,177.866666 78.35,177.475003 78.35,176.875 C78.35,176.458331 78.2208346,176.133334 77.9625,175.9 C77.7041654,175.666665 77.341669,175.55 76.875,175.55 C76.141663,175.55 75.508336,175.954163 74.975,176.7625 C74.441664,177.570837 74.175,178.583327 74.175,179.8 L74.175,183.275 C74.175,184.058337 74.3249985,184.629165 74.625,184.9875 C74.9250015,185.345835 75.4499962,185.666665 76.2,185.95 L76.2,186 L69.325,186 L69.325,185.95 C69.8750027,185.649998 70.2208326,185.341668 70.3625,185.025 C70.5041674,184.708332 70.575,184.125004 70.575,183.275 L70.575,176.475 C70.575,175.658329 70.4875009,175.079168 70.3125,174.7375 C70.1374991,174.395832 69.7583362,174.066668 69.175,173.75 L69.175,173.7 L74.175,173.7 L74.175,177.8 C74.9250037,174.899986 76.2583237,173.45 78.175,173.45 C78.9250037,173.45 79.5374976,173.670831 80.0125,174.1125 C80.4875024,174.554169 80.725,175.124997 80.725,175.825 C80.725,176.608337 80.5000022,177.220831 80.05,177.6625 C79.5999977,178.104169 79.0666697,178.325 78.45,178.325 C78.049998,178.325 77.7583342,178.233334 77.575,178.05 L77.575,178.05 Z M90,181.65 L90.25,181.725 C89.8999982,184.741682 88.5500117,186.25 86.2,186.25 C85.066661,186.25 84.16667,185.908337 83.5,185.225 C82.83333,184.541663 82.5083332,183.550006 82.525,182.25 L82.55,174.35 L81.05,174.35 L81.05,174.125 C82.2333392,173.874999 83.2499957,173.333337 84.1,172.5 C84.9500042,171.666663 85.541665,170.625006 85.875,169.375 L86.125,169.375 L86.125,173.7 L89.925,173.7 L89.8,174.35 L86.125,174.35 L86.125,182.275 C86.125,183.725007 86.6499947,184.45 87.7,184.45 C88.900006,184.45 89.666665,183.516676 90,181.65 L90,181.65 Z M102.975,184.75 C103.74167,184.75 104.416664,184.40417 105,183.7125 C105.583336,183.02083 105.875,182.125006 105.875,181.025 L105.875,178.575 C105.875,177.408327 105.583336,176.458337 105,175.725 C104.416664,174.991663 103.733337,174.625 102.95,174.625 C101.999995,174.625 101.275002,175.087495 100.775,176.0125 C100.274997,176.937505 100.025,178.258325 100.025,179.975 C100.025,181.491674 100.283331,182.666663 100.8,183.5 C101.316669,184.333337 102.041662,184.75 102.975,184.75 L102.975,184.75 Z M105.875,176.575 L105.875,170.025 C105.875,169.241663 105.770834,168.666669 105.5625,168.3 C105.354166,167.933332 104.958336,167.608335 104.375,167.325 L104.375,167.275 L109.475,167.275 L109.475,183.275 C109.475,184.041671 109.562499,184.604165 109.7375,184.9625 C109.912501,185.320835 110.274997,185.649998 110.825,185.95 L110.825,186 L105.875,186 L105.875,182.8 C105.608332,183.800005 105.095837,184.624997 104.3375,185.275 C103.579163,185.925003 102.658339,186.25 101.575,186.25 C100.041659,186.25 98.7583385,185.675006 97.725,184.525 C96.6916615,183.374994 96.175,181.858343 96.175,179.975 C96.175,178.041657 96.7124946,176.470839 97.7875,175.2625 C98.8625054,174.054161 100.183325,173.45 101.75,173.45 C102.800005,173.45 103.68333,173.741664 104.4,174.325 C105.11667,174.908336 105.608332,175.658329 105.875,176.575 L105.875,176.575 Z M112.775,169.675 C112.775,169.091664 112.979165,168.600002 113.3875,168.2 C113.795835,167.799998 114.30833,167.6 114.925,167.6 C115.54167,167.6 116.054165,167.799998 116.4625,168.2 C116.870835,168.600002 117.075,169.091664 117.075,169.675 C117.075,170.258336 116.870835,170.749998 116.4625,171.15 C116.054165,171.550002 115.54167,171.75 114.925,171.75 C114.30833,171.75 113.795835,171.550002 113.3875,171.15 C112.979165,170.749998 112.775,170.258336 112.775,169.675 L112.775,169.675 Z M116.8,173.7 L116.8,183.275 C116.8,184.108338 116.874999,184.687498 117.025,185.0125 C117.175001,185.337502 117.524997,185.649998 118.075,185.95 L118.075,186 L111.95,186 L111.95,185.95 C112.500003,185.649998 112.845833,185.341668 112.9875,185.025 C113.129167,184.708332 113.2,184.125004 113.2,183.275 L113.2,176.475 C113.2,175.658329 113.112501,175.079168 112.9375,174.7375 C112.762499,174.395832 112.383336,174.066668 111.8,173.75 L111.8,173.7 L116.8,173.7 Z M127.45,178.05 C127.966669,177.866666 128.225,177.475003 128.225,176.875 C128.225,176.458331 128.095835,176.133334 127.8375,175.9 C127.579165,175.666665 127.216669,175.55 126.75,175.55 C126.016663,175.55 125.383336,175.954163 124.85,176.7625 C124.316664,177.570837 124.05,178.583327 124.05,179.8 L124.05,183.275 C124.05,184.058337 124.199998,184.629165 124.5,184.9875 C124.800001,185.345835 125.324996,185.666665 126.075,185.95 L126.075,186 L119.2,186 L119.2,185.95 C119.750003,185.649998 120.095833,185.341668 120.2375,185.025 C120.379167,184.708332 120.45,184.125004 120.45,183.275 L120.45,176.475 C120.45,175.658329 120.362501,175.079168 120.1875,174.7375 C120.012499,174.395832 119.633336,174.066668 119.05,173.75 L119.05,173.7 L124.05,173.7 L124.05,177.8 C124.800004,174.899986 126.133324,173.45 128.05,173.45 C128.800004,173.45 129.412498,173.670831 129.8875,174.1125 C130.362502,174.554169 130.6,175.124997 130.6,175.825 C130.6,176.608337 130.375002,177.220831 129.925,177.6625 C129.474998,178.104169 128.94167,178.325 128.325,178.325 C127.924998,178.325 127.633334,178.233334 127.45,178.05 L127.45,178.05 Z M137.625,173.45 C139.475009,173.45 140.874995,173.987495 141.825,175.0625 C142.775005,176.137505 143.25,177.558324 143.25,179.325 L135,179.325 C135,180.908341 135.379163,182.174995 136.1375,183.125 C136.895837,184.075005 137.91666,184.55 139.2,184.55 C141.033342,184.55 142.316663,183.700009 143.05,182 L143.2,182.075 C142.883332,183.391673 142.233338,184.416663 141.25,185.15 C140.266662,185.883337 139.066674,186.25 137.65,186.25 C135.849991,186.25 134.350006,185.679172 133.15,184.5375 C131.949994,183.395828 131.35,181.841677 131.35,179.875 C131.35,177.97499 131.958327,176.429173 133.175,175.2375 C134.391673,174.045827 135.874991,173.45 137.625,173.45 L137.625,173.45 Z M135.025,178.8 L139.7,178.8 C139.7,178.049996 139.675,177.408336 139.625,176.875 C139.575,176.341664 139.479167,175.837502 139.3375,175.3625 C139.195833,174.887498 138.979168,174.529168 138.6875,174.2875 C138.395832,174.045832 138.033335,173.925 137.6,173.925 C136.866663,173.925 136.266669,174.366662 135.8,175.25 C135.333331,176.133338 135.075,177.316659 135.025,178.8 L135.025,178.8 Z M151.325,173.925 C150.358328,173.925 149.604169,174.424995 149.0625,175.425 C148.520831,176.425005 148.25,177.708326 148.25,179.275 C148.25,180.941675 148.612496,182.237495 149.3375,183.1625 C150.062504,184.087505 151.024994,184.55 152.225,184.55 C154.008342,184.55 155.266663,183.700009 156,182 L156.15,182.075 C155.849998,183.391673 155.208338,184.416663 154.225,185.15 C153.241662,185.883337 152.050007,186.25 150.65,186.25 C148.949991,186.25 147.491673,185.691672 146.275,184.575 C145.058327,183.458328 144.45,181.966676 144.45,180.1 C144.45,178.066656 145.10416,176.450006 146.4125,175.25 C147.72084,174.049994 149.34999,173.45 151.3,173.45 C152.650007,173.45 153.754162,173.74583 154.6125,174.3375 C155.470838,174.92917 155.9,175.691662 155.9,176.625 C155.9,177.29167 155.687502,177.812498 155.2625,178.1875 C154.837498,178.562502 154.325003,178.75 153.725,178.75 C153.174997,178.75 152.725002,178.616668 152.375,178.35 C152.024998,178.083332 151.833333,177.766668 151.8,177.4 C151.933334,177.466667 152.091666,177.5 152.275,177.5 C152.675002,177.5 152.979166,177.354168 153.1875,177.0625 C153.395834,176.770832 153.5,176.383336 153.5,175.9 C153.5,175.299997 153.316668,174.820835 152.95,174.4625 C152.583331,174.104165 152.04167,173.925 151.325,173.925 L151.325,173.925 Z M165.55,181.65 L165.8,181.725 C165.449998,184.741682 164.100012,186.25 161.75,186.25 C160.616661,186.25 159.71667,185.908337 159.05,185.225 C158.38333,184.541663 158.058333,183.550006 158.075,182.25 L158.1,174.35 L156.6,174.35 L156.6,174.125 C157.783339,173.874999 158.799996,173.333337 159.65,172.5 C160.500004,171.666663 161.091665,170.625006 161.425,169.375 L161.675,169.375 L161.675,173.7 L165.475,173.7 L165.35,174.35 L161.675,174.35 L161.675,182.275 C161.675,183.725007 162.199995,184.45 163.25,184.45 C164.450006,184.45 165.216665,183.516676 165.55,181.65 L165.55,181.65 Z M167.6,169.675 C167.6,169.091664 167.804165,168.600002 168.2125,168.2 C168.620835,167.799998 169.13333,167.6 169.75,167.6 C170.36667,167.6 170.879165,167.799998 171.2875,168.2 C171.695835,168.600002 171.9,169.091664 171.9,169.675 C171.9,170.258336 171.695835,170.749998 171.2875,171.15 C170.879165,171.550002 170.36667,171.75 169.75,171.75 C169.13333,171.75 168.620835,171.550002 168.2125,171.15 C167.804165,170.749998 167.6,170.258336 167.6,169.675 L167.6,169.675 Z M171.625,173.7 L171.625,183.275 C171.625,184.108338 171.699999,184.687498 171.85,185.0125 C172.000001,185.337502 172.349997,185.649998 172.9,185.95 L172.9,186 L166.775,186 L166.775,185.95 C167.325003,185.649998 167.670833,185.341668 167.8125,185.025 C167.954167,184.708332 168.025,184.125004 168.025,183.275 L168.025,176.475 C168.025,175.658329 167.937501,175.079168 167.7625,174.7375 C167.587499,174.395832 167.208336,174.066668 166.625,173.75 L166.625,173.7 L171.625,173.7 Z M180.55,186.25 C178.683324,186.25 177.12084,185.650006 175.8625,184.45 C174.60416,183.249994 173.975,181.716676 173.975,179.85 C173.975,177.983324 174.60416,176.450006 175.8625,175.25 C177.12084,174.049994 178.683324,173.45 180.55,173.45 C182.433343,173.45 184.00416,174.045827 185.2625,175.2375 C186.52084,176.429173 187.15,177.966657 187.15,179.85 C187.15,181.733343 186.52084,183.270827 185.2625,184.4625 C184.00416,185.654173 182.433343,186.25 180.55,186.25 L180.55,186.25 Z M180.55,185.8 C181.450004,185.8 182.129164,185.279172 182.5875,184.2375 C183.045836,183.195828 183.275,181.733343 183.275,179.85 C183.275,177.966657 183.045836,176.508339 182.5875,175.475 C182.129164,174.441662 181.450004,173.925 180.55,173.925 C179.649995,173.925 178.975002,174.441662 178.525,175.475 C178.074998,176.508339 177.85,177.966657 177.85,179.85 C177.85,181.733343 178.074998,183.195828 178.525,184.2375 C178.975002,185.279172 179.649995,185.8 180.55,185.8 L180.55,185.8 Z M188.25,173.7 L193.25,173.7 L193.25,177.05 C193.583335,175.916661 194.129163,175.033336 194.8875,174.4 C195.645837,173.766663 196.558328,173.45 197.625,173.45 C198.875006,173.45 199.841663,173.841663 200.525,174.625 C201.208337,175.408337 201.55,176.46666 201.55,177.8 L201.55,183.275 C201.55,184.108338 201.624999,184.687498 201.775,185.0125 C201.925001,185.337502 202.274997,185.649998 202.825,185.95 L202.825,186 L196.7,186 L196.7,185.95 C197.250003,185.649998 197.595833,185.341668 197.7375,185.025 C197.879167,184.708332 197.95,184.125004 197.95,183.275 L197.95,177.8 C197.95,177.049996 197.783335,176.437502 197.45,175.9625 C197.116665,175.487498 196.600003,175.25 195.9,175.25 C195.099996,175.25 194.458336,175.587497 193.975,176.2625 C193.491664,176.937503 193.25,177.883327 193.25,179.1 L193.25,183.275 C193.25,184.108338 193.324999,184.687498 193.475,185.0125 C193.625001,185.337502 193.974997,185.649998 194.525,185.95 L194.525,186 L188.4,186 L188.4,185.95 C188.950003,185.649998 189.295833,185.341668 189.4375,185.025 C189.579167,184.708332 189.65,184.125004 189.65,183.275 L189.65,176.475 C189.65,175.658329 189.562501,175.079168 189.3875,174.7375 C189.212499,174.395832 188.833336,174.066668 188.25,173.75 L188.25,173.7 Z M61.5,221.875 C60.2833272,221.875 59.675,223.099988 59.675,225.55 C59.675,228.000012 60.2833272,229.225 61.5,229.225 C62.7333395,229.225 63.35,228.000012 63.35,225.55 C63.35,223.099988 62.7333395,221.875 61.5,221.875 L61.5,221.875 Z M68.775,235.025 C68.775,236.525008 68.0500072,237.691663 66.6,238.525 C65.1499927,239.358338 63.358344,239.775 61.225,239.775 C60.1916615,239.775 59.2375044,239.691667 58.3625,239.525 C57.4874956,239.358333 56.7250032,239.050002 56.075,238.6 C55.4249967,238.149998 55.1,237.59167 55.1,236.925 C55.1,236.30833 55.3958304,235.795835 55.9875,235.3875 C56.5791696,234.979165 57.3916615,234.741667 58.425,234.675 C57.6583295,234.541666 57.0208359,234.237502 56.5125,233.7625 C56.0041641,233.287498 55.75,232.675004 55.75,231.925 C55.75,231.224997 56.0083307,230.620836 56.525,230.1125 C57.0416692,229.604164 57.6749962,229.241668 58.425,229.025 C57.6749962,228.658332 57.1041686,228.175003 56.7125,227.575 C56.3208314,226.974997 56.125,226.300004 56.125,225.55 C56.125,224.349994 56.5999952,223.36667 57.55,222.6 C58.5000047,221.833329 59.8166582,221.45 61.5,221.45 C63.2166752,221.45 64.5499952,221.883329 65.5,222.75 C65.7333345,222.366665 65.9291659,222.062501 66.0875,221.8375 C66.2458341,221.612499 66.4999982,221.379168 66.85,221.1375 C67.2000017,220.895832 67.5666647,220.775 67.95,220.775 C68.550003,220.775 69.0208316,220.929165 69.3625,221.2375 C69.7041684,221.545835 69.875,221.958331 69.875,222.475 C69.875,223.108337 69.6541689,223.574998 69.2125,223.875 C68.7708311,224.175002 68.2583362,224.325 67.675,224.325 L67.675,224.275 C67.9083345,224.058332 68.025,223.766669 68.025,223.4 C68.025,223.083332 67.9333342,222.825001 67.75,222.625 C67.5666657,222.424999 67.2916685,222.325 66.925,222.325 C66.4916645,222.325 66.0833352,222.533331 65.7,222.95 C66.500004,223.650003 66.9,224.516661 66.9,225.55 C66.9,226.750006 66.4208381,227.733329 65.4625,228.5 C64.5041619,229.266671 63.1833417,229.65 61.5,229.65 C60.4499947,229.65 59.5500037,229.500001 58.8,229.2 C58.0166627,229.483335 57.625,229.891664 57.625,230.425 C57.625,231.108337 58.124995,231.45 59.125,231.45 L63.975,231.45 C65.4750075,231.45 66.6499957,231.75833 67.5,232.375 C68.3500042,232.99167 68.775,233.874994 68.775,235.025 L68.775,235.025 Z M61.225,239.325 C62.6750072,239.325 63.8541621,239.087502 64.7625,238.6125 C65.6708379,238.137498 66.125,237.491671 66.125,236.675 C66.125,235.39166 65.2666752,234.75 63.55,234.75 L59.95,234.75 C59.1333292,234.75 58.491669,234.924998 58.025,235.275 C57.558331,235.625002 57.325,236.141663 57.325,236.825 C57.325,237.608337 57.691663,238.220831 58.425,238.6625 C59.158337,239.104169 60.091661,239.325 61.225,239.325 L61.225,239.325 Z M78.15,226.05 C78.6666692,225.866666 78.925,225.475003 78.925,224.875 C78.925,224.458331 78.7958346,224.133335 78.5375,223.9 C78.2791654,223.666665 77.916669,223.55 77.45,223.55 C76.716663,223.55 76.083336,223.954163 75.55,224.7625 C75.016664,225.570837 74.75,226.583327 74.75,227.8 L74.75,231.275 C74.75,232.058337 74.8999985,232.629165 75.2,232.9875 C75.5000015,233.345835 76.0249962,233.666665 76.775,233.95 L76.775,234 L69.9,234 L69.9,233.95 C70.4500027,233.649999 70.7958326,233.341668 70.9375,233.025 C71.0791674,232.708332 71.15,232.125004 71.15,231.275 L71.15,224.475 C71.15,223.658329 71.0625009,223.079168 70.8875,222.7375 C70.7124991,222.395832 70.3333362,222.066668 69.75,221.75 L69.75,221.7 L74.75,221.7 L74.75,225.8 C75.5000037,222.899986 76.8333237,221.45 78.75,221.45 C79.5000037,221.45 80.1124976,221.670831 80.5875,222.1125 C81.0625024,222.554169 81.3,223.124997 81.3,223.825 C81.3,224.608337 81.0750022,225.220831 80.625,225.6625 C80.1749977,226.104169 79.6416697,226.325 79.025,226.325 C78.624998,226.325 78.3333342,226.233334 78.15,226.05 L78.15,226.05 Z M95.525,233.05 L95.525,233.1 C94.8916635,233.850004 93.9833392,234.225 92.8,234.225 C91.0999915,234.225 90.1416677,233.483341 89.925,232 C89.925,231.966667 89.9166667,231.833335 89.9,231.6 C89.8833332,231.366665 89.875,231.216667 89.875,231.15 C89.6916657,232.016671 89.2250037,232.737497 88.475,233.3125 C87.7249962,233.887503 86.8333385,234.175 85.8,234.175 C84.7499947,234.175 83.8791701,233.908336 83.1875,233.375 C82.4958299,232.841664 82.15,232.066672 82.15,231.05 C82.15,230.516664 82.2624989,230.045835 82.4875,229.6375 C82.7125011,229.229165 82.9791651,228.904168 83.2875,228.6625 C83.5958349,228.420832 84.0458304,228.195834 84.6375,227.9875 C85.2291696,227.779166 85.7374979,227.625 86.1625,227.525 C86.5875021,227.425 87.1833295,227.308334 87.95,227.175 L89.85,226.825 L89.85,224.775 C89.85,223.941663 89.6625019,223.258336 89.2875,222.725 C88.9124981,222.191664 88.3333372,221.925 87.55,221.925 C86.8666632,221.925 86.3500017,222.108331 86,222.475 C85.6499982,222.841668 85.475,223.308331 85.475,223.875 C85.475,224.341669 85.5791656,224.699999 85.7875,224.95 C85.9958344,225.200001 86.2833315,225.325 86.65,225.325 C86.783334,225.325 86.9249992,225.3 87.075,225.25 C86.7249982,226.150004 86.0000055,226.6 84.9,226.6 C84.2666635,226.6 83.7458354,226.416668 83.3375,226.05 C82.9291646,225.683332 82.725,225.200003 82.725,224.6 C82.725,223.699995 83.1833287,222.950003 84.1,222.35 C85.0166712,221.749997 86.1916595,221.45 87.625,221.45 C89.558343,221.45 91.0124951,221.79583 91.9875,222.4875 C92.9625049,223.17917 93.45,224.274992 93.45,225.775 C93.45,226.39167 93.4416667,227.249995 93.425,228.35 C93.4083332,229.450006 93.4,230.274997 93.4,230.825 C93.4,231.641671 93.5083322,232.241665 93.725,232.625 C93.9416677,233.008335 94.3333305,233.2 94.9,233.2 C95.1333345,233.2 95.3416657,233.150001 95.525,233.05 L95.525,233.05 Z M89.85,227.275 L88.55,227.55 C87.5833285,227.750001 86.8750022,228.091664 86.425,228.575 C85.9749977,229.058336 85.75,229.716663 85.75,230.55 C85.75,231.250004 85.8999985,231.783332 86.2,232.15 C86.5000015,232.516669 86.916664,232.7 87.45,232.7 C88.11667,232.7 88.6708311,232.420836 89.1125,231.8625 C89.5541689,231.304164 89.7833332,230.583338 89.8,229.7 L89.85,227.275 Z M103.425,222.975 C102.658329,222.975 101.983336,223.32083 101.4,224.0125 C100.816664,224.70417 100.525,225.591661 100.525,226.675 L100.525,229.125 C100.525,230.291672 100.816664,231.241663 101.4,231.975 C101.983336,232.708337 102.666663,233.075 103.45,233.075 C104.400005,233.075 105.124997,232.612505 105.625,231.6875 C106.125002,230.762495 106.375,229.441675 106.375,227.725 C106.375,226.224992 106.116669,225.058337 105.6,224.225 C105.083331,223.391662 104.358338,222.975 103.425,222.975 L103.425,222.975 Z M100.525,231.125 L100.525,236.8 C100.525,237.650004 100.595833,238.233332 100.7375,238.55 C100.879167,238.866668 101.224997,239.174999 101.775,239.475 L101.775,239.525 L95.65,239.525 L95.65,239.475 C96.2000027,239.174999 96.5499992,238.862502 96.7,238.5375 C96.8500007,238.212498 96.925,237.633337 96.925,236.8 L96.925,224.475 C96.925,223.674996 96.8333342,223.100002 96.65,222.75 C96.4666657,222.399998 96.0833362,222.066668 95.5,221.75 L95.5,221.7 L100.525,221.7 L100.525,224.925 C100.791668,223.924995 101.304163,223.095837 102.0625,222.4375 C102.820837,221.779163 103.741661,221.45 104.825,221.45 C106.358341,221.45 107.641661,222.024994 108.675,223.175 C109.708338,224.325006 110.225,225.841657 110.225,227.725 C110.225,229.658343 109.687505,231.229161 108.6125,232.4375 C107.537495,233.645839 106.216674,234.25 104.65,234.25 C103.599995,234.25 102.71667,233.962503 102,233.3875 C101.28333,232.812497 100.791668,232.058338 100.525,231.125 L100.525,231.125 Z M111.15,215.275 L116.25,215.275 L116.25,225.05 C116.566668,223.916661 117.104163,223.033336 117.8625,222.4 C118.620837,221.766663 119.533328,221.45 120.6,221.45 C121.850006,221.45 122.82083,221.841663 123.5125,222.625 C124.20417,223.408337 124.55,224.46666 124.55,225.8 L124.55,231.275 C124.55,232.125004 124.620833,232.708332 124.7625,233.025 C124.904167,233.341668 125.25833,233.649998 125.825,233.95 L125.825,234 L119.675,234 L119.675,233.95 C120.241669,233.649998 120.595833,233.341668 120.7375,233.025 C120.879167,232.708332 120.95,232.125004 120.95,231.275 L120.95,225.8 C120.95,225.049996 120.783335,224.437502 120.45,223.9625 C120.116665,223.487498 119.600003,223.25 118.9,223.25 C118.099996,223.25 117.458336,223.587497 116.975,224.2625 C116.491664,224.937503 116.25,225.883327 116.25,227.1 L116.25,231.275 C116.25,232.125004 116.320833,232.708332 116.4625,233.025 C116.604167,233.341668 116.95833,233.649998 117.525,233.95 L117.525,234 L111.375,234 L111.375,233.95 C111.941669,233.649998 112.295833,233.341668 112.4375,233.025 C112.579167,232.708332 112.65,232.125004 112.65,231.275 L112.65,218.025 C112.65,217.241663 112.545834,216.666668 112.3375,216.3 C112.129166,215.933331 111.733336,215.608335 111.15,215.325 L111.15,215.275 Z M127.725,217.675 C127.725,217.091664 127.929165,216.600002 128.3375,216.2 C128.745835,215.799998 129.25833,215.6 129.875,215.6 C130.49167,215.6 131.004165,215.799998 131.4125,216.2 C131.820835,216.600002 132.025,217.091664 132.025,217.675 C132.025,218.258336 131.820835,218.749998 131.4125,219.15 C131.004165,219.550002 130.49167,219.75 129.875,219.75 C129.25833,219.75 128.745835,219.550002 128.3375,219.15 C127.929165,218.749998 127.725,218.258336 127.725,217.675 L127.725,217.675 Z M131.75,221.7 L131.75,231.275 C131.75,232.108338 131.824999,232.687498 131.975,233.0125 C132.125001,233.337502 132.474997,233.649999 133.025,233.95 L133.025,234 L126.9,234 L126.9,233.95 C127.450003,233.649999 127.795833,233.341668 127.9375,233.025 C128.079167,232.708332 128.15,232.125004 128.15,231.275 L128.15,224.475 C128.15,223.658329 128.062501,223.079168 127.8875,222.7375 C127.712499,222.395832 127.333336,222.066668 126.75,221.75 L126.75,221.7 L131.75,221.7 Z M140.975,221.925 C140.008328,221.925 139.254169,222.424995 138.7125,223.425 C138.170831,224.425005 137.9,225.708326 137.9,227.275 C137.9,228.941675 138.262496,230.237495 138.9875,231.1625 C139.712504,232.087505 140.674994,232.55 141.875,232.55 C143.658342,232.55 144.916663,231.700008 145.65,230 L145.8,230.075 C145.499998,231.391673 144.858338,232.416663 143.875,233.15 C142.891662,233.883337 141.700007,234.25 140.3,234.25 C138.599991,234.25 137.141673,233.691672 135.925,232.575 C134.708327,231.458328 134.1,229.966676 134.1,228.1 C134.1,226.066656 134.75416,224.450006 136.0625,223.25 C137.37084,222.049994 138.99999,221.45 140.95,221.45 C142.300007,221.45 143.404162,221.74583 144.2625,222.3375 C145.120838,222.92917 145.55,223.691662 145.55,224.625 C145.55,225.29167 145.337502,225.812498 144.9125,226.1875 C144.487498,226.562502 143.975003,226.75 143.375,226.75 C142.824997,226.75 142.375002,226.616668 142.025,226.35 C141.674998,226.083332 141.483333,225.766669 141.45,225.4 C141.583334,225.466667 141.741666,225.5 141.925,225.5 C142.325002,225.5 142.629166,225.354168 142.8375,225.0625 C143.045834,224.770832 143.15,224.383336 143.15,223.9 C143.15,223.299997 142.966668,222.820835 142.6,222.4625 C142.233331,222.104165 141.69167,221.925 140.975,221.925 L140.975,221.925 Z M158.475,232.75 C159.24167,232.75 159.916664,232.40417 160.5,231.7125 C161.083336,231.02083 161.375,230.125005 161.375,229.025 L161.375,226.575 C161.375,225.408328 161.083336,224.458337 160.5,223.725 C159.916664,222.991663 159.233337,222.625 158.45,222.625 C157.499995,222.625 156.775002,223.087495 156.275,224.0125 C155.774997,224.937505 155.525,226.258325 155.525,227.975 C155.525,229.491674 155.783331,230.666663 156.3,231.5 C156.816669,232.333337 157.541662,232.75 158.475,232.75 L158.475,232.75 Z M161.375,224.575 L161.375,218.025 C161.375,217.241663 161.270834,216.666668 161.0625,216.3 C160.854166,215.933331 160.458336,215.608335 159.875,215.325 L159.875,215.275 L164.975,215.275 L164.975,231.275 C164.975,232.04167 165.062499,232.604165 165.2375,232.9625 C165.412501,233.320835 165.774997,233.649998 166.325,233.95 L166.325,234 L161.375,234 L161.375,230.8 C161.108332,231.800005 160.595837,232.624997 159.8375,233.275 C159.079163,233.925003 158.158339,234.25 157.075,234.25 C155.541659,234.25 154.258338,233.675006 153.225,232.525 C152.191661,231.374994 151.675,229.858343 151.675,227.975 C151.675,226.041657 152.212495,224.470839 153.2875,223.2625 C154.362505,222.054161 155.683325,221.45 157.25,221.45 C158.300005,221.45 159.18333,221.741664 159.9,222.325 C160.61667,222.908336 161.108332,223.658329 161.375,224.575 L161.375,224.575 Z M173.675,221.45 C175.525009,221.45 176.924995,221.987495 177.875,223.0625 C178.825005,224.137505 179.3,225.558324 179.3,227.325 L171.05,227.325 C171.05,228.908341 171.429163,230.174995 172.1875,231.125 C172.945837,232.075005 173.96666,232.55 175.25,232.55 C177.083342,232.55 178.366663,231.700008 179.1,230 L179.25,230.075 C178.933332,231.391673 178.283338,232.416663 177.3,233.15 C176.316662,233.883337 175.116674,234.25 173.7,234.25 C171.899991,234.25 170.400006,233.679172 169.2,232.5375 C167.999994,231.395828 167.4,229.841677 167.4,227.875 C167.4,225.97499 168.008327,224.429173 169.225,223.2375 C170.441673,222.045827 171.924991,221.45 173.675,221.45 L173.675,221.45 Z M171.075,226.8 L175.75,226.8 C175.75,226.049996 175.725,225.408336 175.675,224.875 C175.625,224.341664 175.529167,223.837502 175.3875,223.3625 C175.245833,222.887498 175.029168,222.529168 174.7375,222.2875 C174.445832,222.045832 174.083335,221.925 173.65,221.925 C172.916663,221.925 172.316669,222.366662 171.85,223.25 C171.383331,224.133338 171.125,225.316659 171.075,226.8 L171.075,226.8 Z M185.225,221.925 C184.591663,221.925 184.091668,222.091665 183.725,222.425 C183.358331,222.758335 183.175,223.183331 183.175,223.7 C183.175,224.283336 183.379165,224.720832 183.7875,225.0125 C184.195835,225.304168 185.008327,225.624998 186.225,225.975 C187.875008,226.441669 189.04583,226.99583 189.7375,227.6375 C190.42917,228.27917 190.775,229.158328 190.775,230.275 C190.775,231.50834 190.316671,232.479163 189.4,233.1875 C188.483329,233.895837 187.325007,234.25 185.925,234.25 C185.274997,234.25 184.550004,234.154168 183.75,233.9625 C182.949996,233.770832 182.441668,233.675 182.225,233.675 C181.841665,233.675 181.441669,233.866665 181.025,234.25 L180.75,229.625 L180.8,229.625 C182.13334,232.408347 183.841656,233.8 185.925,233.8 C186.608337,233.8 187.170831,233.616669 187.6125,233.25 C188.054169,232.883331 188.275,232.375003 188.275,231.725 C188.275,231.10833 188.033336,230.650002 187.55,230.35 C187.066664,230.049999 186.241672,229.741668 185.075,229.425 C183.591659,228.991665 182.520837,228.445837 181.8625,227.7875 C181.204163,227.129163 180.875,226.250005 180.875,225.15 C180.875,224.033328 181.291662,223.137503 182.125,222.4625 C182.958337,221.787497 183.99166,221.45 185.225,221.45 C185.791669,221.45 186.429163,221.554166 187.1375,221.7625 C187.845837,221.970834 188.316665,222.075 188.55,222.075 C188.950002,222.075 189.399997,221.866669 189.9,221.45 L189.9,225.525 L189.85,225.525 C189.316664,224.441661 188.637504,223.570837 187.8125,222.9125 C186.987496,222.254163 186.125004,221.925 185.225,221.925 L185.225,221.925 Z M193.075,217.675 C193.075,217.091664 193.279165,216.600002 193.6875,216.2 C194.095835,215.799998 194.60833,215.6 195.225,215.6 C195.84167,215.6 196.354165,215.799998 196.7625,216.2 C197.170835,216.600002 197.375,217.091664 197.375,217.675 C197.375,218.258336 197.170835,218.749998 196.7625,219.15 C196.354165,219.550002 195.84167,219.75 195.225,219.75 C194.60833,219.75 194.095835,219.550002 193.6875,219.15 C193.279165,218.749998 193.075,218.258336 193.075,217.675 L193.075,217.675 Z M197.1,221.7 L197.1,231.275 C197.1,232.108338 197.174999,232.687498 197.325,233.0125 C197.475001,233.337502 197.824997,233.649999 198.375,233.95 L198.375,234 L192.25,234 L192.25,233.95 C192.800003,233.649999 193.145833,233.341668 193.2875,233.025 C193.429167,232.708332 193.5,232.125004 193.5,231.275 L193.5,224.475 C193.5,223.658329 193.412501,223.079168 193.2375,222.7375 C193.062499,222.395832 192.683336,222.066668 192.1,221.75 L192.1,221.7 L197.1,221.7 Z M205.35,221.875 C204.133327,221.875 203.525,223.099988 203.525,225.55 C203.525,228.000012 204.133327,229.225 205.35,229.225 C206.583339,229.225 207.2,228.000012 207.2,225.55 C207.2,223.099988 206.583339,221.875 205.35,221.875 L205.35,221.875 Z M212.625,235.025 C212.625,236.525008 211.900007,237.691663 210.45,238.525 C208.999993,239.358338 207.208344,239.775 205.075,239.775 C204.041661,239.775 203.087504,239.691667 202.2125,239.525 C201.337496,239.358333 200.575003,239.050002 199.925,238.6 C199.274997,238.149998 198.95,237.59167 198.95,236.925 C198.95,236.30833 199.24583,235.795835 199.8375,235.3875 C200.42917,234.979165 201.241661,234.741667 202.275,234.675 C201.508329,234.541666 200.870836,234.237502 200.3625,233.7625 C199.854164,233.287498 199.6,232.675004 199.6,231.925 C199.6,231.224997 199.858331,230.620836 200.375,230.1125 C200.891669,229.604164 201.524996,229.241668 202.275,229.025 C201.524996,228.658332 200.954169,228.175003 200.5625,227.575 C200.170831,226.974997 199.975,226.300004 199.975,225.55 C199.975,224.349994 200.449995,223.36667 201.4,222.6 C202.350005,221.833329 203.666658,221.45 205.35,221.45 C207.066675,221.45 208.399995,221.883329 209.35,222.75 C209.583334,222.366665 209.779166,222.062501 209.9375,221.8375 C210.095834,221.612499 210.349998,221.379168 210.7,221.1375 C211.050002,220.895832 211.416665,220.775 211.8,220.775 C212.400003,220.775 212.870832,220.929165 213.2125,221.2375 C213.554168,221.545835 213.725,221.958331 213.725,222.475 C213.725,223.108337 213.504169,223.574998 213.0625,223.875 C212.620831,224.175002 212.108336,224.325 211.525,224.325 L211.525,224.275 C211.758334,224.058332 211.875,223.766669 211.875,223.4 C211.875,223.083332 211.783334,222.825001 211.6,222.625 C211.416666,222.424999 211.141668,222.325 210.775,222.325 C210.341664,222.325 209.933335,222.533331 209.55,222.95 C210.350004,223.650003 210.75,224.516661 210.75,225.55 C210.75,226.750006 210.270838,227.733329 209.3125,228.5 C208.354162,229.266671 207.033342,229.65 205.35,229.65 C204.299995,229.65 203.400004,229.500001 202.65,229.2 C201.866663,229.483335 201.475,229.891664 201.475,230.425 C201.475,231.108337 201.974995,231.45 202.975,231.45 L207.825,231.45 C209.325007,231.45 210.499996,231.75833 211.35,232.375 C212.200004,232.99167 212.625,233.874994 212.625,235.025 L212.625,235.025 Z M205.075,239.325 C206.525007,239.325 207.704162,239.087502 208.6125,238.6125 C209.520838,238.137498 209.975,237.491671 209.975,236.675 C209.975,235.39166 209.116675,234.75 207.4,234.75 L203.8,234.75 C202.983329,234.75 202.341669,234.924998 201.875,235.275 C201.408331,235.625002 201.175,236.141663 201.175,236.825 C201.175,237.608337 201.541663,238.220831 202.275,238.6625 C203.008337,239.104169 203.941661,239.325 205.075,239.325 L205.075,239.325 Z M213.6,221.7 L218.6,221.7 L218.6,225.05 C218.933335,223.916661 219.479163,223.033336 220.2375,222.4 C220.995837,221.766663 221.908328,221.45 222.975,221.45 C224.225006,221.45 225.191663,221.841663 225.875,222.625 C226.558337,223.408337 226.9,224.46666 226.9,225.8 L226.9,231.275 C226.9,232.108338 226.974999,232.687498 227.125,233.0125 C227.275001,233.337502 227.624997,233.649999 228.175,233.95 L228.175,234 L222.05,234 L222.05,233.95 C222.600003,233.649999 222.945833,233.341668 223.0875,233.025 C223.229167,232.708332 223.3,232.125004 223.3,231.275 L223.3,225.8 C223.3,225.049996 223.133335,224.437502 222.8,223.9625 C222.466665,223.487498 221.950003,223.25 221.25,223.25 C220.449996,223.25 219.808336,223.587497 219.325,224.2625 C218.841664,224.937503 218.6,225.883327 218.6,227.1 L218.6,231.275 C218.6,232.108338 218.674999,232.687498 218.825,233.0125 C218.975001,233.337502 219.324997,233.649999 219.875,233.95 L219.875,234 L213.75,234 L213.75,233.95 C214.300003,233.649999 214.645833,233.341668 214.7875,233.025 C214.929167,232.708332 215,232.125004 215,231.275 L215,224.475 C215,223.658329 214.912501,223.079168 214.7375,222.7375 C214.562499,222.395832 214.183336,222.066668 213.6,221.75 L213.6,221.7 Z M56.9,279.275 L56.9,270.35 L55.35,270.35 L55.35,270.125 L56.9,269.575 L56.9,268.55 C56.9,266.749991 57.3958284,265.395838 58.3875,264.4875 C59.3791716,263.579162 60.6999917,263.125 62.35,263.125 C63.483339,263.125 64.4041631,263.329165 65.1125,263.7375 C65.8208369,264.145835 66.175,264.749996 66.175,265.55 C66.175,266.083336 65.9875019,266.520832 65.6125,266.8625 C65.2374981,267.204168 64.7666695,267.375 64.2,267.375 C63.4999965,267.375 63.0000015,267.183335 62.7,266.8 C63.4166702,266.599999 63.775,266.050005 63.775,265.15 C63.775,264.649997 63.6500012,264.254168 63.4,263.9625 C63.1499987,263.670832 62.8000022,263.525 62.35,263.525 C61.1166605,263.525 60.5,264.533323 60.5,266.55 L60.5,269.7 L63.7,269.7 L63.575,270.35 L60.5,270.35 L60.5,279.275 C60.5,280.058337 60.6499985,280.629165 60.95,280.9875 C61.2500015,281.345835 61.7749962,281.666665 62.525,281.95 L62.525,282 L55.65,282 L55.65,281.95 C56.2000027,281.649998 56.5458326,281.341668 56.6875,281.025 C56.8291674,280.708332 56.9,280.125004 56.9,279.275 L56.9,279.275 Z M72.1,274.05 C72.6166692,273.866666 72.875,273.475003 72.875,272.875 C72.875,272.458331 72.7458346,272.133334 72.4875,271.9 C72.2291654,271.666666 71.866669,271.55 71.4,271.55 C70.666663,271.55 70.033336,271.954163 69.5,272.7625 C68.966664,273.570837 68.7,274.583327 68.7,275.8 L68.7,279.275 C68.7,280.058337 68.8499985,280.629165 69.15,280.9875 C69.4500015,281.345835 69.9749962,281.666665 70.725,281.95 L70.725,282 L63.85,282 L63.85,281.95 C64.4000027,281.649998 64.7458326,281.341668 64.8875,281.025 C65.0291674,280.708332 65.1,280.125004 65.1,279.275 L65.1,272.475 C65.1,271.658329 65.0125009,271.079168 64.8375,270.7375 C64.6624991,270.395832 64.2833362,270.066668 63.7,269.75 L63.7,269.7 L68.7,269.7 L68.7,273.8 C69.4500037,270.899986 70.7833237,269.45 72.7,269.45 C73.4500037,269.45 74.0624976,269.670831 74.5375,270.1125 C75.0125024,270.554169 75.25,271.124997 75.25,271.825 C75.25,272.608337 75.0250022,273.220831 74.575,273.6625 C74.1249977,274.104169 73.5916697,274.325 72.975,274.325 C72.574998,274.325 72.2833342,274.233334 72.1,274.05 L72.1,274.05 Z M82.575,282.25 C80.708324,282.25 79.1458396,281.650006 77.8875,280.45 C76.6291604,279.249994 76,277.716676 76,275.85 C76,273.983324 76.6291604,272.450006 77.8875,271.25 C79.1458396,270.049994 80.708324,269.45 82.575,269.45 C84.4583427,269.45 86.0291604,270.045827 87.2875,271.2375 C88.5458396,272.429173 89.175,273.966657 89.175,275.85 C89.175,277.733343 88.5458396,279.270827 87.2875,280.4625 C86.0291604,281.654173 84.4583427,282.25 82.575,282.25 L82.575,282.25 Z M82.575,281.8 C83.4750045,281.8 84.1541644,281.279172 84.6125,280.2375 C85.0708356,279.195828 85.3,277.733343 85.3,275.85 C85.3,273.966657 85.0708356,272.508339 84.6125,271.475 C84.1541644,270.441662 83.4750045,269.925 82.575,269.925 C81.6749955,269.925 81.0000022,270.441662 80.55,271.475 C80.0999977,272.508339 79.875,273.966657 79.875,275.85 C79.875,277.733343 80.0999977,279.195828 80.55,280.2375 C81.0000022,281.279172 81.6749955,281.8 82.575,281.8 L82.575,281.8 Z M90.275,269.7 L95.275,269.7 L95.275,273.05 C95.608335,271.916661 96.1541629,271.033337 96.9125,270.4 C97.6708371,269.766663 98.583328,269.45 99.65,269.45 C100.900006,269.45 101.866663,269.841663 102.55,270.625 C103.233337,271.408337 103.575,272.46666 103.575,273.8 L103.575,279.275 C103.575,280.108338 103.649999,280.687498 103.8,281.0125 C103.950001,281.337502 104.299997,281.649998 104.85,281.95 L104.85,282 L98.725,282 L98.725,281.95 C99.2750027,281.649998 99.6208326,281.341668 99.7625,281.025 C99.9041674,280.708332 99.975,280.125004 99.975,279.275 L99.975,273.8 C99.975,273.049996 99.808335,272.437502 99.475,271.9625 C99.141665,271.487498 98.6250035,271.25 97.925,271.25 C97.124996,271.25 96.4833357,271.587497 96,272.2625 C95.5166642,272.937503 95.275,273.883327 95.275,275.1 L95.275,279.275 C95.275,280.108338 95.3499992,280.687498 95.5,281.0125 C95.6500007,281.337502 95.9999972,281.649998 96.55,281.95 L96.55,282 L90.425,282 L90.425,281.95 C90.9750027,281.649998 91.3208326,281.341668 91.4625,281.025 C91.6041674,280.708332 91.675,280.125004 91.675,279.275 L91.675,272.475 C91.675,271.658329 91.5875009,271.079168 91.4125,270.7375 C91.2374991,270.395832 90.8583362,270.066668 90.275,269.75 L90.275,269.7 Z M114.425,277.65 L114.675,277.725 C114.324998,280.741682 112.975012,282.25 110.625,282.25 C109.491661,282.25 108.59167,281.908337 107.925,281.225 C107.25833,280.541663 106.933333,279.550006 106.95,278.25 L106.975,270.35 L105.475,270.35 L105.475,270.125 C106.658339,269.874999 107.674996,269.333337 108.525,268.5 C109.375004,267.666663 109.966665,266.625006 110.3,265.375 L110.55,265.375 L110.55,269.7 L114.35,269.7 L114.225,270.35 L110.55,270.35 L110.55,278.275 C110.55,279.725007 111.074995,280.45 112.125,280.45 C113.325006,280.45 114.091665,279.516676 114.425,277.65 L114.425,277.65 Z M115.9,275.575 L115.9,274.3 L122.125,274.3 L122.125,275.575 L115.9,275.575 Z M129.925,269.45 C131.775009,269.45 133.174995,269.987495 134.125,271.0625 C135.075005,272.137505 135.55,273.558325 135.55,275.325 L127.3,275.325 C127.3,276.908341 127.679163,278.174995 128.4375,279.125 C129.195837,280.075005 130.21666,280.55 131.5,280.55 C133.333342,280.55 134.616663,279.700008 135.35,278 L135.5,278.075 C135.183332,279.391673 134.533338,280.416663 133.55,281.15 C132.566662,281.883337 131.366674,282.25 129.95,282.25 C128.149991,282.25 126.650006,281.679172 125.45,280.5375 C124.249994,279.395828 123.65,277.841677 123.65,275.875 C123.65,273.97499 124.258327,272.429173 125.475,271.2375 C126.691673,270.045827 128.174991,269.45 129.925,269.45 L129.925,269.45 Z M127.325,274.8 L132,274.8 C132,274.049996 131.975,273.408336 131.925,272.875 C131.875,272.341664 131.779167,271.837502 131.6375,271.3625 C131.495833,270.887498 131.279168,270.529168 130.9875,270.2875 C130.695832,270.045832 130.333335,269.925 129.9,269.925 C129.166663,269.925 128.566669,270.366662 128.1,271.25 C127.633331,272.133338 127.375,273.316659 127.325,274.8 L127.325,274.8 Z M136.65,269.7 L141.65,269.7 L141.65,273.05 C141.983335,271.916661 142.529163,271.033337 143.2875,270.4 C144.045837,269.766663 144.958328,269.45 146.025,269.45 C147.275006,269.45 148.241663,269.841663 148.925,270.625 C149.608337,271.408337 149.95,272.46666 149.95,273.8 L149.95,279.275 C149.95,280.108338 150.024999,280.687498 150.175,281.0125 C150.325001,281.337502 150.674997,281.649998 151.225,281.95 L151.225,282 L145.1,282 L145.1,281.95 C145.650003,281.649998 145.995833,281.341668 146.1375,281.025 C146.279167,280.708332 146.35,280.125004 146.35,279.275 L146.35,273.8 C146.35,273.049996 146.183335,272.437502 145.85,271.9625 C145.516665,271.487498 145.000003,271.25 144.3,271.25 C143.499996,271.25 142.858336,271.587497 142.375,272.2625 C141.891664,272.937503 141.65,273.883327 141.65,275.1 L141.65,279.275 C141.65,280.108338 141.724999,280.687498 141.875,281.0125 C142.025001,281.337502 142.374997,281.649998 142.925,281.95 L142.925,282 L136.8,282 L136.8,281.95 C137.350003,281.649998 137.695833,281.341668 137.8375,281.025 C137.979167,280.708332 138.05,280.125004 138.05,279.275 L138.05,272.475 C138.05,271.658329 137.962501,271.079168 137.7875,270.7375 C137.612499,270.395832 137.233336,270.066668 136.65,269.75 L136.65,269.7 Z M159.075,280.75 C159.84167,280.75 160.516664,280.40417 161.1,279.7125 C161.683336,279.02083 161.975,278.125005 161.975,277.025 L161.975,274.575 C161.975,273.408327 161.683336,272.458337 161.1,271.725 C160.516664,270.991663 159.833337,270.625 159.05,270.625 C158.099995,270.625 157.375002,271.087495 156.875,272.0125 C156.374997,272.937505 156.125,274.258325 156.125,275.975 C156.125,277.491674 156.383331,278.666663 156.9,279.5 C157.416669,280.333337 158.141662,280.75 159.075,280.75 L159.075,280.75 Z M161.975,272.575 L161.975,266.025 C161.975,265.241663 161.870834,264.666668 161.6625,264.3 C161.454166,263.933332 161.058336,263.608335 160.475,263.325 L160.475,263.275 L165.575,263.275 L165.575,279.275 C165.575,280.041671 165.662499,280.604165 165.8375,280.9625 C166.012501,281.320835 166.374997,281.649998 166.925,281.95 L166.925,282 L161.975,282 L161.975,278.8 C161.708332,279.800005 161.195837,280.624997 160.4375,281.275 C159.679163,281.925003 158.758339,282.25 157.675,282.25 C156.141659,282.25 154.858338,281.675006 153.825,280.525 C152.791661,279.374994 152.275,277.858343 152.275,275.975 C152.275,274.041657 152.812495,272.470839 153.8875,271.2625 C154.962505,270.054161 156.283325,269.45 157.85,269.45 C158.900005,269.45 159.78333,269.741664 160.5,270.325 C161.21667,270.908336 161.708332,271.658329 161.975,272.575 L161.975,272.575 Z M179.8,280.75 C180.56667,280.75 181.241664,280.40417 181.825,279.7125 C182.408336,279.02083 182.7,278.125005 182.7,277.025 L182.7,274.575 C182.7,273.408327 182.408336,272.458337 181.825,271.725 C181.241664,270.991663 180.558337,270.625 179.775,270.625 C178.824995,270.625 178.100002,271.087495 177.6,272.0125 C177.099997,272.937505 176.85,274.258325 176.85,275.975 C176.85,277.491674 177.108331,278.666663 177.625,279.5 C178.141669,280.333337 178.866662,280.75 179.8,280.75 L179.8,280.75 Z M182.7,272.575 L182.7,266.025 C182.7,265.241663 182.595834,264.666668 182.3875,264.3 C182.179166,263.933332 181.783336,263.608335 181.2,263.325 L181.2,263.275 L186.3,263.275 L186.3,279.275 C186.3,280.041671 186.387499,280.604165 186.5625,280.9625 C186.737501,281.320835 187.099997,281.649998 187.65,281.95 L187.65,282 L182.7,282 L182.7,278.8 C182.433332,279.800005 181.920837,280.624997 181.1625,281.275 C180.404163,281.925003 179.483339,282.25 178.4,282.25 C176.866659,282.25 175.583338,281.675006 174.55,280.525 C173.516661,279.374994 173,277.858343 173,275.975 C173,274.041657 173.537495,272.470839 174.6125,271.2625 C175.687505,270.054161 177.008325,269.45 178.575,269.45 C179.625005,269.45 180.50833,269.741664 181.225,270.325 C181.94167,270.908336 182.433332,271.658329 182.7,272.575 L182.7,272.575 Z M195,269.45 C196.850009,269.45 198.249995,269.987495 199.2,271.0625 C200.150005,272.137505 200.625,273.558325 200.625,275.325 L192.375,275.325 C192.375,276.908341 192.754163,278.174995 193.5125,279.125 C194.270837,280.075005 195.29166,280.55 196.575,280.55 C198.408342,280.55 199.691663,279.700008 200.425,278 L200.575,278.075 C200.258332,279.391673 199.608338,280.416663 198.625,281.15 C197.641662,281.883337 196.441674,282.25 195.025,282.25 C193.224991,282.25 191.725006,281.679172 190.525,280.5375 C189.324994,279.395828 188.725,277.841677 188.725,275.875 C188.725,273.97499 189.333327,272.429173 190.55,271.2375 C191.766673,270.045827 193.249991,269.45 195,269.45 L195,269.45 Z M192.4,274.8 L197.075,274.8 C197.075,274.049996 197.05,273.408336 197,272.875 C196.95,272.341664 196.854167,271.837502 196.7125,271.3625 C196.570833,270.887498 196.354168,270.529168 196.0625,270.2875 C195.770832,270.045832 195.408335,269.925 194.975,269.925 C194.241663,269.925 193.641669,270.366662 193.175,271.25 C192.708331,272.133338 192.45,273.316659 192.4,274.8 L192.4,274.8 Z M209.35,277.95 L211.9,272.575 C212.116668,272.141664 212.225,271.708335 212.225,271.275 C212.225,270.541663 211.850004,270.033335 211.1,269.75 L211.1,269.7 L214.675,269.7 L214.675,269.75 C214.258331,270.066668 213.929168,270.395832 213.6875,270.7375 C213.445832,271.079168 213.125002,271.658329 212.725,272.475 L207.925,282.25 L207.875,282.25 L202.925,272.4 C202.524998,271.583329 202.212501,271.020835 201.9875,270.7125 C201.762499,270.404165 201.450002,270.083335 201.05,269.75 L201.05,269.7 L207,269.7 L207,269.75 C206.516664,270.016668 206.275,270.391664 206.275,270.875 C206.275,271.258335 206.408332,271.73333 206.675,272.3 L209.35,277.95 Z M221.375,269.45 C223.225009,269.45 224.624995,269.987495 225.575,271.0625 C226.525005,272.137505 227,273.558325 227,275.325 L218.75,275.325 C218.75,276.908341 219.129163,278.174995 219.8875,279.125 C220.645837,280.075005 221.66666,280.55 222.95,280.55 C224.783342,280.55 226.066663,279.700008 226.8,278 L226.95,278.075 C226.633332,279.391673 225.983338,280.416663 225,281.15 C224.016662,281.883337 222.816674,282.25 221.4,282.25 C219.599991,282.25 218.100006,281.679172 216.9,280.5375 C215.699994,279.395828 215.1,277.841677 215.1,275.875 C215.1,273.97499 215.708327,272.429173 216.925,271.2375 C218.141673,270.045827 219.624991,269.45 221.375,269.45 L221.375,269.45 Z M218.775,274.8 L223.45,274.8 C223.45,274.049996 223.425,273.408336 223.375,272.875 C223.325,272.341664 223.229167,271.837502 223.0875,271.3625 C222.945833,270.887498 222.729168,270.529168 222.4375,270.2875 C222.145832,270.045832 221.783335,269.925 221.35,269.925 C220.616663,269.925 220.016669,270.366662 219.55,271.25 C219.083331,272.133338 218.825,273.316659 218.775,274.8 L218.775,274.8 Z M233.025,263.275 L233.025,279.275 C233.025,280.125004 233.095833,280.708332 233.2375,281.025 C233.379167,281.341668 233.73333,281.649998 234.3,281.95 L234.3,282 L228.15,282 L228.15,281.95 C228.716669,281.649998 229.070833,281.341668 229.2125,281.025 C229.354167,280.708332 229.425,280.125004 229.425,279.275 L229.425,266.025 C229.425,265.241663 229.320834,264.666668 229.1125,264.3 C228.904166,263.933332 228.508336,263.608335 227.925,263.325 L227.925,263.275 L233.025,263.275 Z M241.95,282.25 C240.083324,282.25 238.52084,281.650006 237.2625,280.45 C236.00416,279.249994 235.375,277.716676 235.375,275.85 C235.375,273.983324 236.00416,272.450006 237.2625,271.25 C238.52084,270.049994 240.083324,269.45 241.95,269.45 C243.833343,269.45 245.40416,270.045827 246.6625,271.2375 C247.92084,272.429173 248.55,273.966657 248.55,275.85 C248.55,277.733343 247.92084,279.270827 246.6625,280.4625 C245.40416,281.654173 243.833343,282.25 241.95,282.25 L241.95,282.25 Z M241.95,281.8 C242.850004,281.8 243.529164,281.279172 243.9875,280.2375 C244.445836,279.195828 244.675,277.733343 244.675,275.85 C244.675,273.966657 244.445836,272.508339 243.9875,271.475 C243.529164,270.441662 242.850004,269.925 241.95,269.925 C241.049995,269.925 240.375002,270.441662 239.925,271.475 C239.474998,272.508339 239.25,273.966657 239.25,275.85 C239.25,277.733343 239.474998,279.195828 239.925,280.2375 C240.375002,281.279172 241.049995,281.8 241.95,281.8 L241.95,281.8 Z M257.45,270.975 C256.683329,270.975 256.008336,271.32083 255.425,272.0125 C254.841664,272.70417 254.55,273.591661 254.55,274.675 L254.55,277.125 C254.55,278.291673 254.841664,279.241663 255.425,279.975 C256.008336,280.708337 256.691663,281.075 257.475,281.075 C258.425005,281.075 259.149997,280.612505 259.65,279.6875 C260.150002,278.762495 260.4,277.441675 260.4,275.725 C260.4,274.224992 260.141669,273.058337 259.625,272.225 C259.108331,271.391662 258.383338,270.975 257.45,270.975 L257.45,270.975 Z M254.55,279.125 L254.55,284.8 C254.55,285.650004 254.620833,286.233332 254.7625,286.55 C254.904167,286.866668 255.249997,287.174999 255.8,287.475 L255.8,287.525 L249.675,287.525 L249.675,287.475 C250.225003,287.174999 250.574999,286.862502 250.725,286.5375 C250.875001,286.212498 250.95,285.633337 250.95,284.8 L250.95,272.475 C250.95,271.674996 250.858334,271.100002 250.675,270.75 C250.491666,270.399998 250.108336,270.066668 249.525,269.75 L249.525,269.7 L254.55,269.7 L254.55,272.925 C254.816668,271.924995 255.329163,271.095837 256.0875,270.4375 C256.845837,269.779163 257.766661,269.45 258.85,269.45 C260.383341,269.45 261.666661,270.024994 262.7,271.175 C263.733338,272.325006 264.25,273.841657 264.25,275.725 C264.25,277.658343 263.712505,279.229161 262.6375,280.4375 C261.562495,281.645839 260.241674,282.25 258.675,282.25 C257.624995,282.25 256.74167,281.962503 256.025,281.3875 C255.30833,280.812497 254.816668,280.058338 254.55,279.125 L254.55,279.125 Z M278.225,273.05 C278.508335,271.899994 279.00833,271.012503 279.725,270.3875 C280.44167,269.762497 281.324995,269.45 282.375,269.45 C283.608339,269.45 284.54583,269.837496 285.1875,270.6125 C285.82917,271.387504 286.15,272.449993 286.15,273.8 L286.15,279.275 C286.15,280.108338 286.224999,280.687498 286.375,281.0125 C286.525001,281.337502 286.874997,281.649998 287.425,281.95 L287.425,282 L281.3,282 L281.3,281.95 C281.850003,281.649998 282.195833,281.341668 282.3375,281.025 C282.479167,280.708332 282.55,280.125004 282.55,279.275 L282.55,273.8 C282.55,272.099991 281.933339,271.25 280.7,271.25 C279.949996,271.25 279.354169,271.587497 278.9125,272.2625 C278.470831,272.937503 278.25,273.883327 278.25,275.1 L278.25,279.275 C278.25,280.108338 278.324999,280.687498 278.475,281.0125 C278.625001,281.337502 278.974997,281.649998 279.525,281.95 L279.525,282 L273.4,282 L273.4,281.95 C273.950003,281.649998 274.295833,281.341668 274.4375,281.025 C274.579167,280.708332 274.65,280.125004 274.65,279.275 L274.65,273.8 C274.65,272.099991 274.033339,271.25 272.8,271.25 C272.049996,271.25 271.454169,271.587497 271.0125,272.2625 C270.570831,272.937503 270.35,273.883327 270.35,275.1 L270.35,279.275 C270.35,280.108338 270.424999,280.687498 270.575,281.0125 C270.725001,281.337502 271.074997,281.649998 271.625,281.95 L271.625,282 L265.5,282 L265.5,281.95 C266.050003,281.649998 266.395833,281.341668 266.5375,281.025 C266.679167,280.708332 266.75,280.125004 266.75,279.275 L266.75,272.475 C266.75,271.658329 266.662501,271.079168 266.4875,270.7375 C266.312499,270.395832 265.933336,270.066668 265.35,269.75 L265.35,269.7 L270.35,269.7 L270.35,273.05 C270.633335,271.899994 271.129163,271.012503 271.8375,270.3875 C272.545837,269.762497 273.424995,269.45 274.475,269.45 C275.591672,269.45 276.47083,269.77083 277.1125,270.4125 C277.75417,271.05417 278.124999,271.933328 278.225,273.05 L278.225,273.05 Z M294.75,269.45 C296.600009,269.45 297.999995,269.987495 298.95,271.0625 C299.900005,272.137505 300.375,273.558325 300.375,275.325 L292.125,275.325 C292.125,276.908341 292.504163,278.174995 293.2625,279.125 C294.020837,280.075005 295.04166,280.55 296.325,280.55 C298.158342,280.55 299.441663,279.700008 300.175,278 L300.325,278.075 C300.008332,279.391673 299.358338,280.416663 298.375,281.15 C297.391662,281.883337 296.191674,282.25 294.775,282.25 C292.974991,282.25 291.475006,281.679172 290.275,280.5375 C289.074994,279.395828 288.475,277.841677 288.475,275.875 C288.475,273.97499 289.083327,272.429173 290.3,271.2375 C291.516673,270.045827 292.999991,269.45 294.75,269.45 L294.75,269.45 Z M292.15,274.8 L296.825,274.8 C296.825,274.049996 296.8,273.408336 296.75,272.875 C296.7,272.341664 296.604167,271.837502 296.4625,271.3625 C296.320833,270.887498 296.104168,270.529168 295.8125,270.2875 C295.520832,270.045832 295.158335,269.925 294.725,269.925 C293.991663,269.925 293.391669,270.366662 292.925,271.25 C292.458331,272.133338 292.2,273.316659 292.15,274.8 L292.15,274.8 Z M301.475,269.7 L306.475,269.7 L306.475,273.05 C306.808335,271.916661 307.354163,271.033337 308.1125,270.4 C308.870837,269.766663 309.783328,269.45 310.85,269.45 C312.100006,269.45 313.066663,269.841663 313.75,270.625 C314.433337,271.408337 314.775,272.46666 314.775,273.8 L314.775,279.275 C314.775,280.108338 314.849999,280.687498 315,281.0125 C315.150001,281.337502 315.499997,281.649998 316.05,281.95 L316.05,282 L309.925,282 L309.925,281.95 C310.475003,281.649998 310.820833,281.341668 310.9625,281.025 C311.104167,280.708332 311.175,280.125004 311.175,279.275 L311.175,273.8 C311.175,273.049996 311.008335,272.437502 310.675,271.9625 C310.341665,271.487498 309.825003,271.25 309.125,271.25 C308.324996,271.25 307.683336,271.587497 307.2,272.2625 C306.716664,272.937503 306.475,273.883327 306.475,275.1 L306.475,279.275 C306.475,280.108338 306.549999,280.687498 306.7,281.0125 C306.850001,281.337502 307.199997,281.649998 307.75,281.95 L307.75,282 L301.625,282 L301.625,281.95 C302.175003,281.649998 302.520833,281.341668 302.6625,281.025 C302.804167,280.708332 302.875,280.125004 302.875,279.275 L302.875,272.475 C302.875,271.658329 302.787501,271.079168 302.6125,270.7375 C302.437499,270.395832 302.058336,270.066668 301.475,269.75 L301.475,269.7 Z M325.625,277.65 L325.875,277.725 C325.524998,280.741682 324.175012,282.25 321.825,282.25 C320.691661,282.25 319.79167,281.908337 319.125,281.225 C318.45833,280.541663 318.133333,279.550006 318.15,278.25 L318.175,270.35 L316.675,270.35 L316.675,270.125 C317.858339,269.874999 318.874996,269.333337 319.725,268.5 C320.575004,267.666663 321.166665,266.625006 321.5,265.375 L321.75,265.375 L321.75,269.7 L325.55,269.7 L325.425,270.35 L321.75,270.35 L321.75,278.275 C321.75,279.725007 322.274995,280.45 323.325,280.45 C324.525006,280.45 325.291665,279.516676 325.625,277.65 L325.625,277.65 Z M56.475,313.675 C56.475,313.091664 56.6791646,312.600002 57.0875,312.2 C57.4958354,311.799998 58.0083302,311.6 58.625,311.6 C59.2416697,311.6 59.7541646,311.799998 60.1625,312.2 C60.5708354,312.600002 60.775,313.091664 60.775,313.675 C60.775,314.258336 60.5708354,314.749998 60.1625,315.15 C59.7541646,315.550002 59.2416697,315.75 58.625,315.75 C58.0083302,315.75 57.4958354,315.550002 57.0875,315.15 C56.6791646,314.749998 56.475,314.258336 56.475,313.675 L56.475,313.675 Z M60.5,317.7 L60.5,327.275 C60.5,328.108338 60.5749992,328.687498 60.725,329.0125 C60.8750007,329.337502 61.2249972,329.649998 61.775,329.95 L61.775,330 L55.65,330 L55.65,329.95 C56.2000027,329.649998 56.5458326,329.341668 56.6875,329.025 C56.8291674,328.708332 56.9,328.125004 56.9,327.275 L56.9,320.475 C56.9,319.658329 56.8125009,319.079168 56.6375,318.7375 C56.4624991,318.395832 56.0833362,318.066668 55.5,317.75 L55.5,317.7 L60.5,317.7 Z M67.675,311.275 L67.675,327.275 C67.675,328.125004 67.7458326,328.708332 67.8875,329.025 C68.0291674,329.341668 68.3833305,329.649998 68.95,329.95 L68.95,330 L62.8,330 L62.8,329.95 C63.3666695,329.649998 63.7208326,329.341668 63.8625,329.025 C64.0041674,328.708332 64.075,328.125004 64.075,327.275 L64.075,314.025 C64.075,313.241663 63.9708344,312.666669 63.7625,312.3 C63.5541656,311.933332 63.1583362,311.608335 62.575,311.325 L62.575,311.275 L67.675,311.275 Z M74.85,311.275 L74.85,327.275 C74.85,328.125004 74.9208326,328.708332 75.0625,329.025 C75.2041674,329.341668 75.5583305,329.649998 76.125,329.95 L76.125,330 L69.975,330 L69.975,329.95 C70.5416695,329.649998 70.8958326,329.341668 71.0375,329.025 C71.1791674,328.708332 71.25,328.125004 71.25,327.275 L71.25,314.025 C71.25,313.241663 71.1458344,312.666669 70.9375,312.3 C70.7291656,311.933332 70.3333362,311.608335 69.75,311.325 L69.75,311.275 L74.85,311.275 Z M86.475,324.6 L86.475,320.475 C86.475,319.674996 86.3833342,319.100002 86.2,318.75 C86.0166657,318.399998 85.6333362,318.066668 85.05,317.75 L85.05,317.7 L90.075,317.7 L90.075,327.425 C90.075,328.19167 90.174999,328.733332 90.375,329.05 C90.575001,329.366668 90.9666637,329.666665 91.55,329.95 L91.55,330 L86.475,330 L86.475,326.575 C86.1749985,327.741672 85.6375039,328.64583 84.8625,329.2875 C84.0874961,329.92917 83.1583387,330.25 82.075,330.25 C80.8416605,330.25 79.8833367,329.854171 79.2,329.0625 C78.5166632,328.270829 78.175,327.216673 78.175,325.9 L78.175,320.475 C78.175,319.658329 78.0875009,319.079168 77.9125,318.7375 C77.7374991,318.395832 77.3583362,318.066668 76.775,317.75 L76.775,317.7 L81.775,317.7 L81.775,325.875 C81.775,326.59167 81.9458316,327.195831 82.2875,327.6875 C82.6291684,328.179169 83.13333,328.425 83.8,328.425 C84.5833372,328.425 85.2249975,328.087503 85.725,327.4125 C86.2250025,326.737497 86.475,325.800006 86.475,324.6 L86.475,324.6 Z M97.125,317.925 C96.4916635,317.925 95.9916685,318.091665 95.625,318.425 C95.2583315,318.758335 95.075,319.183331 95.075,319.7 C95.075,320.283336 95.2791646,320.720832 95.6875,321.0125 C96.0958354,321.304168 96.9083272,321.624998 98.125,321.975 C99.7750082,322.441669 100.94583,322.99583 101.6375,323.6375 C102.32917,324.27917 102.675,325.158328 102.675,326.275 C102.675,327.508339 102.216671,328.479163 101.3,329.1875 C100.383329,329.895837 99.225007,330.25 97.825,330.25 C97.1749967,330.25 96.450004,330.154168 95.65,329.9625 C94.849996,329.770832 94.3416677,329.675 94.125,329.675 C93.7416647,329.675 93.3416687,329.866665 92.925,330.25 L92.65,325.625 L92.7,325.625 C94.03334,328.408347 95.7416562,329.8 97.825,329.8 C98.5083367,329.8 99.0708311,329.616669 99.5125,329.25 C99.9541689,328.883331 100.175,328.375003 100.175,327.725 C100.175,327.10833 99.9333357,326.650002 99.45,326.35 C98.9666642,326.049999 98.1416725,325.741668 96.975,325.425 C95.4916592,324.991665 94.4208366,324.445837 93.7625,323.7875 C93.1041634,323.129163 92.775,322.250005 92.775,321.15 C92.775,320.033328 93.1916625,319.137503 94.025,318.4625 C94.8583375,317.787497 95.8916605,317.45 97.125,317.45 C97.6916695,317.45 98.3291631,317.554166 99.0375,317.7625 C99.7458369,317.970834 100.216665,318.075 100.45,318.075 C100.850002,318.075 101.299997,317.866669 101.8,317.45 L101.8,321.525 L101.75,321.525 C101.216664,320.441661 100.537504,319.570837 99.7125,318.9125 C98.8874959,318.254163 98.0250045,317.925 97.125,317.925 L97.125,317.925 Z M112.625,325.65 L112.875,325.725 C112.524998,328.741682 111.175012,330.25 108.825,330.25 C107.691661,330.25 106.79167,329.908337 106.125,329.225 C105.45833,328.541663 105.133333,327.550006 105.15,326.25 L105.175,318.35 L103.675,318.35 L103.675,318.125 C104.858339,317.874999 105.874996,317.333337 106.725,316.5 C107.575004,315.666663 108.166665,314.625006 108.5,313.375 L108.75,313.375 L108.75,317.7 L112.55,317.7 L112.425,318.35 L108.75,318.35 L108.75,326.275 C108.75,327.725007 109.274995,328.45 110.325,328.45 C111.525006,328.45 112.291665,327.516676 112.625,325.65 L112.625,325.65 Z M122.1,322.05 C122.616669,321.866666 122.875,321.475003 122.875,320.875 C122.875,320.458331 122.745835,320.133334 122.4875,319.9 C122.229165,319.666666 121.866669,319.55 121.4,319.55 C120.666663,319.55 120.033336,319.954163 119.5,320.7625 C118.966664,321.570837 118.7,322.583327 118.7,323.8 L118.7,327.275 C118.7,328.058337 118.849998,328.629165 119.15,328.9875 C119.450001,329.345835 119.974996,329.666665 120.725,329.95 L120.725,330 L113.85,330 L113.85,329.95 C114.400003,329.649998 114.745833,329.341668 114.8875,329.025 C115.029167,328.708332 115.1,328.125004 115.1,327.275 L115.1,320.475 C115.1,319.658329 115.012501,319.079168 114.8375,318.7375 C114.662499,318.395832 114.283336,318.066668 113.7,317.75 L113.7,317.7 L118.7,317.7 L118.7,321.8 C119.450004,318.899986 120.783324,317.45 122.7,317.45 C123.450004,317.45 124.062498,317.670831 124.5375,318.1125 C125.012502,318.554169 125.25,319.124997 125.25,319.825 C125.25,320.608337 125.025002,321.220831 124.575,321.6625 C124.124998,322.104169 123.59167,322.325 122.975,322.325 C122.574998,322.325 122.283334,322.233334 122.1,322.05 L122.1,322.05 Z M139.475,329.05 L139.475,329.1 C138.841663,329.850004 137.933339,330.225 136.75,330.225 C135.049991,330.225 134.091668,329.483341 133.875,328 C133.875,327.966666 133.866667,327.833334 133.85,327.6 C133.833333,327.366666 133.825,327.216667 133.825,327.15 C133.641666,328.016671 133.175004,328.737497 132.425,329.3125 C131.674996,329.887503 130.783338,330.175 129.75,330.175 C128.699995,330.175 127.82917,329.908336 127.1375,329.375 C126.44583,328.841664 126.1,328.066672 126.1,327.05 C126.1,326.516664 126.212499,326.045835 126.4375,325.6375 C126.662501,325.229165 126.929165,324.904168 127.2375,324.6625 C127.545835,324.420832 127.99583,324.195834 128.5875,323.9875 C129.17917,323.779166 129.687498,323.625 130.1125,323.525 C130.537502,323.425 131.133329,323.308334 131.9,323.175 L133.8,322.825 L133.8,320.775 C133.8,319.941663 133.612502,319.258336 133.2375,318.725 C132.862498,318.191664 132.283337,317.925 131.5,317.925 C130.816663,317.925 130.300002,318.108332 129.95,318.475 C129.599998,318.841668 129.425,319.308331 129.425,319.875 C129.425,320.341669 129.529166,320.699999 129.7375,320.95 C129.945834,321.200001 130.233331,321.325 130.6,321.325 C130.733334,321.325 130.874999,321.3 131.025,321.25 C130.674998,322.150005 129.950005,322.6 128.85,322.6 C128.216663,322.6 127.695835,322.416669 127.2875,322.05 C126.879165,321.683332 126.675,321.200003 126.675,320.6 C126.675,319.699995 127.133329,318.950003 128.05,318.35 C128.966671,317.749997 130.141659,317.45 131.575,317.45 C133.508343,317.45 134.962495,317.79583 135.9375,318.4875 C136.912505,319.17917 137.4,320.274992 137.4,321.775 C137.4,322.39167 137.391667,323.249995 137.375,324.35 C137.358333,325.450005 137.35,326.274997 137.35,326.825 C137.35,327.641671 137.458332,328.241665 137.675,328.625 C137.891668,329.008335 138.28333,329.2 138.85,329.2 C139.083334,329.2 139.291666,329.15 139.475,329.05 L139.475,329.05 Z M133.8,323.275 L132.5,323.55 C131.533328,323.750001 130.825002,324.091664 130.375,324.575 C129.924998,325.058336 129.7,325.716662 129.7,326.55 C129.7,327.250003 129.849998,327.783331 130.15,328.15 C130.450001,328.516668 130.866664,328.7 131.4,328.7 C132.06667,328.7 132.620831,328.420836 133.0625,327.8625 C133.504169,327.304164 133.733333,326.583338 133.75,325.7 L133.8,323.275 Z M148.2,325.65 L148.45,325.725 C148.099998,328.741682 146.750012,330.25 144.4,330.25 C143.266661,330.25 142.36667,329.908337 141.7,329.225 C141.03333,328.541663 140.708333,327.550006 140.725,326.25 L140.75,318.35 L139.25,318.35 L139.25,318.125 C140.433339,317.874999 141.449996,317.333337 142.3,316.5 C143.150004,315.666663 143.741665,314.625006 144.075,313.375 L144.325,313.375 L144.325,317.7 L148.125,317.7 L148,318.35 L144.325,318.35 L144.325,326.275 C144.325,327.725007 144.849995,328.45 145.9,328.45 C147.100006,328.45 147.866665,327.516676 148.2,325.65 L148.2,325.65 Z M150.25,313.675 C150.25,313.091664 150.454165,312.600002 150.8625,312.2 C151.270835,311.799998 151.78333,311.6 152.4,311.6 C153.01667,311.6 153.529165,311.799998 153.9375,312.2 C154.345835,312.600002 154.55,313.091664 154.55,313.675 C154.55,314.258336 154.345835,314.749998 153.9375,315.15 C153.529165,315.550002 153.01667,315.75 152.4,315.75 C151.78333,315.75 151.270835,315.550002 150.8625,315.15 C150.454165,314.749998 150.25,314.258336 150.25,313.675 L150.25,313.675 Z M154.275,317.7 L154.275,327.275 C154.275,328.108338 154.349999,328.687498 154.5,329.0125 C154.650001,329.337502 154.999997,329.649998 155.55,329.95 L155.55,330 L149.425,330 L149.425,329.95 C149.975003,329.649998 150.320833,329.341668 150.4625,329.025 C150.604167,328.708332 150.675,328.125004 150.675,327.275 L150.675,320.475 C150.675,319.658329 150.587501,319.079168 150.4125,318.7375 C150.237499,318.395832 149.858336,318.066668 149.275,317.75 L149.275,317.7 L154.275,317.7 Z M163.2,330.25 C161.333324,330.25 159.77084,329.650006 158.5125,328.45 C157.25416,327.249994 156.625,325.716676 156.625,323.85 C156.625,321.983324 157.25416,320.450006 158.5125,319.25 C159.77084,318.049994 161.333324,317.45 163.2,317.45 C165.083343,317.45 166.65416,318.045827 167.9125,319.2375 C169.17084,320.429173 169.8,321.966657 169.8,323.85 C169.8,325.733343 169.17084,327.270827 167.9125,328.4625 C166.65416,329.654173 165.083343,330.25 163.2,330.25 L163.2,330.25 Z M163.2,329.8 C164.100004,329.8 164.779164,329.279172 165.2375,328.2375 C165.695836,327.195828 165.925,325.733343 165.925,323.85 C165.925,321.966657 165.695836,320.508338 165.2375,319.475 C164.779164,318.441662 164.100004,317.925 163.2,317.925 C162.299995,317.925 161.625002,318.441662 161.175,319.475 C160.724998,320.508338 160.5,321.966657 160.5,323.85 C160.5,325.733343 160.724998,327.195828 161.175,328.2375 C161.625002,329.279172 162.299995,329.8 163.2,329.8 L163.2,329.8 Z M170.9,317.7 L175.9,317.7 L175.9,321.05 C176.233335,319.916661 176.779163,319.033337 177.5375,318.4 C178.295837,317.766663 179.208328,317.45 180.275,317.45 C181.525006,317.45 182.491663,317.841663 183.175,318.625 C183.858337,319.408337 184.2,320.46666 184.2,321.8 L184.2,327.275 C184.2,328.108338 184.274999,328.687498 184.425,329.0125 C184.575001,329.337502 184.924997,329.649998 185.475,329.95 L185.475,330 L179.35,330 L179.35,329.95 C179.900003,329.649998 180.245833,329.341668 180.3875,329.025 C180.529167,328.708332 180.6,328.125004 180.6,327.275 L180.6,321.8 C180.6,321.049996 180.433335,320.437502 180.1,319.9625 C179.766665,319.487498 179.250003,319.25 178.55,319.25 C177.749996,319.25 177.108336,319.587497 176.625,320.2625 C176.141664,320.937503 175.9,321.883327 175.9,323.1 L175.9,327.275 C175.9,328.108338 175.974999,328.687498 176.125,329.0125 C176.275001,329.337502 176.624997,329.649998 177.175,329.95 L177.175,330 L171.05,330 L171.05,329.95 C171.600003,329.649998 171.945833,329.341668 172.0875,329.025 C172.229167,328.708332 172.3,328.125004 172.3,327.275 L172.3,320.475 C172.3,319.658329 172.212501,319.079168 172.0375,318.7375 C171.862499,318.395832 171.483336,318.066668 170.9,317.75 L170.9,317.7 Z" id="ui/ux-design" fill="#000000"></path>
            </g>
        </g>
    </g>
</svg>