<?xml version="1.0" encoding="UTF-8" standalone="no"?>
<svg width="410px" height="410px" viewBox="0 0 410 410" version="1.1" xmlns="http://www.w3.org/2000/svg" xmlns:xlink="http://www.w3.org/1999/xlink">
    <!-- Generator: Sketch 3.8.3 (29802) - http://www.bohemiancoding.com/sketch -->
    <title>card</title>
    <desc>Created with Sketch.</desc>
    <defs>
        <rect id="path-1" x="0" y="0" width="410" height="410"></rect>
        <mask id="mask-2" maskContentUnits="userSpaceOnUse" maskUnits="objectBoundingBox" x="0" y="0" width="410" height="410" fill="white">
            <use xlink:href="#path-1"></use>
        </mask>
    </defs>
    <g id="Page-1" stroke="none" stroke-width="1" fill="none" fill-rule="evenodd">
        <g id="Desktop-HD-Copy" transform="translate(-193.000000, -415.000000)">
            <g id="card" transform="translate(193.000000, 415.000000)">
                <use id="Rectangle-26" stroke-opacity="0" stroke="#000000" mask="url(#mask-2)" stroke-width="4" stroke-dasharray="3" fill="#FEFFE1" xlink:href="#path-1"></use>
                <path d="M62.27,81.384 L62.27,77.094 C62.27,76.2619958 62.1746676,75.6640018 61.984,75.3 C61.7933324,74.9359982 61.3946697,74.589335 60.788,74.26 L60.788,74.208 L66.014,74.208 L66.014,84.322 C66.014,85.1193373 66.117999,85.682665 66.326,86.012 C66.534001,86.341335 66.9413303,86.6533319 67.548,86.948 L67.548,87 L62.27,87 L62.27,83.438 C61.9579984,84.6513394 61.399004,85.5916633 60.593,86.259 C59.786996,86.9263367 58.8206723,87.26 57.694,87.26 C56.4113269,87.26 55.4146702,86.8483374 54.704,86.025 C53.9933298,85.2016626 53.638,84.1053402 53.638,82.736 L53.638,77.094 C53.638,76.2446624 53.5470009,75.6423351 53.365,75.287 C53.1829991,74.9316649 52.7886697,74.589335 52.182,74.26 L52.182,74.208 L57.382,74.208 L57.382,82.71 C57.382,83.4553371 57.5596649,84.0836641 57.915,84.595 C58.2703351,85.1063359 58.7946632,85.362 59.488,85.362 C60.3026707,85.362 60.9699974,85.0110035 61.49,84.309 C62.0100026,83.6069965 62.27,82.6320062 62.27,81.384 L62.27,81.384 Z M69.342,70.022 C69.342,69.4153303 69.5543312,68.9040021 69.979,68.488 C70.4036688,68.0719979 70.9366635,67.864 71.578,67.864 C72.2193365,67.864 72.7523312,68.0719979 73.177,68.488 C73.6016688,68.9040021 73.814,69.4153303 73.814,70.022 C73.814,70.6286697 73.6016688,71.1399979 73.177,71.556 C72.7523312,71.9720021 72.2193365,72.18 71.578,72.18 C70.9366635,72.18 70.4036688,71.9720021 69.979,71.556 C69.5543312,71.1399979 69.342,70.6286697 69.342,70.022 L69.342,70.022 Z M73.528,74.208 L73.528,84.166 C73.528,85.032671 73.6059992,85.6349983 73.762,85.973 C73.9180008,86.3110017 74.2819971,86.6359984 74.854,86.948 L74.854,87 L68.484,87 L68.484,86.948 C69.0560029,86.6359984 69.4156659,86.315335 69.563,85.986 C69.7103341,85.656665 69.784,85.0500044 69.784,84.166 L69.784,77.094 C69.784,76.2446624 69.6930009,75.6423351 69.511,75.287 C69.3289991,74.9316649 68.9346697,74.589335 68.328,74.26 L68.328,74.208 L73.528,74.208 Z M75.348,90.198 L83.044,67.526 L83.902,67.526 L76.206,90.198 L75.348,90.198 Z M94.692,81.384 L94.692,77.094 C94.692,76.2619958 94.5966676,75.6640018 94.406,75.3 C94.2153324,74.9359982 93.8166697,74.589335 93.21,74.26 L93.21,74.208 L98.436,74.208 L98.436,84.322 C98.436,85.1193373 98.539999,85.682665 98.748,86.012 C98.956001,86.341335 99.3633303,86.6533319 99.97,86.948 L99.97,87 L94.692,87 L94.692,83.438 C94.3799984,84.6513394 93.821004,85.5916633 93.015,86.259 C92.208996,86.9263367 91.2426723,87.26 90.116,87.26 C88.8333269,87.26 87.8366702,86.8483374 87.126,86.025 C86.4153298,85.2016626 86.06,84.1053402 86.06,82.736 L86.06,77.094 C86.06,76.2446624 85.9690009,75.6423351 85.787,75.287 C85.6049991,74.9316649 85.2106697,74.589335 84.604,74.26 L84.604,74.208 L89.804,74.208 L89.804,82.71 C89.804,83.4553371 89.9816649,84.0836641 90.337,84.595 C90.6923351,85.1063359 91.2166632,85.362 91.91,85.362 C92.7246707,85.362 93.3919974,85.0110035 93.912,84.309 C94.4320026,83.6069965 94.692,82.6320062 94.692,81.384 L94.692,81.384 Z M103.844,86.948 L103.844,87 L100.022,87 L100.022,86.948 C100.663337,86.618665 101.217998,86.2243356 101.686,85.765 C102.154002,85.3056644 102.69133,84.6860039 103.298,83.906 L105.664,80.76 L103.454,77.302 C102.968664,76.5393295 102.522335,75.9500021 102.115,75.534 C101.707665,75.1179979 101.17467,74.6933355 100.516,74.26 L100.516,74.208 L106.756,74.208 L106.756,74.26 C106.513332,74.4506676 106.392,74.710665 106.392,75.04 C106.374667,75.3866684 106.686663,76.0626616 107.328,77.068 L108.602,79.044 L109.928,77.068 C110.448003,76.3573298 110.708,75.7680023 110.708,75.3 C110.708,74.8319977 110.474002,74.4853345 110.006,74.26 L110.006,74.208 L113.776,74.208 L113.776,74.26 C113.134663,74.589335 112.580002,74.9879977 112.112,75.456 C111.643998,75.9240023 111.124003,76.5479961 110.552,77.328 L108.94,79.564 L111.696,83.906 C112.216003,84.6860039 112.679665,85.2839979 113.087,85.7 C113.494335,86.1160021 114.02733,86.5319979 114.686,86.948 L114.686,87 L108.42,87 L108.42,86.948 C108.680001,86.739999 108.81,86.4886681 108.81,86.194 C108.792667,85.7606645 108.48067,85.0846713 107.874,84.166 L106.028,81.306 L103.948,84.166 C103.410664,84.8766702 103.142,85.4399979 103.142,85.856 C103.142,86.3413358 103.375998,86.7053321 103.844,86.948 L103.844,86.948 Z M127.374,85.7 C128.171337,85.7 128.87333,85.3403369 129.48,84.621 C130.08667,83.9016631 130.39,82.9700057 130.39,81.826 L130.39,79.278 C130.39,78.0646606 130.08667,77.0766705 129.48,76.314 C128.87333,75.5513295 128.162671,75.17 127.348,75.17 C126.359995,75.17 125.606003,75.6509952 125.086,76.613 C124.565997,77.5750048 124.306,78.9486577 124.306,80.734 C124.306,82.3113412 124.574664,83.533329 125.112,84.4 C125.649336,85.266671 126.403328,85.7 127.374,85.7 L127.374,85.7 Z M130.39,77.198 L130.39,70.386 C130.39,69.5713293 130.281668,68.9733352 130.065,68.592 C129.848332,68.2106648 129.43667,67.8726681 128.83,67.578 L128.83,67.526 L134.134,67.526 L134.134,84.166 C134.134,84.9633373 134.224999,85.5483315 134.407,85.921 C134.589001,86.2936685 134.965997,86.6359984 135.538,86.948 L135.538,87 L130.39,87 L130.39,83.672 C130.112665,84.7120052 129.579671,85.5699966 128.791,86.246 C128.002329,86.9220034 127.044672,87.26 125.918,87.26 C124.323325,87.26 122.988672,86.662006 121.914,85.466 C120.839328,84.269994 120.302,82.6926765 120.302,80.734 C120.302,78.7233233 120.860994,77.089673 121.979,75.833 C123.097006,74.576327 124.470659,73.948 126.1,73.948 C127.192005,73.948 128.110663,74.2513303 128.856,74.858 C129.601337,75.4646697 130.112665,76.2446619 130.39,77.198 L130.39,77.198 Z M143.182,73.948 C145.10601,73.948 146.561995,74.5069944 147.55,75.625 C148.538005,76.7430056 149.032,78.2206575 149.032,80.058 L140.452,80.058 C140.452,81.7046749 140.846329,83.0219951 141.635,84.01 C142.423671,84.9980049 143.485327,85.492 144.82,85.492 C146.726676,85.492 148.06133,84.6080088 148.824,82.84 L148.98,82.918 C148.650665,84.2873402 147.974672,85.3533295 146.952,86.116 C145.929328,86.8786705 144.681341,87.26 143.208,87.26 C141.335991,87.26 139.776006,86.6663393 138.528,85.479 C137.279994,84.2916607 136.656,82.6753436 136.656,80.63 C136.656,78.6539901 137.28866,77.0463395 138.554,75.807 C139.81934,74.5676605 141.361991,73.948 143.182,73.948 L143.182,73.948 Z M140.478,79.512 L145.34,79.512 C145.34,78.7319961 145.314,78.0646694 145.262,77.51 C145.21,76.9553306 145.110334,76.4310025 144.963,75.937 C144.815666,75.4429975 144.590335,75.0703346 144.287,74.819 C143.983665,74.5676654 143.606669,74.442 143.156,74.442 C142.39333,74.442 141.769336,74.9013287 141.284,75.82 C140.798664,76.7386713 140.53,77.9693256 140.478,79.512 L140.478,79.512 Z M155.194,74.442 C154.53533,74.442 154.015335,74.6153316 153.634,74.962 C153.252665,75.3086684 153.062,75.750664 153.062,76.288 C153.062,76.8946697 153.274331,77.3496651 153.699,77.653 C154.123669,77.9563349 154.96866,78.2899982 156.234,78.654 C157.950009,79.1393358 159.167663,79.7156633 159.887,80.383 C160.606337,81.0503367 160.966,81.9646609 160.966,83.126 C160.966,84.4086731 160.489338,85.4183297 159.536,86.155 C158.582662,86.8916703 157.378007,87.26 155.922,87.26 C155.245997,87.26 154.492004,87.1603343 153.66,86.961 C152.827996,86.7616657 152.299334,86.662 152.074,86.662 C151.675331,86.662 151.259335,86.8613313 150.826,87.26 L150.54,82.45 L150.592,82.45 C151.978674,85.3446811 153.755322,86.792 155.922,86.792 C156.63267,86.792 157.217664,86.6013352 157.677,86.22 C158.136336,85.8386648 158.366,85.3100034 158.366,84.634 C158.366,83.9926635 158.114669,83.5160016 157.612,83.204 C157.109331,82.8919984 156.251339,82.571335 155.038,82.242 C153.495326,81.7913311 152.38167,81.2236701 151.697,80.539 C151.01233,79.8543299 150.67,78.9400057 150.67,77.796 C150.67,76.6346609 151.103329,75.7030035 151.97,75.001 C152.836671,74.2989965 153.911327,73.948 155.194,73.948 C155.783336,73.948 156.44633,74.0563323 157.183,74.273 C157.91967,74.4896678 158.409332,74.598 158.652,74.598 C159.068002,74.598 159.535997,74.3813355 160.056,73.948 L160.056,78.186 L160.004,78.186 C159.449331,77.0593277 158.743004,76.1536701 157.885,75.469 C157.026996,74.7843299 156.130005,74.442 155.194,74.442 L155.194,74.442 Z M163.358,70.022 C163.358,69.4153303 163.570331,68.9040021 163.995,68.488 C164.419669,68.0719979 164.952663,67.864 165.594,67.864 C166.235337,67.864 166.768331,68.0719979 167.193,68.488 C167.617669,68.9040021 167.83,69.4153303 167.83,70.022 C167.83,70.6286697 167.617669,71.1399979 167.193,71.556 C166.768331,71.9720021 166.235337,72.18 165.594,72.18 C164.952663,72.18 164.419669,71.9720021 163.995,71.556 C163.570331,71.1399979 163.358,70.6286697 163.358,70.022 L163.358,70.022 Z M167.544,74.208 L167.544,84.166 C167.544,85.032671 167.621999,85.6349983 167.778,85.973 C167.934001,86.3110017 168.297997,86.6359984 168.87,86.948 L168.87,87 L162.5,87 L162.5,86.948 C163.072003,86.6359984 163.431666,86.315335 163.579,85.986 C163.726334,85.656665 163.8,85.0500044 163.8,84.166 L163.8,77.094 C163.8,76.2446624 163.709001,75.6423351 163.527,75.287 C163.344999,74.9316649 162.95067,74.589335 162.344,74.26 L162.344,74.208 L167.544,74.208 Z M176.124,74.39 C174.85866,74.39 174.226,75.6639873 174.226,78.212 C174.226,80.7600127 174.85866,82.034 176.124,82.034 C177.406673,82.034 178.048,80.7600127 178.048,78.212 C178.048,75.6639873 177.406673,74.39 176.124,74.39 L176.124,74.39 Z M183.69,88.066 C183.69,89.6260078 182.936008,90.839329 181.428,91.706 C179.919992,92.572671 178.056678,93.006 175.838,93.006 C174.763328,93.006 173.771005,92.9193342 172.861,92.746 C171.950995,92.5726658 171.158003,92.2520023 170.482,91.784 C169.805997,91.3159977 169.468,90.7353368 169.468,90.042 C169.468,89.4006635 169.775664,88.8676688 170.391,88.443 C171.006336,88.0183312 171.851328,87.7713337 172.926,87.702 C172.128663,87.5633326 171.465669,87.2470025 170.937,86.753 C170.408331,86.2589975 170.144,85.6220039 170.144,84.842 C170.144,84.1139964 170.412664,83.4856693 170.95,82.957 C171.487336,82.4283307 172.145996,82.0513345 172.926,81.826 C172.145996,81.4446648 171.552335,80.9420031 171.145,80.318 C170.737665,79.6939969 170.534,78.9920039 170.534,78.212 C170.534,76.9639938 171.027995,75.9413373 172.016,75.144 C173.004005,74.3466627 174.373325,73.948 176.124,73.948 C177.909342,73.948 179.295995,74.3986622 180.284,75.3 C180.526668,74.9013313 180.730333,74.5850012 180.895,74.351 C181.059667,74.1169988 181.323998,73.8743346 181.688,73.623 C182.052002,73.3716654 182.433331,73.246 182.832,73.246 C183.456003,73.246 183.945665,73.4063317 184.301,73.727 C184.656335,74.0476683 184.834,74.476664 184.834,75.014 C184.834,75.67267 184.604336,76.1579984 184.145,76.47 C183.685664,76.7820016 183.15267,76.938 182.546,76.938 L182.546,76.886 C182.788668,76.6606655 182.91,76.3573352 182.91,75.976 C182.91,75.646665 182.814668,75.378001 182.624,75.17 C182.433332,74.961999 182.147335,74.858 181.766,74.858 C181.315331,74.858 180.890669,75.0746645 180.492,75.508 C181.324004,76.2360036 181.74,77.137328 181.74,78.212 C181.74,79.4600062 181.241672,80.4826627 180.245,81.28 C179.248328,82.0773373 177.874675,82.476 176.124,82.476 C175.031995,82.476 174.096004,82.3200016 173.316,82.008 C172.501329,82.3026681 172.094,82.7273306 172.094,83.282 C172.094,83.9926702 172.613995,84.348 173.654,84.348 L178.698,84.348 C180.258008,84.348 181.479996,84.6686635 182.364,85.31 C183.248004,85.9513365 183.69,86.869994 183.69,88.066 L183.69,88.066 Z M175.838,92.538 C177.346008,92.538 178.572329,92.2910025 179.517,91.797 C180.461671,91.3029975 180.934,90.6313376 180.934,89.782 C180.934,88.4473267 180.041342,87.78 178.256,87.78 L174.512,87.78 C173.662662,87.78 172.995336,87.9619982 172.51,88.326 C172.024664,88.6900018 171.782,89.2273298 171.782,89.938 C171.782,90.7526707 172.16333,91.3896644 172.926,91.849 C173.68867,92.3083356 174.659327,92.538 175.838,92.538 L175.838,92.538 Z M184.704,74.208 L189.904,74.208 L189.904,77.692 C190.250668,76.5133274 190.818329,75.59467 191.607,74.936 C192.395671,74.27733 193.344661,73.948 194.454,73.948 C195.754006,73.948 196.75933,74.3553293 197.47,75.17 C198.18067,75.9846707 198.536,77.0853264 198.536,78.472 L198.536,84.166 C198.536,85.032671 198.613999,85.6349983 198.77,85.973 C198.926001,86.3110017 199.289997,86.6359984 199.862,86.948 L199.862,87 L193.492,87 L193.492,86.948 C194.064003,86.6359984 194.423666,86.315335 194.571,85.986 C194.718334,85.656665 194.792,85.0500044 194.792,84.166 L194.792,78.472 C194.792,77.6919961 194.618668,77.0550025 194.272,76.561 C193.925332,76.0669975 193.388004,75.82 192.66,75.82 C191.827996,75.82 191.160669,76.1709965 190.658,76.873 C190.155331,77.5750035 189.904,78.5586603 189.904,79.824 L189.904,84.166 C189.904,85.032671 189.981999,85.6349983 190.138,85.973 C190.294001,86.3110017 190.657997,86.6359984 191.23,86.948 L191.23,87 L184.86,87 L184.86,86.948 C185.432003,86.6359984 185.791666,86.315335 185.939,85.986 C186.086334,85.656665 186.16,85.0500044 186.16,84.166 L186.16,77.094 C186.16,76.2446624 186.069001,75.6423351 185.887,75.287 C185.704999,74.9316649 185.31067,74.589335 184.704,74.26 L184.704,74.208 Z M61.36,135.26 C60.1986609,135.26 59.2063374,134.991336 58.383,134.454 C57.5596625,133.916664 56.983335,133.188671 56.654,132.27 C56.3593319,132.998004 55.9390027,133.630664 55.393,134.168 C54.8469973,134.705336 54.2013371,135.060666 53.456,135.234 C53.6466676,134.193995 53.742,132.278681 53.742,129.488 L53.742,118.386 C53.742,117.571329 53.6336677,116.973335 53.417,116.592 C53.2003322,116.210665 52.7886697,115.872668 52.182,115.578 L52.182,115.526 L57.486,115.526 L57.486,125.562 C57.7633347,124.521995 58.3006627,123.65967 59.098,122.975 C59.8953373,122.29033 60.8573277,121.948 61.984,121.948 C63.5786746,121.948 64.9089947,122.545994 65.975,123.742 C67.0410053,124.938006 67.574,126.515324 67.574,128.474 C67.574,130.519344 66.9803393,132.16166 65.793,133.401 C64.6056607,134.64034 63.1280088,135.26 61.36,135.26 L61.36,135.26 Z M63.596,128.63 C63.596,127.017992 63.3230027,125.765671 62.777,124.873 C62.2309973,123.980329 61.4726715,123.534 60.502,123.534 C59.7046627,123.534 59.0026697,123.90233 58.396,124.639 C57.7893303,125.37567 57.486,126.324661 57.486,127.486 L57.486,130.58 C57.486,131.689339 57.7806637,132.594996 58.37,133.297 C58.9593363,133.999004 59.6526627,134.35 60.45,134.35 C61.4726718,134.35 62.252664,133.856005 62.79,132.868 C63.327336,131.879995 63.596,130.467343 63.596,128.63 L63.596,128.63 Z M77.454,126.732 C77.991336,126.541332 78.26,126.134003 78.26,125.51 C78.26,125.076664 78.125668,124.738668 77.857,124.496 C77.588332,124.253332 77.2113358,124.132 76.726,124.132 C75.9633295,124.132 75.3046694,124.552329 74.75,125.393 C74.1953306,126.233671 73.918,127.28666 73.918,128.552 L73.918,132.166 C73.918,132.980671 74.0739984,133.574331 74.386,133.947 C74.6980016,134.319669 75.2439961,134.653332 76.024,134.948 L76.024,135 L68.874,135 L68.874,134.948 C69.4460029,134.635998 69.8056659,134.315335 69.953,133.986 C70.1003341,133.656665 70.174,133.050004 70.174,132.166 L70.174,125.094 C70.174,124.244662 70.0830009,123.642335 69.901,123.287 C69.7189991,122.931665 69.3246697,122.589335 68.718,122.26 L68.718,122.208 L73.918,122.208 L73.918,126.472 C74.6980039,123.455985 76.0846567,121.948 78.078,121.948 C78.8580039,121.948 79.4949975,122.177664 79.989,122.637 C80.4830025,123.096336 80.73,123.689996 80.73,124.418 C80.73,125.232671 80.4960023,125.869664 80.028,126.329 C79.5599977,126.788336 79.0053365,127.018 78.364,127.018 C77.9479979,127.018 77.6446676,126.922668 77.454,126.732 L77.454,126.732 Z M95.524,134.012 L95.524,134.064 C94.86533,134.844004 93.9206728,135.234 92.69,135.234 C90.9219912,135.234 89.9253345,134.462674 89.7,132.92 C89.7,132.885333 89.6913334,132.746668 89.674,132.504 C89.6566666,132.261332 89.648,132.105334 89.648,132.036 C89.4573324,132.937338 88.9720039,133.686997 88.192,134.285 C87.4119961,134.883003 86.484672,135.182 85.41,135.182 C84.3179945,135.182 83.4123369,134.904669 82.693,134.35 C81.9736631,133.795331 81.614,132.989339 81.614,131.932 C81.614,131.377331 81.7309988,130.887669 81.965,130.463 C82.1990012,130.038331 82.4763317,129.700335 82.797,129.449 C83.1176683,129.197665 83.5856636,128.963668 84.201,128.747 C84.8163364,128.530332 85.3449978,128.370001 85.787,128.266 C86.2290022,128.161999 86.8486627,128.040667 87.646,127.902 L89.622,127.538 L89.622,125.406 C89.622,124.539329 89.4270019,123.828669 89.037,123.274 C88.646998,122.719331 88.0446707,122.442 87.23,122.442 C86.5193298,122.442 85.9820018,122.632665 85.618,123.014 C85.2539982,123.395335 85.072,123.880664 85.072,124.47 C85.072,124.955336 85.1803322,125.327999 85.397,125.588 C85.6136677,125.848001 85.9126648,125.978 86.294,125.978 C86.4326674,125.978 86.5799992,125.952 86.736,125.9 C86.3719982,126.836005 85.6180057,127.304 84.474,127.304 C83.81533,127.304 83.2736688,127.113335 82.849,126.732 C82.4243312,126.350665 82.212,125.848003 82.212,125.224 C82.212,124.287995 82.6886619,123.508003 83.642,122.884 C84.5953381,122.259997 85.8173259,121.948 87.308,121.948 C89.3186767,121.948 90.8309949,122.307663 91.845,123.027 C92.8590051,123.746337 93.366,124.885992 93.366,126.446 C93.366,127.087337 93.3573334,127.979994 93.34,129.124 C93.3226666,130.268006 93.314,131.125997 93.314,131.698 C93.314,132.547338 93.4266655,133.171331 93.652,133.57 C93.8773345,133.968669 94.2846637,134.168 94.874,134.168 C95.1166679,134.168 95.3333324,134.116001 95.524,134.012 L95.524,134.012 Z M89.622,128.006 L88.27,128.292 C87.2646616,128.500001 86.5280023,128.855331 86.06,129.358 C85.5919977,129.860669 85.358,130.545329 85.358,131.412 C85.358,132.140004 85.5139984,132.694665 85.826,133.076 C86.1380016,133.457335 86.5713306,133.648 87.126,133.648 C87.8193368,133.648 88.3956644,133.35767 88.855,132.777 C89.3143356,132.19633 89.5526666,131.446671 89.57,130.528 L89.622,128.006 Z M95.628,122.208 L100.828,122.208 L100.828,125.692 C101.174668,124.513327 101.742329,123.59467 102.531,122.936 C103.319671,122.27733 104.268661,121.948 105.378,121.948 C106.678006,121.948 107.68333,122.355329 108.394,123.17 C109.10467,123.984671 109.46,125.085326 109.46,126.472 L109.46,132.166 C109.46,133.032671 109.537999,133.634998 109.694,133.973 C109.850001,134.311002 110.213997,134.635998 110.786,134.948 L110.786,135 L104.416,135 L104.416,134.948 C104.988003,134.635998 105.347666,134.315335 105.495,133.986 C105.642334,133.656665 105.716,133.050004 105.716,132.166 L105.716,126.472 C105.716,125.691996 105.542668,125.055002 105.196,124.561 C104.849332,124.066998 104.312004,123.82 103.584,123.82 C102.751996,123.82 102.084669,124.170996 101.582,124.873 C101.079331,125.575004 100.828,126.55866 100.828,127.824 L100.828,132.166 C100.828,133.032671 100.905999,133.634998 101.062,133.973 C101.218001,134.311002 101.581997,134.635998 102.154,134.948 L102.154,135 L95.784,135 L95.784,134.948 C96.3560029,134.635998 96.7156659,134.315335 96.863,133.986 C97.0103341,133.656665 97.084,133.050004 97.084,132.166 L97.084,125.094 C97.084,124.244662 96.9930009,123.642335 96.811,123.287 C96.6289991,122.931665 96.2346697,122.589335 95.628,122.26 L95.628,122.208 Z M118.95,133.7 C119.747337,133.7 120.44933,133.340337 121.056,132.621 C121.66267,131.901663 121.966,130.970006 121.966,129.826 L121.966,127.278 C121.966,126.064661 121.66267,125.07667 121.056,124.314 C120.44933,123.55133 119.738671,123.17 118.924,123.17 C117.935995,123.17 117.182003,123.650995 116.662,124.613 C116.141997,125.575005 115.882,126.948658 115.882,128.734 C115.882,130.311341 116.150664,131.533329 116.688,132.4 C117.225336,133.266671 117.979328,133.7 118.95,133.7 L118.95,133.7 Z M121.966,125.198 L121.966,118.386 C121.966,117.571329 121.857668,116.973335 121.641,116.592 C121.424332,116.210665 121.01267,115.872668 120.406,115.578 L120.406,115.526 L125.71,115.526 L125.71,132.166 C125.71,132.963337 125.800999,133.548331 125.983,133.921 C126.165001,134.293669 126.541997,134.635998 127.114,134.948 L127.114,135 L121.966,135 L121.966,131.672 C121.688665,132.712005 121.155671,133.569997 120.367,134.246 C119.578329,134.922003 118.620672,135.26 117.494,135.26 C115.899325,135.26 114.564672,134.662006 113.49,133.466 C112.415328,132.269994 111.878,130.692676 111.878,128.734 C111.878,126.723323 112.436994,125.089673 113.555,123.833 C114.673006,122.576327 116.046659,121.948 117.676,121.948 C118.768005,121.948 119.686663,122.25133 120.432,122.858 C121.177337,123.46467 121.688665,124.244662 121.966,125.198 L121.966,125.198 Z M129.142,118.022 C129.142,117.41533 129.354331,116.904002 129.779,116.488 C130.203669,116.071998 130.736663,115.864 131.378,115.864 C132.019337,115.864 132.552331,116.071998 132.977,116.488 C133.401669,116.904002 133.614,117.41533 133.614,118.022 C133.614,118.62867 133.401669,119.139998 132.977,119.556 C132.552331,119.972002 132.019337,120.18 131.378,120.18 C130.736663,120.18 130.203669,119.972002 129.779,119.556 C129.354331,119.139998 129.142,118.62867 129.142,118.022 L129.142,118.022 Z M133.328,122.208 L133.328,132.166 C133.328,133.032671 133.405999,133.634998 133.562,133.973 C133.718001,134.311002 134.081997,134.635998 134.654,134.948 L134.654,135 L128.284,135 L128.284,134.948 C128.856003,134.635998 129.215666,134.315335 129.363,133.986 C129.510334,133.656665 129.584,133.050004 129.584,132.166 L129.584,125.094 C129.584,124.244662 129.493001,123.642335 129.311,123.287 C129.128999,122.931665 128.73467,122.589335 128.128,122.26 L128.128,122.208 L133.328,122.208 Z M135.668,122.208 L140.868,122.208 L140.868,125.692 C141.214668,124.513327 141.782329,123.59467 142.571,122.936 C143.359671,122.27733 144.308661,121.948 145.418,121.948 C146.718006,121.948 147.72333,122.355329 148.434,123.17 C149.14467,123.984671 149.5,125.085326 149.5,126.472 L149.5,132.166 C149.5,133.032671 149.577999,133.634998 149.734,133.973 C149.890001,134.311002 150.253997,134.635998 150.826,134.948 L150.826,135 L144.456,135 L144.456,134.948 C145.028003,134.635998 145.387666,134.315335 145.535,133.986 C145.682334,133.656665 145.756,133.050004 145.756,132.166 L145.756,126.472 C145.756,125.691996 145.582668,125.055002 145.236,124.561 C144.889332,124.066998 144.352004,123.82 143.624,123.82 C142.791996,123.82 142.124669,124.170996 141.622,124.873 C141.119331,125.575004 140.868,126.55866 140.868,127.824 L140.868,132.166 C140.868,133.032671 140.945999,133.634998 141.102,133.973 C141.258001,134.311002 141.621997,134.635998 142.194,134.948 L142.194,135 L135.824,135 L135.824,134.948 C136.396003,134.635998 136.755666,134.315335 136.903,133.986 C137.050334,133.656665 137.124,133.050004 137.124,132.166 L137.124,125.094 C137.124,124.244662 137.033001,123.642335 136.851,123.287 C136.668999,122.931665 136.27467,122.589335 135.668,122.26 L135.668,122.208 Z M158.054,122.39 C156.78866,122.39 156.156,123.663987 156.156,126.212 C156.156,128.760013 156.78866,130.034 158.054,130.034 C159.336673,130.034 159.978,128.760013 159.978,126.212 C159.978,123.663987 159.336673,122.39 158.054,122.39 L158.054,122.39 Z M165.62,136.066 C165.62,137.626008 164.866008,138.839329 163.358,139.706 C161.849992,140.572671 159.986678,141.006 157.768,141.006 C156.693328,141.006 155.701005,140.919334 154.791,140.746 C153.880995,140.572666 153.088003,140.252002 152.412,139.784 C151.735997,139.315998 151.398,138.735337 151.398,138.042 C151.398,137.400663 151.705664,136.867669 152.321,136.443 C152.936336,136.018331 153.781328,135.771334 154.856,135.702 C154.058663,135.563333 153.395669,135.247002 152.867,134.753 C152.338331,134.258998 152.074,133.622004 152.074,132.842 C152.074,132.113996 152.342664,131.485669 152.88,130.957 C153.417336,130.428331 154.075996,130.051334 154.856,129.826 C154.075996,129.444665 153.482335,128.942003 153.075,128.318 C152.667665,127.693997 152.464,126.992004 152.464,126.212 C152.464,124.963994 152.957995,123.941337 153.946,123.144 C154.934005,122.346663 156.303325,121.948 158.054,121.948 C159.839342,121.948 161.225995,122.398662 162.214,123.3 C162.456668,122.901331 162.660333,122.585001 162.825,122.351 C162.989667,122.116999 163.253998,121.874335 163.618,121.623 C163.982002,121.371665 164.363331,121.246 164.762,121.246 C165.386003,121.246 165.875665,121.406332 166.231,121.727 C166.586335,122.047668 166.764,122.476664 166.764,123.014 C166.764,123.67267 166.534336,124.157998 166.075,124.47 C165.615664,124.782002 165.08267,124.938 164.476,124.938 L164.476,124.886 C164.718668,124.660666 164.84,124.357335 164.84,123.976 C164.84,123.646665 164.744668,123.378001 164.554,123.17 C164.363332,122.961999 164.077335,122.858 163.696,122.858 C163.245331,122.858 162.820669,123.074664 162.422,123.508 C163.254004,124.236004 163.67,125.137328 163.67,126.212 C163.67,127.460006 163.171672,128.482663 162.175,129.28 C161.178328,130.077337 159.804675,130.476 158.054,130.476 C156.961995,130.476 156.026004,130.320002 155.246,130.008 C154.431329,130.302668 154.024,130.727331 154.024,131.282 C154.024,131.99267 154.543995,132.348 155.584,132.348 L160.628,132.348 C162.188008,132.348 163.409996,132.668663 164.294,133.31 C165.178004,133.951337 165.62,134.869994 165.62,136.066 L165.62,136.066 Z M157.768,140.538 C159.276008,140.538 160.502329,140.291002 161.447,139.797 C162.391671,139.302998 162.864,138.631338 162.864,137.782 C162.864,136.447327 161.971342,135.78 160.186,135.78 L156.442,135.78 C155.592662,135.78 154.925336,135.961998 154.44,136.326 C153.954664,136.690002 153.712,137.22733 153.712,137.938 C153.712,138.752671 154.09333,139.389664 154.856,139.849 C155.61867,140.308336 156.589327,140.538 157.768,140.538 L157.768,140.538 Z M66.638,182.012 L66.638,182.064 C65.97933,182.844004 65.0346728,183.234 63.804,183.234 C62.0359912,183.234 61.0393345,182.462674 60.814,180.92 C60.814,180.885333 60.8053334,180.746668 60.788,180.504 C60.7706666,180.261332 60.762,180.105334 60.762,180.036 C60.5713324,180.937338 60.0860039,181.686997 59.306,182.285 C58.5259961,182.883003 57.598672,183.182 56.524,183.182 C55.4319945,183.182 54.5263369,182.904669 53.807,182.35 C53.0876631,181.795331 52.728,180.989339 52.728,179.932 C52.728,179.377331 52.8449988,178.887669 53.079,178.463 C53.3130012,178.038331 53.5903317,177.700335 53.911,177.449 C54.2316683,177.197665 54.6996636,176.963668 55.315,176.747 C55.9303364,176.530332 56.4589978,176.370001 56.901,176.266 C57.3430022,176.161999 57.9626627,176.040667 58.76,175.902 L60.736,175.538 L60.736,173.406 C60.736,172.539329 60.5410019,171.828669 60.151,171.274 C59.760998,170.719331 59.1586707,170.442 58.344,170.442 C57.6333298,170.442 57.0960018,170.632665 56.732,171.014 C56.3679982,171.395335 56.186,171.880664 56.186,172.47 C56.186,172.955336 56.2943322,173.327999 56.511,173.588 C56.7276677,173.848001 57.0266648,173.978 57.408,173.978 C57.5466674,173.978 57.6939992,173.952 57.85,173.9 C57.4859982,174.836005 56.7320057,175.304 55.588,175.304 C54.92933,175.304 54.3876688,175.113335 53.963,174.732 C53.5383312,174.350665 53.326,173.848003 53.326,173.224 C53.326,172.287995 53.8026619,171.508003 54.756,170.884 C55.7093381,170.259997 56.9313259,169.948 58.422,169.948 C60.4326767,169.948 61.9449949,170.307663 62.959,171.027 C63.9730051,171.746337 64.48,172.885992 64.48,174.446 C64.48,175.087337 64.4713334,175.979994 64.454,177.124 C64.4366666,178.268006 64.428,179.125997 64.428,179.698 C64.428,180.547338 64.5406655,181.171331 64.766,181.57 C64.9913345,181.968669 65.3986637,182.168 65.988,182.168 C66.2306679,182.168 66.4473324,182.116001 66.638,182.012 L66.638,182.012 Z M60.736,176.006 L59.384,176.292 C58.3786616,176.500001 57.6420023,176.855331 57.174,177.358 C56.7059977,177.860669 56.472,178.545329 56.472,179.412 C56.472,180.140004 56.6279984,180.694665 56.94,181.076 C57.2520016,181.457335 57.6853306,181.648 58.24,181.648 C58.9333368,181.648 59.5096644,181.35767 59.969,180.777 C60.4283356,180.19633 60.6666666,179.446671 60.684,178.528 L60.736,176.006 Z M75.478,174.732 C76.015336,174.541332 76.284,174.134003 76.284,173.51 C76.284,173.076664 76.149668,172.738668 75.881,172.496 C75.612332,172.253332 75.2353358,172.132 74.75,172.132 C73.9873295,172.132 73.3286694,172.552329 72.774,173.393 C72.2193306,174.233671 71.942,175.28666 71.942,176.552 L71.942,180.166 C71.942,180.980671 72.0979984,181.574331 72.41,181.947 C72.7220016,182.319669 73.2679961,182.653332 74.048,182.948 L74.048,183 L66.898,183 L66.898,182.948 C67.4700029,182.635998 67.8296659,182.315335 67.977,181.986 C68.1243341,181.656665 68.198,181.050004 68.198,180.166 L68.198,173.094 C68.198,172.244662 68.1070009,171.642335 67.925,171.287 C67.7429991,170.931665 67.3486697,170.589335 66.742,170.26 L66.742,170.208 L71.942,170.208 L71.942,174.472 C72.7220039,171.455985 74.1086567,169.948 76.102,169.948 C76.8820039,169.948 77.5189975,170.177664 78.013,170.637 C78.5070025,171.096336 78.754,171.689996 78.754,172.418 C78.754,173.232671 78.5200023,173.869664 78.052,174.329 C77.5839977,174.788336 77.0293365,175.018 76.388,175.018 C75.9719979,175.018 75.6686676,174.922668 75.478,174.732 L75.478,174.732 Z M88.4,178.476 L88.66,178.554 C88.2959982,181.691349 86.8920122,183.26 84.448,183.26 C83.2693274,183.26 82.3333368,182.90467 81.64,182.194 C80.9466632,181.48333 80.6086666,180.452007 80.626,179.1 L80.652,170.884 L79.092,170.884 L79.092,170.65 C80.3226728,170.389999 81.3799956,169.826671 82.264,168.96 C83.1480044,168.093329 83.7633316,167.010007 84.11,165.71 L84.37,165.71 L84.37,170.208 L88.322,170.208 L88.192,170.884 L84.37,170.884 L84.37,179.126 C84.37,180.634008 84.9159945,181.388 86.008,181.388 C87.2560062,181.388 88.0533316,180.417343 88.4,178.476 L88.4,178.476 Z M101.894,181.7 C102.691337,181.7 103.39333,181.340337 104,180.621 C104.60667,179.901663 104.91,178.970006 104.91,177.826 L104.91,175.278 C104.91,174.064661 104.60667,173.07667 104,172.314 C103.39333,171.55133 102.682671,171.17 101.868,171.17 C100.879995,171.17 100.126003,171.650995 99.606,172.613 C99.0859974,173.575005 98.826,174.948658 98.826,176.734 C98.826,178.311341 99.094664,179.533329 99.632,180.4 C100.169336,181.266671 100.923328,181.7 101.894,181.7 L101.894,181.7 Z M104.91,173.198 L104.91,166.386 C104.91,165.571329 104.801668,164.973335 104.585,164.592 C104.368332,164.210665 103.95667,163.872668 103.35,163.578 L103.35,163.526 L108.654,163.526 L108.654,180.166 C108.654,180.963337 108.744999,181.548331 108.927,181.921 C109.109001,182.293669 109.485997,182.635998 110.058,182.948 L110.058,183 L104.91,183 L104.91,179.672 C104.632665,180.712005 104.099671,181.569997 103.311,182.246 C102.522329,182.922003 101.564672,183.26 100.438,183.26 C98.8433254,183.26 97.508672,182.662006 96.434,181.466 C95.359328,180.269994 94.822,178.692676 94.822,176.734 C94.822,174.723323 95.3809944,173.089673 96.499,171.833 C97.6170056,170.576327 98.9906585,169.948 100.62,169.948 C101.712005,169.948 102.630663,170.25133 103.376,170.858 C104.121337,171.46467 104.632665,172.244662 104.91,173.198 L104.91,173.198 Z M112.086,166.022 C112.086,165.41533 112.298331,164.904002 112.723,164.488 C113.147669,164.071998 113.680663,163.864 114.322,163.864 C114.963337,163.864 115.496331,164.071998 115.921,164.488 C116.345669,164.904002 116.558,165.41533 116.558,166.022 C116.558,166.62867 116.345669,167.139998 115.921,167.556 C115.496331,167.972002 114.963337,168.18 114.322,168.18 C113.680663,168.18 113.147669,167.972002 112.723,167.556 C112.298331,167.139998 112.086,166.62867 112.086,166.022 L112.086,166.022 Z M116.272,170.208 L116.272,180.166 C116.272,181.032671 116.349999,181.634998 116.506,181.973 C116.662001,182.311002 117.025997,182.635998 117.598,182.948 L117.598,183 L111.228,183 L111.228,182.948 C111.800003,182.635998 112.159666,182.315335 112.307,181.986 C112.454334,181.656665 112.528,181.050004 112.528,180.166 L112.528,173.094 C112.528,172.244662 112.437001,171.642335 112.255,171.287 C112.072999,170.931665 111.67867,170.589335 111.072,170.26 L111.072,170.208 L116.272,170.208 Z M127.348,174.732 C127.885336,174.541332 128.154,174.134003 128.154,173.51 C128.154,173.076664 128.019668,172.738668 127.751,172.496 C127.482332,172.253332 127.105336,172.132 126.62,172.132 C125.85733,172.132 125.198669,172.552329 124.644,173.393 C124.089331,174.233671 123.812,175.28666 123.812,176.552 L123.812,180.166 C123.812,180.980671 123.967998,181.574331 124.28,181.947 C124.592002,182.319669 125.137996,182.653332 125.918,182.948 L125.918,183 L118.768,183 L118.768,182.948 C119.340003,182.635998 119.699666,182.315335 119.847,181.986 C119.994334,181.656665 120.068,181.050004 120.068,180.166 L120.068,173.094 C120.068,172.244662 119.977001,171.642335 119.795,171.287 C119.612999,170.931665 119.21867,170.589335 118.612,170.26 L118.612,170.208 L123.812,170.208 L123.812,174.472 C124.592004,171.455985 125.978657,169.948 127.972,169.948 C128.752004,169.948 129.388998,170.177664 129.883,170.637 C130.377002,171.096336 130.624,171.689996 130.624,172.418 C130.624,173.232671 130.390002,173.869664 129.922,174.329 C129.453998,174.788336 128.899337,175.018 128.258,175.018 C127.841998,175.018 127.538668,174.922668 127.348,174.732 L127.348,174.732 Z M137.93,169.948 C139.85401,169.948 141.309995,170.506994 142.298,171.625 C143.286005,172.743006 143.78,174.220657 143.78,176.058 L135.2,176.058 C135.2,177.704675 135.594329,179.021995 136.383,180.01 C137.171671,180.998005 138.233327,181.492 139.568,181.492 C141.474676,181.492 142.80933,180.608009 143.572,178.84 L143.728,178.918 C143.398665,180.28734 142.722672,181.35333 141.7,182.116 C140.677328,182.87867 139.429341,183.26 137.956,183.26 C136.083991,183.26 134.524006,182.666339 133.276,181.479 C132.027994,180.291661 131.404,178.675344 131.404,176.63 C131.404,174.65399 132.03666,173.04634 133.302,171.807 C134.56734,170.56766 136.109991,169.948 137.93,169.948 L137.93,169.948 Z M135.226,175.512 L140.088,175.512 C140.088,174.731996 140.062,174.064669 140.01,173.51 C139.958,172.955331 139.858334,172.431002 139.711,171.937 C139.563666,171.442998 139.338335,171.070335 139.035,170.819 C138.731665,170.567665 138.354669,170.442 137.904,170.442 C137.14133,170.442 136.517336,170.901329 136.032,171.82 C135.546664,172.738671 135.278,173.969326 135.226,175.512 L135.226,175.512 Z M152.178,170.442 C151.172662,170.442 150.388336,170.961995 149.825,172.002 C149.261664,173.042005 148.98,174.376659 148.98,176.006 C148.98,177.739342 149.356996,179.086995 150.111,180.049 C150.865004,181.011005 151.865994,181.492 153.114,181.492 C154.968676,181.492 156.27733,180.608009 157.04,178.84 L157.196,178.918 C156.883998,180.28734 156.216672,181.35333 155.194,182.116 C154.171328,182.87867 152.932007,183.26 151.476,183.26 C149.707991,183.26 148.19134,182.679339 146.926,181.518 C145.66066,180.356661 145.028,178.805343 145.028,176.864 C145.028,174.749323 145.708327,173.068006 147.069,171.82 C148.429673,170.571994 150.12399,169.948 152.152,169.948 C153.556007,169.948 154.704329,170.255664 155.597,170.871 C156.489671,171.486336 156.936,172.279328 156.936,173.25 C156.936,173.943337 156.715002,174.484998 156.273,174.875 C155.830998,175.265002 155.298003,175.46 154.674,175.46 C154.101997,175.46 153.634002,175.321335 153.27,175.044 C152.905998,174.766665 152.706667,174.437335 152.672,174.056 C152.810667,174.125334 152.975332,174.16 153.166,174.16 C153.582002,174.16 153.898332,174.008335 154.115,173.705 C154.331668,173.401665 154.44,172.998669 154.44,172.496 C154.44,171.871997 154.249335,171.373669 153.868,171.001 C153.486665,170.628331 152.923337,170.442 152.178,170.442 L152.178,170.442 Z M166.972,178.476 L167.232,178.554 C166.867998,181.691349 165.464012,183.26 163.02,183.26 C161.841327,183.26 160.905337,182.90467 160.212,182.194 C159.518663,181.48333 159.180667,180.452007 159.198,179.1 L159.224,170.884 L157.664,170.884 L157.664,170.65 C158.894673,170.389999 159.951996,169.826671 160.836,168.96 C161.720004,168.093329 162.335332,167.010007 162.682,165.71 L162.942,165.71 L162.942,170.208 L166.894,170.208 L166.764,170.884 L162.942,170.884 L162.942,179.126 C162.942,180.634008 163.487995,181.388 164.58,181.388 C165.828006,181.388 166.625332,180.417343 166.972,178.476 L166.972,178.476 Z M169.104,166.022 C169.104,165.41533 169.316331,164.904002 169.741,164.488 C170.165669,164.071998 170.698663,163.864 171.34,163.864 C171.981337,163.864 172.514331,164.071998 172.939,164.488 C173.363669,164.904002 173.576,165.41533 173.576,166.022 C173.576,166.62867 173.363669,167.139998 172.939,167.556 C172.514331,167.972002 171.981337,168.18 171.34,168.18 C170.698663,168.18 170.165669,167.972002 169.741,167.556 C169.316331,167.139998 169.104,166.62867 169.104,166.022 L169.104,166.022 Z M173.29,170.208 L173.29,180.166 C173.29,181.032671 173.367999,181.634998 173.524,181.973 C173.680001,182.311002 174.043997,182.635998 174.616,182.948 L174.616,183 L168.246,183 L168.246,182.948 C168.818003,182.635998 169.177666,182.315335 169.325,181.986 C169.472334,181.656665 169.546,181.050004 169.546,180.166 L169.546,173.094 C169.546,172.244662 169.455001,171.642335 169.273,171.287 C169.090999,170.931665 168.69667,170.589335 168.09,170.26 L168.09,170.208 L173.29,170.208 Z M182.572,183.26 C180.630657,183.26 179.005673,182.636006 177.697,181.388 C176.388327,180.139994 175.734,178.545343 175.734,176.604 C175.734,174.662657 176.388327,173.068006 177.697,171.82 C179.005673,170.571994 180.630657,169.948 182.572,169.948 C184.530676,169.948 186.164327,170.56766 187.473,171.807 C188.781673,173.04634 189.436,174.645324 189.436,176.604 C189.436,178.562676 188.781673,180.16166 187.473,181.401 C186.164327,182.64034 184.530676,183.26 182.572,183.26 L182.572,183.26 Z M182.572,182.792 C183.508005,182.792 184.214331,182.250339 184.691,181.167 C185.167669,180.083661 185.406,178.562676 185.406,176.604 C185.406,174.645324 185.167669,173.128672 184.691,172.054 C184.214331,170.979328 183.508005,170.442 182.572,170.442 C181.635995,170.442 180.934002,170.979328 180.466,172.054 C179.997998,173.128672 179.764,174.645324 179.764,176.604 C179.764,178.562676 179.997998,180.083661 180.466,181.167 C180.934002,182.250339 181.635995,182.792 182.572,182.792 L182.572,182.792 Z M190.58,170.208 L195.78,170.208 L195.78,173.692 C196.126668,172.513327 196.694329,171.59467 197.483,170.936 C198.271671,170.27733 199.220661,169.948 200.33,169.948 C201.630006,169.948 202.63533,170.355329 203.346,171.17 C204.05667,171.984671 204.412,173.085326 204.412,174.472 L204.412,180.166 C204.412,181.032671 204.489999,181.634998 204.646,181.973 C204.802001,182.311002 205.165997,182.635998 205.738,182.948 L205.738,183 L199.368,183 L199.368,182.948 C199.940003,182.635998 200.299666,182.315335 200.447,181.986 C200.594334,181.656665 200.668,181.050004 200.668,180.166 L200.668,174.472 C200.668,173.691996 200.494668,173.055002 200.148,172.561 C199.801332,172.066998 199.264004,171.82 198.536,171.82 C197.703996,171.82 197.036669,172.170996 196.534,172.873 C196.031331,173.575004 195.78,174.55866 195.78,175.824 L195.78,180.166 C195.78,181.032671 195.857999,181.634998 196.014,181.973 C196.170001,182.311002 196.533997,182.635998 197.106,182.948 L197.106,183 L190.736,183 L190.736,182.948 C191.308003,182.635998 191.667666,182.315335 191.815,181.986 C191.962334,181.656665 192.036,181.050004 192.036,180.166 L192.036,173.094 C192.036,172.244662 191.945001,171.642335 191.763,171.287 C191.580999,170.931665 191.18667,170.589335 190.58,170.26 L190.58,170.208 Z M58.76,218.39 C57.4946603,218.39 56.862,219.663987 56.862,222.212 C56.862,224.760013 57.4946603,226.034 58.76,226.034 C60.0426731,226.034 60.684,224.760013 60.684,222.212 C60.684,219.663987 60.0426731,218.39 58.76,218.39 L58.76,218.39 Z M66.326,232.066 C66.326,233.626008 65.5720075,234.839329 64.064,235.706 C62.5559925,236.572671 60.6926778,237.006 58.474,237.006 C57.399328,237.006 56.4070045,236.919334 55.497,236.746 C54.5869954,236.572666 53.7940034,236.252002 53.118,235.784 C52.4419966,235.315998 52.104,234.735337 52.104,234.042 C52.104,233.400663 52.4116636,232.867669 53.027,232.443 C53.6423364,232.018331 54.487328,231.771334 55.562,231.702 C54.7646627,231.563333 54.1016693,231.247002 53.573,230.753 C53.0443307,230.258998 52.78,229.622004 52.78,228.842 C52.78,228.113996 53.048664,227.485669 53.586,226.957 C54.123336,226.428331 54.7819961,226.051334 55.562,225.826 C54.7819961,225.444665 54.1883354,224.942003 53.781,224.318 C53.3736646,223.693997 53.17,222.992004 53.17,222.212 C53.17,220.963994 53.6639951,219.941337 54.652,219.144 C55.6400049,218.346663 57.0093246,217.948 58.76,217.948 C60.5453423,217.948 61.9319951,218.398662 62.92,219.3 C63.1626679,218.901331 63.3663325,218.585001 63.531,218.351 C63.6956675,218.116999 63.9599982,217.874335 64.324,217.623 C64.6880018,217.371665 65.0693313,217.246 65.468,217.246 C66.0920031,217.246 66.5816649,217.406332 66.937,217.727 C67.2923351,218.047668 67.47,218.476664 67.47,219.014 C67.47,219.67267 67.2403356,220.157998 66.781,220.47 C66.3216644,220.782002 65.7886697,220.938 65.182,220.938 L65.182,220.886 C65.4246679,220.660666 65.546,220.357335 65.546,219.976 C65.546,219.646665 65.4506676,219.378001 65.26,219.17 C65.0693324,218.961999 64.7833352,218.858 64.402,218.858 C63.9513311,218.858 63.5266687,219.074665 63.128,219.508 C63.9600042,220.236004 64.376,221.137328 64.376,222.212 C64.376,223.460006 63.8776716,224.482663 62.881,225.28 C61.8843283,226.077337 60.5106754,226.476 58.76,226.476 C57.6679945,226.476 56.7320039,226.320002 55.952,226.008 C55.1373293,226.302668 54.73,226.727331 54.73,227.282 C54.73,227.99267 55.2499948,228.348 56.29,228.348 L61.334,228.348 C62.8940078,228.348 64.1159956,228.668663 65,229.31 C65.8840044,229.951337 66.326,230.869994 66.326,232.066 L66.326,232.066 Z M58.474,236.538 C59.9820075,236.538 61.2083286,236.291002 62.153,235.797 C63.0976714,235.302998 63.57,234.631338 63.57,233.782 C63.57,232.447327 62.6773423,231.78 60.892,231.78 L57.148,231.78 C56.2986624,231.78 55.6313358,231.961998 55.146,232.326 C54.6606642,232.690002 54.418,233.22733 54.418,233.938 C54.418,234.752671 54.7993295,235.389664 55.562,235.849 C56.3246705,236.308336 57.2953274,236.538 58.474,236.538 L58.474,236.538 Z M76.076,222.732 C76.613336,222.541332 76.882,222.134003 76.882,221.51 C76.882,221.076664 76.747668,220.738668 76.479,220.496 C76.210332,220.253332 75.8333358,220.132 75.348,220.132 C74.5853295,220.132 73.9266694,220.552329 73.372,221.393 C72.8173306,222.233671 72.54,223.28666 72.54,224.552 L72.54,228.166 C72.54,228.980671 72.6959984,229.574331 73.008,229.947 C73.3200016,230.319669 73.8659961,230.653332 74.646,230.948 L74.646,231 L67.496,231 L67.496,230.948 C68.0680029,230.635998 68.4276659,230.315335 68.575,229.986 C68.7223341,229.656665 68.796,229.050004 68.796,228.166 L68.796,221.094 C68.796,220.244662 68.7050009,219.642335 68.523,219.287 C68.3409991,218.931665 67.9466697,218.589335 67.34,218.26 L67.34,218.208 L72.54,218.208 L72.54,222.472 C73.3200039,219.455985 74.7066567,217.948 76.7,217.948 C77.4800039,217.948 78.1169975,218.177664 78.611,218.637 C79.1050025,219.096336 79.352,219.689996 79.352,220.418 C79.352,221.232671 79.1180023,221.869664 78.65,222.329 C78.1819977,222.788336 77.6273365,223.018 76.986,223.018 C76.5699979,223.018 76.2666676,222.922668 76.076,222.732 L76.076,222.732 Z M94.146,230.012 L94.146,230.064 C93.48733,230.844004 92.5426728,231.234 91.312,231.234 C89.5439912,231.234 88.5473345,230.462674 88.322,228.92 C88.322,228.885333 88.3133334,228.746668 88.296,228.504 C88.2786666,228.261332 88.27,228.105334 88.27,228.036 C88.0793324,228.937338 87.5940039,229.686997 86.814,230.285 C86.0339961,230.883003 85.106672,231.182 84.032,231.182 C82.9399945,231.182 82.0343369,230.904669 81.315,230.35 C80.5956631,229.795331 80.236,228.989339 80.236,227.932 C80.236,227.377331 80.3529988,226.887669 80.587,226.463 C80.8210012,226.038331 81.0983317,225.700335 81.419,225.449 C81.7396683,225.197665 82.2076636,224.963668 82.823,224.747 C83.4383364,224.530332 83.9669978,224.370001 84.409,224.266 C84.8510022,224.161999 85.4706627,224.040667 86.268,223.902 L88.244,223.538 L88.244,221.406 C88.244,220.539329 88.0490019,219.828669 87.659,219.274 C87.268998,218.719331 86.6666707,218.442 85.852,218.442 C85.1413298,218.442 84.6040018,218.632665 84.24,219.014 C83.8759982,219.395335 83.694,219.880664 83.694,220.47 C83.694,220.955336 83.8023322,221.327999 84.019,221.588 C84.2356677,221.848001 84.5346648,221.978 84.916,221.978 C85.0546674,221.978 85.2019992,221.952 85.358,221.9 C84.9939982,222.836005 84.2400057,223.304 83.096,223.304 C82.43733,223.304 81.8956688,223.113335 81.471,222.732 C81.0463312,222.350665 80.834,221.848003 80.834,221.224 C80.834,220.287995 81.3106619,219.508003 82.264,218.884 C83.2173381,218.259997 84.4393259,217.948 85.93,217.948 C87.9406767,217.948 89.4529949,218.307663 90.467,219.027 C91.4810051,219.746337 91.988,220.885992 91.988,222.446 C91.988,223.087337 91.9793334,223.979994 91.962,225.124 C91.9446666,226.268006 91.936,227.125997 91.936,227.698 C91.936,228.547338 92.0486655,229.171331 92.274,229.57 C92.4993345,229.968669 92.9066637,230.168 93.496,230.168 C93.7386679,230.168 93.9553324,230.116001 94.146,230.012 L94.146,230.012 Z M88.244,224.006 L86.892,224.292 C85.8866616,224.500001 85.1500023,224.855331 84.682,225.358 C84.2139977,225.860669 83.98,226.545329 83.98,227.412 C83.98,228.140004 84.1359984,228.694665 84.448,229.076 C84.7600016,229.457335 85.1933306,229.648 85.748,229.648 C86.4413368,229.648 87.0176644,229.35767 87.477,228.777 C87.9363356,228.19633 88.1746666,227.446671 88.192,226.528 L88.244,224.006 Z M102.362,219.534 C101.564663,219.534 100.86267,219.893663 100.256,220.613 C99.6493303,221.332337 99.346,222.255328 99.346,223.382 L99.346,225.93 C99.346,227.143339 99.6493303,228.13133 100.256,228.894 C100.86267,229.65667 101.573329,230.038 102.388,230.038 C103.376005,230.038 104.129997,229.557005 104.65,228.595 C105.170003,227.632995 105.43,226.259342 105.43,224.474 C105.43,222.913992 105.161336,221.700671 104.624,220.834 C104.086664,219.967329 103.332672,219.534 102.362,219.534 L102.362,219.534 Z M99.346,228.01 L99.346,233.912 C99.346,234.796004 99.4196659,235.402665 99.567,235.732 C99.7143341,236.061335 100.073997,236.381998 100.646,236.694 L100.646,236.746 L94.276,236.746 L94.276,236.694 C94.8480029,236.381998 95.2119992,236.057002 95.368,235.719 C95.5240008,235.380998 95.602,234.778671 95.602,233.912 L95.602,221.094 C95.602,220.261996 95.5066676,219.664002 95.316,219.3 C95.1253324,218.935998 94.7266697,218.589335 94.12,218.26 L94.12,218.208 L99.346,218.208 L99.346,221.562 C99.6233347,220.521995 100.156329,219.65967 100.945,218.975 C101.733671,218.29033 102.691328,217.948 103.818,217.948 C105.412675,217.948 106.747328,218.545994 107.822,219.742 C108.896672,220.938006 109.434,222.515324 109.434,224.474 C109.434,226.484677 108.875006,228.118327 107.757,229.375 C106.638994,230.631673 105.265341,231.26 103.636,231.26 C102.543995,231.26 101.625337,230.961003 100.88,230.363 C100.134663,229.764997 99.6233347,228.980672 99.346,228.01 L99.346,228.01 Z M110.396,211.526 L115.7,211.526 L115.7,221.692 C116.029335,220.513327 116.588329,219.59467 117.377,218.936 C118.165671,218.27733 119.114661,217.948 120.224,217.948 C121.524006,217.948 122.533663,218.355329 123.253,219.17 C123.972337,219.984671 124.332,221.085326 124.332,222.472 L124.332,228.166 C124.332,229.050004 124.405666,229.656665 124.553,229.986 C124.700334,230.315335 125.068664,230.635998 125.658,230.948 L125.658,231 L119.262,231 L119.262,230.948 C119.851336,230.635998 120.219666,230.315335 120.367,229.986 C120.514334,229.656665 120.588,229.050004 120.588,228.166 L120.588,222.472 C120.588,221.691996 120.414668,221.055002 120.068,220.561 C119.721332,220.066998 119.184004,219.82 118.456,219.82 C117.623996,219.82 116.956669,220.170996 116.454,220.873 C115.951331,221.575004 115.7,222.55866 115.7,223.824 L115.7,228.166 C115.7,229.050004 115.773666,229.656665 115.921,229.986 C116.068334,230.315335 116.436664,230.635998 117.026,230.948 L117.026,231 L110.63,231 L110.63,230.948 C111.219336,230.635998 111.587666,230.315335 111.735,229.986 C111.882334,229.656665 111.956,229.050004 111.956,228.166 L111.956,214.386 C111.956,213.571329 111.847668,212.973335 111.631,212.592 C111.414332,212.210665 111.00267,211.872668 110.396,211.578 L110.396,211.526 Z M127.634,214.022 C127.634,213.41533 127.846331,212.904002 128.271,212.488 C128.695669,212.071998 129.228663,211.864 129.87,211.864 C130.511337,211.864 131.044331,212.071998 131.469,212.488 C131.893669,212.904002 132.106,213.41533 132.106,214.022 C132.106,214.62867 131.893669,215.139998 131.469,215.556 C131.044331,215.972002 130.511337,216.18 129.87,216.18 C129.228663,216.18 128.695669,215.972002 128.271,215.556 C127.846331,215.139998 127.634,214.62867 127.634,214.022 L127.634,214.022 Z M131.82,218.208 L131.82,228.166 C131.82,229.032671 131.897999,229.634998 132.054,229.973 C132.210001,230.311002 132.573997,230.635998 133.146,230.948 L133.146,231 L126.776,231 L126.776,230.948 C127.348003,230.635998 127.707666,230.315335 127.855,229.986 C128.002334,229.656665 128.076,229.050004 128.076,228.166 L128.076,221.094 C128.076,220.244662 127.985001,219.642335 127.803,219.287 C127.620999,218.931665 127.22667,218.589335 126.62,218.26 L126.62,218.208 L131.82,218.208 Z M141.414,218.442 C140.408662,218.442 139.624336,218.961995 139.061,220.002 C138.497664,221.042005 138.216,222.376659 138.216,224.006 C138.216,225.739342 138.592996,227.086995 139.347,228.049 C140.101004,229.011005 141.101994,229.492 142.35,229.492 C144.204676,229.492 145.51333,228.608009 146.276,226.84 L146.432,226.918 C146.119998,228.28734 145.452672,229.35333 144.43,230.116 C143.407328,230.87867 142.168007,231.26 140.712,231.26 C138.943991,231.26 137.42734,230.679339 136.162,229.518 C134.89666,228.356661 134.264,226.805343 134.264,224.864 C134.264,222.749323 134.944327,221.068006 136.305,219.82 C137.665673,218.571994 139.35999,217.948 141.388,217.948 C142.792007,217.948 143.940329,218.255664 144.833,218.871 C145.725671,219.486336 146.172,220.279328 146.172,221.25 C146.172,221.943337 145.951002,222.484998 145.509,222.875 C145.066998,223.265002 144.534003,223.46 143.91,223.46 C143.337997,223.46 142.870002,223.321335 142.506,223.044 C142.141998,222.766665 141.942667,222.437335 141.908,222.056 C142.046667,222.125334 142.211332,222.16 142.402,222.16 C142.818002,222.16 143.134332,222.008335 143.351,221.705 C143.567668,221.401665 143.676,220.998669 143.676,220.496 C143.676,219.871997 143.485335,219.373669 143.104,219.001 C142.722665,218.628331 142.159337,218.442 141.414,218.442 L141.414,218.442 Z M159.614,229.7 C160.411337,229.7 161.11333,229.340337 161.72,228.621 C162.32667,227.901663 162.63,226.970006 162.63,225.826 L162.63,223.278 C162.63,222.064661 162.32667,221.07667 161.72,220.314 C161.11333,219.55133 160.402671,219.17 159.588,219.17 C158.599995,219.17 157.846003,219.650995 157.326,220.613 C156.805997,221.575005 156.546,222.948658 156.546,224.734 C156.546,226.311341 156.814664,227.533329 157.352,228.4 C157.889336,229.266671 158.643328,229.7 159.614,229.7 L159.614,229.7 Z M162.63,221.198 L162.63,214.386 C162.63,213.571329 162.521668,212.973335 162.305,212.592 C162.088332,212.210665 161.67667,211.872668 161.07,211.578 L161.07,211.526 L166.374,211.526 L166.374,228.166 C166.374,228.963337 166.464999,229.548331 166.647,229.921 C166.829001,230.293669 167.205997,230.635998 167.778,230.948 L167.778,231 L162.63,231 L162.63,227.672 C162.352665,228.712005 161.819671,229.569997 161.031,230.246 C160.242329,230.922003 159.284672,231.26 158.158,231.26 C156.563325,231.26 155.228672,230.662006 154.154,229.466 C153.079328,228.269994 152.542,226.692676 152.542,224.734 C152.542,222.723323 153.100994,221.089673 154.219,219.833 C155.337006,218.576327 156.710659,217.948 158.34,217.948 C159.432005,217.948 160.350663,218.25133 161.096,218.858 C161.841337,219.46467 162.352665,220.244662 162.63,221.198 L162.63,221.198 Z M175.422,217.948 C177.34601,217.948 178.801995,218.506994 179.79,219.625 C180.778005,220.743006 181.272,222.220657 181.272,224.058 L172.692,224.058 C172.692,225.704675 173.086329,227.021995 173.875,228.01 C174.663671,228.998005 175.725327,229.492 177.06,229.492 C178.966676,229.492 180.30133,228.608009 181.064,226.84 L181.22,226.918 C180.890665,228.28734 180.214672,229.35333 179.192,230.116 C178.169328,230.87867 176.921341,231.26 175.448,231.26 C173.575991,231.26 172.016006,230.666339 170.768,229.479 C169.519994,228.291661 168.896,226.675344 168.896,224.63 C168.896,222.65399 169.52866,221.04634 170.794,219.807 C172.05934,218.56766 173.601991,217.948 175.422,217.948 L175.422,217.948 Z M172.718,223.512 L177.58,223.512 C177.58,222.731996 177.554,222.064669 177.502,221.51 C177.45,220.955331 177.350334,220.431002 177.203,219.937 C177.055666,219.442998 176.830335,219.070335 176.527,218.819 C176.223665,218.567665 175.846669,218.442 175.396,218.442 C174.63333,218.442 174.009336,218.901329 173.524,219.82 C173.038664,220.738671 172.77,221.969326 172.718,223.512 L172.718,223.512 Z M187.434,218.442 C186.77533,218.442 186.255335,218.615332 185.874,218.962 C185.492665,219.308668 185.302,219.750664 185.302,220.288 C185.302,220.89467 185.514331,221.349665 185.939,221.653 C186.363669,221.956335 187.20866,222.289998 188.474,222.654 C190.190009,223.139336 191.407663,223.715663 192.127,224.383 C192.846337,225.050337 193.206,225.964661 193.206,227.126 C193.206,228.408673 192.729338,229.41833 191.776,230.155 C190.822662,230.89167 189.618007,231.26 188.162,231.26 C187.485997,231.26 186.732004,231.160334 185.9,230.961 C185.067996,230.761666 184.539334,230.662 184.314,230.662 C183.915331,230.662 183.499335,230.861331 183.066,231.26 L182.78,226.45 L182.832,226.45 C184.218674,229.344681 185.995322,230.792 188.162,230.792 C188.87267,230.792 189.457664,230.601335 189.917,230.22 C190.376336,229.838665 190.606,229.310003 190.606,228.634 C190.606,227.992663 190.354669,227.516002 189.852,227.204 C189.349331,226.891998 188.491339,226.571335 187.278,226.242 C185.735326,225.791331 184.62167,225.22367 183.937,224.539 C183.25233,223.85433 182.91,222.940006 182.91,221.796 C182.91,220.634661 183.343329,219.703004 184.21,219.001 C185.076671,218.298996 186.151327,217.948 187.434,217.948 C188.023336,217.948 188.68633,218.056332 189.423,218.273 C190.15967,218.489668 190.649332,218.598 190.892,218.598 C191.308002,218.598 191.775997,218.381335 192.296,217.948 L192.296,222.186 L192.244,222.186 C191.689331,221.059328 190.983004,220.15367 190.125,219.469 C189.266996,218.78433 188.370005,218.442 187.434,218.442 L187.434,218.442 Z M195.598,214.022 C195.598,213.41533 195.810331,212.904002 196.235,212.488 C196.659669,212.071998 197.192663,211.864 197.834,211.864 C198.475337,211.864 199.008331,212.071998 199.433,212.488 C199.857669,212.904002 200.07,213.41533 200.07,214.022 C200.07,214.62867 199.857669,215.139998 199.433,215.556 C199.008331,215.972002 198.475337,216.18 197.834,216.18 C197.192663,216.18 196.659669,215.972002 196.235,215.556 C195.810331,215.139998 195.598,214.62867 195.598,214.022 L195.598,214.022 Z M199.784,218.208 L199.784,228.166 C199.784,229.032671 199.861999,229.634998 200.018,229.973 C200.174001,230.311002 200.537997,230.635998 201.11,230.948 L201.11,231 L194.74,231 L194.74,230.948 C195.312003,230.635998 195.671666,230.315335 195.819,229.986 C195.966334,229.656665 196.04,229.050004 196.04,228.166 L196.04,221.094 C196.04,220.244662 195.949001,219.642335 195.767,219.287 C195.584999,218.931665 195.19067,218.589335 194.584,218.26 L194.584,218.208 L199.784,218.208 Z M208.364,218.39 C207.09866,218.39 206.466,219.663987 206.466,222.212 C206.466,224.760013 207.09866,226.034 208.364,226.034 C209.646673,226.034 210.288,224.760013 210.288,222.212 C210.288,219.663987 209.646673,218.39 208.364,218.39 L208.364,218.39 Z M215.93,232.066 C215.93,233.626008 215.176008,234.839329 213.668,235.706 C212.159992,236.572671 210.296678,237.006 208.078,237.006 C207.003328,237.006 206.011005,236.919334 205.101,236.746 C204.190995,236.572666 203.398003,236.252002 202.722,235.784 C202.045997,235.315998 201.708,234.735337 201.708,234.042 C201.708,233.400663 202.015664,232.867669 202.631,232.443 C203.246336,232.018331 204.091328,231.771334 205.166,231.702 C204.368663,231.563333 203.705669,231.247002 203.177,230.753 C202.648331,230.258998 202.384,229.622004 202.384,228.842 C202.384,228.113996 202.652664,227.485669 203.19,226.957 C203.727336,226.428331 204.385996,226.051334 205.166,225.826 C204.385996,225.444665 203.792335,224.942003 203.385,224.318 C202.977665,223.693997 202.774,222.992004 202.774,222.212 C202.774,220.963994 203.267995,219.941337 204.256,219.144 C205.244005,218.346663 206.613325,217.948 208.364,217.948 C210.149342,217.948 211.535995,218.398662 212.524,219.3 C212.766668,218.901331 212.970333,218.585001 213.135,218.351 C213.299667,218.116999 213.563998,217.874335 213.928,217.623 C214.292002,217.371665 214.673331,217.246 215.072,217.246 C215.696003,217.246 216.185665,217.406332 216.541,217.727 C216.896335,218.047668 217.074,218.476664 217.074,219.014 C217.074,219.67267 216.844336,220.157998 216.385,220.47 C215.925664,220.782002 215.39267,220.938 214.786,220.938 L214.786,220.886 C215.028668,220.660666 215.15,220.357335 215.15,219.976 C215.15,219.646665 215.054668,219.378001 214.864,219.17 C214.673332,218.961999 214.387335,218.858 214.006,218.858 C213.555331,218.858 213.130669,219.074665 212.732,219.508 C213.564004,220.236004 213.98,221.137328 213.98,222.212 C213.98,223.460006 213.481672,224.482663 212.485,225.28 C211.488328,226.077337 210.114675,226.476 208.364,226.476 C207.271995,226.476 206.336004,226.320002 205.556,226.008 C204.741329,226.302668 204.334,226.727331 204.334,227.282 C204.334,227.99267 204.853995,228.348 205.894,228.348 L210.938,228.348 C212.498008,228.348 213.719996,228.668663 214.604,229.31 C215.488004,229.951337 215.93,230.869994 215.93,232.066 L215.93,232.066 Z M208.078,236.538 C209.586008,236.538 210.812329,236.291002 211.757,235.797 C212.701671,235.302998 213.174,234.631338 213.174,233.782 C213.174,232.447327 212.281342,231.78 210.496,231.78 L206.752,231.78 C205.902662,231.78 205.235336,231.961998 204.75,232.326 C204.264664,232.690002 204.022,233.22733 204.022,233.938 C204.022,234.752671 204.40333,235.389664 205.166,235.849 C205.92867,236.308336 206.899327,236.538 208.078,236.538 L208.078,236.538 Z M216.944,218.208 L222.144,218.208 L222.144,221.692 C222.490668,220.513327 223.058329,219.59467 223.847,218.936 C224.635671,218.27733 225.584661,217.948 226.694,217.948 C227.994006,217.948 228.99933,218.355329 229.71,219.17 C230.42067,219.984671 230.776,221.085326 230.776,222.472 L230.776,228.166 C230.776,229.032671 230.853999,229.634998 231.01,229.973 C231.166001,230.311002 231.529997,230.635998 232.102,230.948 L232.102,231 L225.732,231 L225.732,230.948 C226.304003,230.635998 226.663666,230.315335 226.811,229.986 C226.958334,229.656665 227.032,229.050004 227.032,228.166 L227.032,222.472 C227.032,221.691996 226.858668,221.055002 226.512,220.561 C226.165332,220.066998 225.628004,219.82 224.9,219.82 C224.067996,219.82 223.400669,220.170996 222.898,220.873 C222.395331,221.575004 222.144,222.55866 222.144,223.824 L222.144,228.166 C222.144,229.032671 222.221999,229.634998 222.378,229.973 C222.534001,230.311002 222.897997,230.635998 223.47,230.948 L223.47,231 L217.1,231 L217.1,230.948 C217.672003,230.635998 218.031666,230.315335 218.179,229.986 C218.326334,229.656665 218.4,229.050004 218.4,228.166 L218.4,221.094 C218.4,220.244662 218.309001,219.642335 218.127,219.287 C217.944999,218.931665 217.55067,218.589335 216.944,218.26 L216.944,218.208 Z M53.976,276.166 L53.976,266.884 L52.364,266.884 L52.364,266.65 L53.976,266.078 L53.976,265.012 C53.976,263.139991 54.4916615,261.731671 55.523,260.787 C56.5543385,259.842329 57.9279914,259.37 59.644,259.37 C60.8226726,259.37 61.7803296,259.582331 62.517,260.007 C63.2536703,260.431669 63.622,261.059996 63.622,261.892 C63.622,262.446669 63.4270019,262.901665 63.037,263.257 C62.646998,263.612335 62.1573363,263.79 61.568,263.79 C60.8399964,263.79 60.3200016,263.590669 60.008,263.192 C60.7533371,262.983999 61.126,262.412005 61.126,261.476 C61.126,260.955997 60.9960013,260.544335 60.736,260.241 C60.4759987,259.937665 60.1120023,259.786 59.644,259.786 C58.3613269,259.786 57.72,260.834656 57.72,262.932 L57.72,266.208 L61.048,266.208 L60.918,266.884 L57.72,266.884 L57.72,276.166 C57.72,276.980671 57.8759984,277.574331 58.188,277.947 C58.5000016,278.319669 59.0459961,278.653332 59.826,278.948 L59.826,279 L52.676,279 L52.676,278.948 C53.2480029,278.635998 53.6076659,278.315335 53.755,277.986 C53.9023341,277.656665 53.976,277.050004 53.976,276.166 L53.976,276.166 Z M69.784,270.732 C70.321336,270.541332 70.59,270.134003 70.59,269.51 C70.59,269.076664 70.455668,268.738668 70.187,268.496 C69.918332,268.253332 69.5413358,268.132 69.056,268.132 C68.2933295,268.132 67.6346694,268.552329 67.08,269.393 C66.5253306,270.233671 66.248,271.28666 66.248,272.552 L66.248,276.166 C66.248,276.980671 66.4039984,277.574331 66.716,277.947 C67.0280016,278.319669 67.5739961,278.653332 68.354,278.948 L68.354,279 L61.204,279 L61.204,278.948 C61.7760029,278.635998 62.1356659,278.315335 62.283,277.986 C62.4303341,277.656665 62.504,277.050004 62.504,276.166 L62.504,269.094 C62.504,268.244662 62.4130009,267.642335 62.231,267.287 C62.0489991,266.931665 61.6546697,266.589335 61.048,266.26 L61.048,266.208 L66.248,266.208 L66.248,270.472 C67.0280039,267.455985 68.4146567,265.948 70.408,265.948 C71.1880039,265.948 71.8249975,266.177664 72.319,266.637 C72.8130025,267.096336 73.06,267.689996 73.06,268.418 C73.06,269.232671 72.8260023,269.869664 72.358,270.329 C71.8899977,270.788336 71.3353365,271.018 70.694,271.018 C70.2779979,271.018 69.9746676,270.922668 69.784,270.732 L69.784,270.732 Z M80.678,279.26 C78.736657,279.26 77.1116732,278.636006 75.803,277.388 C74.4943268,276.139994 73.84,274.545343 73.84,272.604 C73.84,270.662657 74.4943268,269.068006 75.803,267.82 C77.1116732,266.571994 78.736657,265.948 80.678,265.948 C82.6366765,265.948 84.2703268,266.56766 85.579,267.807 C86.8876732,269.04634 87.542,270.645324 87.542,272.604 C87.542,274.562676 86.8876732,276.16166 85.579,277.401 C84.2703268,278.64034 82.6366765,279.26 80.678,279.26 L80.678,279.26 Z M80.678,278.792 C81.6140047,278.792 82.3203309,278.250339 82.797,277.167 C83.273669,276.083661 83.512,274.562676 83.512,272.604 C83.512,270.645324 83.273669,269.128672 82.797,268.054 C82.3203309,266.979328 81.6140047,266.442 80.678,266.442 C79.7419953,266.442 79.0400023,266.979328 78.572,268.054 C78.1039977,269.128672 77.87,270.645324 77.87,272.604 C77.87,274.562676 78.1039977,276.083661 78.572,277.167 C79.0400023,278.250339 79.7419953,278.792 80.678,278.792 L80.678,278.792 Z M88.686,266.208 L93.886,266.208 L93.886,269.692 C94.2326684,268.513327 94.8003294,267.59467 95.589,266.936 C96.3776706,266.27733 97.3266611,265.948 98.436,265.948 C99.7360065,265.948 100.74133,266.355329 101.452,267.17 C102.16267,267.984671 102.518,269.085326 102.518,270.472 L102.518,276.166 C102.518,277.032671 102.595999,277.634998 102.752,277.973 C102.908001,278.311002 103.271997,278.635998 103.844,278.948 L103.844,279 L97.474,279 L97.474,278.948 C98.0460029,278.635998 98.4056659,278.315335 98.553,277.986 C98.7003341,277.656665 98.774,277.050004 98.774,276.166 L98.774,270.472 C98.774,269.691996 98.6006684,269.055002 98.254,268.561 C97.9073316,268.066998 97.3700036,267.82 96.642,267.82 C95.8099958,267.82 95.1426692,268.170996 94.64,268.873 C94.1373308,269.575004 93.886,270.55866 93.886,271.824 L93.886,276.166 C93.886,277.032671 93.9639992,277.634998 94.12,277.973 C94.2760008,278.311002 94.6399971,278.635998 95.212,278.948 L95.212,279 L88.842,279 L88.842,278.948 C89.4140029,278.635998 89.7736659,278.315335 89.921,277.986 C90.0683341,277.656665 90.142,277.050004 90.142,276.166 L90.142,269.094 C90.142,268.244662 90.0510009,267.642335 89.869,267.287 C89.6869991,266.931665 89.2926697,266.589335 88.686,266.26 L88.686,266.208 Z M113.802,274.476 L114.062,274.554 C113.697998,277.691349 112.294012,279.26 109.85,279.26 C108.671327,279.26 107.735337,278.90467 107.042,278.194 C106.348663,277.48333 106.010667,276.452007 106.028,275.1 L106.054,266.884 L104.494,266.884 L104.494,266.65 C105.724673,266.389999 106.781996,265.826671 107.666,264.96 C108.550004,264.093329 109.165332,263.010007 109.512,261.71 L109.772,261.71 L109.772,266.208 L113.724,266.208 L113.594,266.884 L109.772,266.884 L109.772,275.126 C109.772,276.634008 110.317995,277.388 111.41,277.388 C112.658006,277.388 113.455332,276.417343 113.802,274.476 L113.802,274.476 Z M115.336,272.318 L115.336,270.992 L121.81,270.992 L121.81,272.318 L115.336,272.318 Z M129.922,265.948 C131.84601,265.948 133.301995,266.506994 134.29,267.625 C135.278005,268.743006 135.772,270.220657 135.772,272.058 L127.192,272.058 C127.192,273.704675 127.586329,275.021995 128.375,276.01 C129.163671,276.998005 130.225327,277.492 131.56,277.492 C133.466676,277.492 134.80133,276.608009 135.564,274.84 L135.72,274.918 C135.390665,276.28734 134.714672,277.35333 133.692,278.116 C132.669328,278.87867 131.421341,279.26 129.948,279.26 C128.075991,279.26 126.516006,278.666339 125.268,277.479 C124.019994,276.291661 123.396,274.675344 123.396,272.63 C123.396,270.65399 124.02866,269.04634 125.294,267.807 C126.55934,266.56766 128.101991,265.948 129.922,265.948 L129.922,265.948 Z M127.218,271.512 L132.08,271.512 C132.08,270.731996 132.054,270.064669 132.002,269.51 C131.95,268.955331 131.850334,268.431002 131.703,267.937 C131.555666,267.442998 131.330335,267.070335 131.027,266.819 C130.723665,266.567665 130.346669,266.442 129.896,266.442 C129.13333,266.442 128.509336,266.901329 128.024,267.82 C127.538664,268.738671 127.27,269.969326 127.218,271.512 L127.218,271.512 Z M136.916,266.208 L142.116,266.208 L142.116,269.692 C142.462668,268.513327 143.030329,267.59467 143.819,266.936 C144.607671,266.27733 145.556661,265.948 146.666,265.948 C147.966006,265.948 148.97133,266.355329 149.682,267.17 C150.39267,267.984671 150.748,269.085326 150.748,270.472 L150.748,276.166 C150.748,277.032671 150.825999,277.634998 150.982,277.973 C151.138001,278.311002 151.501997,278.635998 152.074,278.948 L152.074,279 L145.704,279 L145.704,278.948 C146.276003,278.635998 146.635666,278.315335 146.783,277.986 C146.930334,277.656665 147.004,277.050004 147.004,276.166 L147.004,270.472 C147.004,269.691996 146.830668,269.055002 146.484,268.561 C146.137332,268.066998 145.600004,267.82 144.872,267.82 C144.039996,267.82 143.372669,268.170996 142.87,268.873 C142.367331,269.575004 142.116,270.55866 142.116,271.824 L142.116,276.166 C142.116,277.032671 142.193999,277.634998 142.35,277.973 C142.506001,278.311002 142.869997,278.635998 143.442,278.948 L143.442,279 L137.072,279 L137.072,278.948 C137.644003,278.635998 138.003666,278.315335 138.151,277.986 C138.298334,277.656665 138.372,277.050004 138.372,276.166 L138.372,269.094 C138.372,268.244662 138.281001,267.642335 138.099,267.287 C137.916999,266.931665 137.52267,266.589335 136.916,266.26 L136.916,266.208 Z M160.238,277.7 C161.035337,277.7 161.73733,277.340337 162.344,276.621 C162.95067,275.901663 163.254,274.970006 163.254,273.826 L163.254,271.278 C163.254,270.064661 162.95067,269.07667 162.344,268.314 C161.73733,267.55133 161.026671,267.17 160.212,267.17 C159.223995,267.17 158.470003,267.650995 157.95,268.613 C157.429997,269.575005 157.17,270.948658 157.17,272.734 C157.17,274.311341 157.438664,275.533329 157.976,276.4 C158.513336,277.266671 159.267328,277.7 160.238,277.7 L160.238,277.7 Z M163.254,269.198 L163.254,262.386 C163.254,261.571329 163.145668,260.973335 162.929,260.592 C162.712332,260.210665 162.30067,259.872668 161.694,259.578 L161.694,259.526 L166.998,259.526 L166.998,276.166 C166.998,276.963337 167.088999,277.548331 167.271,277.921 C167.453001,278.293669 167.829997,278.635998 168.402,278.948 L168.402,279 L163.254,279 L163.254,275.672 C162.976665,276.712005 162.443671,277.569997 161.655,278.246 C160.866329,278.922003 159.908672,279.26 158.782,279.26 C157.187325,279.26 155.852672,278.662006 154.778,277.466 C153.703328,276.269994 153.166,274.692676 153.166,272.734 C153.166,270.723323 153.724994,269.089673 154.843,267.833 C155.961006,266.576327 157.334659,265.948 158.964,265.948 C160.056005,265.948 160.974663,266.25133 161.72,266.858 C162.465337,267.46467 162.976665,268.244662 163.254,269.198 L163.254,269.198 Z M181.792,277.7 C182.589337,277.7 183.29133,277.340337 183.898,276.621 C184.50467,275.901663 184.808,274.970006 184.808,273.826 L184.808,271.278 C184.808,270.064661 184.50467,269.07667 183.898,268.314 C183.29133,267.55133 182.580671,267.17 181.766,267.17 C180.777995,267.17 180.024003,267.650995 179.504,268.613 C178.983997,269.575005 178.724,270.948658 178.724,272.734 C178.724,274.311341 178.992664,275.533329 179.53,276.4 C180.067336,277.266671 180.821328,277.7 181.792,277.7 L181.792,277.7 Z M184.808,269.198 L184.808,262.386 C184.808,261.571329 184.699668,260.973335 184.483,260.592 C184.266332,260.210665 183.85467,259.872668 183.248,259.578 L183.248,259.526 L188.552,259.526 L188.552,276.166 C188.552,276.963337 188.642999,277.548331 188.825,277.921 C189.007001,278.293669 189.383997,278.635998 189.956,278.948 L189.956,279 L184.808,279 L184.808,275.672 C184.530665,276.712005 183.997671,277.569997 183.209,278.246 C182.420329,278.922003 181.462672,279.26 180.336,279.26 C178.741325,279.26 177.406672,278.662006 176.332,277.466 C175.257328,276.269994 174.72,274.692676 174.72,272.734 C174.72,270.723323 175.278994,269.089673 176.397,267.833 C177.515006,266.576327 178.888659,265.948 180.518,265.948 C181.610005,265.948 182.528663,266.25133 183.274,266.858 C184.019337,267.46467 184.530665,268.244662 184.808,269.198 L184.808,269.198 Z M197.6,265.948 C199.52401,265.948 200.979995,266.506994 201.968,267.625 C202.956005,268.743006 203.45,270.220657 203.45,272.058 L194.87,272.058 C194.87,273.704675 195.264329,275.021995 196.053,276.01 C196.841671,276.998005 197.903327,277.492 199.238,277.492 C201.144676,277.492 202.47933,276.608009 203.242,274.84 L203.398,274.918 C203.068665,276.28734 202.392672,277.35333 201.37,278.116 C200.347328,278.87867 199.099341,279.26 197.626,279.26 C195.753991,279.26 194.194006,278.666339 192.946,277.479 C191.697994,276.291661 191.074,274.675344 191.074,272.63 C191.074,270.65399 191.70666,269.04634 192.972,267.807 C194.23734,266.56766 195.779991,265.948 197.6,265.948 L197.6,265.948 Z M194.896,271.512 L199.758,271.512 C199.758,270.731996 199.732,270.064669 199.68,269.51 C199.628,268.955331 199.528334,268.431002 199.381,267.937 C199.233666,267.442998 199.008335,267.070335 198.705,266.819 C198.401665,266.567665 198.024669,266.442 197.574,266.442 C196.81133,266.442 196.187336,266.901329 195.702,267.82 C195.216664,268.738671 194.948,269.969326 194.896,271.512 L194.896,271.512 Z M212.524,274.788 L215.176,269.198 C215.401334,268.747331 215.514,268.296669 215.514,267.846 C215.514,267.08333 215.124004,266.554668 214.344,266.26 L214.344,266.208 L218.062,266.208 L218.062,266.26 C217.628664,266.589335 217.286335,266.931665 217.035,267.287 C216.783665,267.642335 216.450002,268.244662 216.034,269.094 L211.042,279.26 L210.99,279.26 L205.842,269.016 C205.425998,268.166662 205.101001,267.581668 204.867,267.261 C204.632999,266.940332 204.308002,266.606668 203.892,266.26 L203.892,266.208 L210.08,266.208 L210.08,266.26 C209.577331,266.537335 209.326,266.927331 209.326,267.43 C209.326,267.828669 209.464665,268.322664 209.742,268.912 L212.524,274.788 Z M225.03,265.948 C226.95401,265.948 228.409995,266.506994 229.398,267.625 C230.386005,268.743006 230.88,270.220657 230.88,272.058 L222.3,272.058 C222.3,273.704675 222.694329,275.021995 223.483,276.01 C224.271671,276.998005 225.333327,277.492 226.668,277.492 C228.574676,277.492 229.90933,276.608009 230.672,274.84 L230.828,274.918 C230.498665,276.28734 229.822672,277.35333 228.8,278.116 C227.777328,278.87867 226.529341,279.26 225.056,279.26 C223.183991,279.26 221.624006,278.666339 220.376,277.479 C219.127994,276.291661 218.504,274.675344 218.504,272.63 C218.504,270.65399 219.13666,269.04634 220.402,267.807 C221.66734,266.56766 223.209991,265.948 225.03,265.948 L225.03,265.948 Z M222.326,271.512 L227.188,271.512 C227.188,270.731996 227.162,270.064669 227.11,269.51 C227.058,268.955331 226.958334,268.431002 226.811,267.937 C226.663666,267.442998 226.438335,267.070335 226.135,266.819 C225.831665,266.567665 225.454669,266.442 225.004,266.442 C224.24133,266.442 223.617336,266.901329 223.132,267.82 C222.646664,268.738671 222.378,269.969326 222.326,271.512 L222.326,271.512 Z M237.146,259.526 L237.146,276.166 C237.146,277.050004 237.219666,277.656665 237.367,277.986 C237.514334,278.315335 237.882664,278.635998 238.472,278.948 L238.472,279 L232.076,279 L232.076,278.948 C232.665336,278.635998 233.033666,278.315335 233.181,277.986 C233.328334,277.656665 233.402,277.050004 233.402,276.166 L233.402,262.386 C233.402,261.571329 233.293668,260.973335 233.077,260.592 C232.860332,260.210665 232.44867,259.872668 231.842,259.578 L231.842,259.526 L237.146,259.526 Z M246.428,279.26 C244.486657,279.26 242.861673,278.636006 241.553,277.388 C240.244327,276.139994 239.59,274.545343 239.59,272.604 C239.59,270.662657 240.244327,269.068006 241.553,267.82 C242.861673,266.571994 244.486657,265.948 246.428,265.948 C248.386676,265.948 250.020327,266.56766 251.329,267.807 C252.637673,269.04634 253.292,270.645324 253.292,272.604 C253.292,274.562676 252.637673,276.16166 251.329,277.401 C250.020327,278.64034 248.386676,279.26 246.428,279.26 L246.428,279.26 Z M246.428,278.792 C247.364005,278.792 248.070331,278.250339 248.547,277.167 C249.023669,276.083661 249.262,274.562676 249.262,272.604 C249.262,270.645324 249.023669,269.128672 248.547,268.054 C248.070331,266.979328 247.364005,266.442 246.428,266.442 C245.491995,266.442 244.790002,266.979328 244.322,268.054 C243.853998,269.128672 243.62,270.645324 243.62,272.604 C243.62,274.562676 243.853998,276.083661 244.322,277.167 C244.790002,278.250339 245.491995,278.792 246.428,278.792 L246.428,278.792 Z M262.548,267.534 C261.750663,267.534 261.04867,267.893663 260.442,268.613 C259.83533,269.332337 259.532,270.255328 259.532,271.382 L259.532,273.93 C259.532,275.143339 259.83533,276.13133 260.442,276.894 C261.04867,277.65667 261.759329,278.038 262.574,278.038 C263.562005,278.038 264.315997,277.557005 264.836,276.595 C265.356003,275.632995 265.616,274.259342 265.616,272.474 C265.616,270.913992 265.347336,269.700671 264.81,268.834 C264.272664,267.967329 263.518672,267.534 262.548,267.534 L262.548,267.534 Z M259.532,276.01 L259.532,281.912 C259.532,282.796004 259.605666,283.402665 259.753,283.732 C259.900334,284.061335 260.259997,284.381998 260.832,284.694 L260.832,284.746 L254.462,284.746 L254.462,284.694 C255.034003,284.381998 255.397999,284.057002 255.554,283.719 C255.710001,283.380998 255.788,282.778671 255.788,281.912 L255.788,269.094 C255.788,268.261996 255.692668,267.664002 255.502,267.3 C255.311332,266.935998 254.91267,266.589335 254.306,266.26 L254.306,266.208 L259.532,266.208 L259.532,269.562 C259.809335,268.521995 260.342329,267.65967 261.131,266.975 C261.919671,266.29033 262.877328,265.948 264.004,265.948 C265.598675,265.948 266.933328,266.545994 268.008,267.742 C269.082672,268.938006 269.62,270.515324 269.62,272.474 C269.62,274.484677 269.061006,276.118327 267.943,277.375 C266.824994,278.631673 265.451341,279.26 263.822,279.26 C262.729995,279.26 261.811337,278.961003 261.066,278.363 C260.320663,277.764997 259.809335,276.980672 259.532,276.01 L259.532,276.01 Z M284.154,269.692 C284.448668,268.495994 284.968663,267.573003 285.714,266.923 C286.459337,266.272997 287.377995,265.948 288.47,265.948 C289.752673,265.948 290.727663,266.350996 291.395,267.157 C292.062337,267.963004 292.396,269.067993 292.396,270.472 L292.396,276.166 C292.396,277.032671 292.473999,277.634998 292.63,277.973 C292.786001,278.311002 293.149997,278.635998 293.722,278.948 L293.722,279 L287.352,279 L287.352,278.948 C287.924003,278.635998 288.283666,278.315335 288.431,277.986 C288.578334,277.656665 288.652,277.050004 288.652,276.166 L288.652,270.472 C288.652,268.703991 288.010673,267.82 286.728,267.82 C285.947996,267.82 285.328336,268.170996 284.869,268.873 C284.409664,269.575004 284.18,270.55866 284.18,271.824 L284.18,276.166 C284.18,277.032671 284.257999,277.634998 284.414,277.973 C284.570001,278.311002 284.933997,278.635998 285.506,278.948 L285.506,279 L279.136,279 L279.136,278.948 C279.708003,278.635998 280.067666,278.315335 280.215,277.986 C280.362334,277.656665 280.436,277.050004 280.436,276.166 L280.436,270.472 C280.436,268.703991 279.794673,267.82 278.512,267.82 C277.731996,267.82 277.112336,268.170996 276.653,268.873 C276.193664,269.575004 275.964,270.55866 275.964,271.824 L275.964,276.166 C275.964,277.032671 276.041999,277.634998 276.198,277.973 C276.354001,278.311002 276.717997,278.635998 277.29,278.948 L277.29,279 L270.92,279 L270.92,278.948 C271.492003,278.635998 271.851666,278.315335 271.999,277.986 C272.146334,277.656665 272.22,277.050004 272.22,276.166 L272.22,269.094 C272.22,268.244662 272.129001,267.642335 271.947,267.287 C271.764999,266.931665 271.37067,266.589335 270.764,266.26 L270.764,266.208 L275.964,266.208 L275.964,269.692 C276.258668,268.495994 276.77433,267.573003 277.511,266.923 C278.24767,266.272997 279.161995,265.948 280.254,265.948 C281.415339,265.948 282.329663,266.281663 282.997,266.949 C283.664337,267.616337 284.049999,268.530661 284.154,269.692 L284.154,269.692 Z M301.34,265.948 C303.26401,265.948 304.719995,266.506994 305.708,267.625 C306.696005,268.743006 307.19,270.220657 307.19,272.058 L298.61,272.058 C298.61,273.704675 299.004329,275.021995 299.793,276.01 C300.581671,276.998005 301.643327,277.492 302.978,277.492 C304.884676,277.492 306.21933,276.608009 306.982,274.84 L307.138,274.918 C306.808665,276.28734 306.132672,277.35333 305.11,278.116 C304.087328,278.87867 302.839341,279.26 301.366,279.26 C299.493991,279.26 297.934006,278.666339 296.686,277.479 C295.437994,276.291661 294.814,274.675344 294.814,272.63 C294.814,270.65399 295.44666,269.04634 296.712,267.807 C297.97734,266.56766 299.519991,265.948 301.34,265.948 L301.34,265.948 Z M298.636,271.512 L303.498,271.512 C303.498,270.731996 303.472,270.064669 303.42,269.51 C303.368,268.955331 303.268334,268.431002 303.121,267.937 C302.973666,267.442998 302.748335,267.070335 302.445,266.819 C302.141665,266.567665 301.764669,266.442 301.314,266.442 C300.55133,266.442 299.927336,266.901329 299.442,267.82 C298.956664,268.738671 298.688,269.969326 298.636,271.512 L298.636,271.512 Z M308.334,266.208 L313.534,266.208 L313.534,269.692 C313.880668,268.513327 314.448329,267.59467 315.237,266.936 C316.025671,266.27733 316.974661,265.948 318.084,265.948 C319.384006,265.948 320.38933,266.355329 321.1,267.17 C321.81067,267.984671 322.166,269.085326 322.166,270.472 L322.166,276.166 C322.166,277.032671 322.243999,277.634998 322.4,277.973 C322.556001,278.311002 322.919997,278.635998 323.492,278.948 L323.492,279 L317.122,279 L317.122,278.948 C317.694003,278.635998 318.053666,278.315335 318.201,277.986 C318.348334,277.656665 318.422,277.050004 318.422,276.166 L318.422,270.472 C318.422,269.691996 318.248668,269.055002 317.902,268.561 C317.555332,268.066998 317.018004,267.82 316.29,267.82 C315.457996,267.82 314.790669,268.170996 314.288,268.873 C313.785331,269.575004 313.534,270.55866 313.534,271.824 L313.534,276.166 C313.534,277.032671 313.611999,277.634998 313.768,277.973 C313.924001,278.311002 314.287997,278.635998 314.86,278.948 L314.86,279 L308.49,279 L308.49,278.948 C309.062003,278.635998 309.421666,278.315335 309.569,277.986 C309.716334,277.656665 309.79,277.050004 309.79,276.166 L309.79,269.094 C309.79,268.244662 309.699001,267.642335 309.517,267.287 C309.334999,266.931665 308.94067,266.589335 308.334,266.26 L308.334,266.208 Z M333.45,274.476 L333.71,274.554 C333.345998,277.691349 331.942012,279.26 329.498,279.26 C328.319327,279.26 327.383337,278.90467 326.69,278.194 C325.996663,277.48333 325.658667,276.452007 325.676,275.1 L325.702,266.884 L324.142,266.884 L324.142,266.65 C325.372673,266.389999 326.429996,265.826671 327.314,264.96 C328.198004,264.093329 328.813332,263.010007 329.16,261.71 L329.42,261.71 L329.42,266.208 L333.372,266.208 L333.242,266.884 L329.42,266.884 L329.42,275.126 C329.42,276.634008 329.965995,277.388 331.058,277.388 C332.306006,277.388 333.103332,276.417343 333.45,274.476 L333.45,274.476 Z M53.534,310.022 C53.534,309.41533 53.7463312,308.904002 54.171,308.488 C54.5956688,308.071998 55.1286635,307.864 55.77,307.864 C56.4113365,307.864 56.9443312,308.071998 57.369,308.488 C57.7936688,308.904002 58.006,309.41533 58.006,310.022 C58.006,310.62867 57.7936688,311.139998 57.369,311.556 C56.9443312,311.972002 56.4113365,312.18 55.77,312.18 C55.1286635,312.18 54.5956688,311.972002 54.171,311.556 C53.7463312,311.139998 53.534,310.62867 53.534,310.022 L53.534,310.022 Z M57.72,314.208 L57.72,324.166 C57.72,325.032671 57.7979992,325.634998 57.954,325.973 C58.1100008,326.311002 58.4739971,326.635998 59.046,326.948 L59.046,327 L52.676,327 L52.676,326.948 C53.2480029,326.635998 53.6076659,326.315335 53.755,325.986 C53.9023341,325.656665 53.976,325.050004 53.976,324.166 L53.976,317.094 C53.976,316.244662 53.8850009,315.642335 53.703,315.287 C53.5209991,314.931665 53.1266697,314.589335 52.52,314.26 L52.52,314.208 L57.72,314.208 Z M65.182,307.526 L65.182,324.166 C65.182,325.050004 65.2556659,325.656665 65.403,325.986 C65.5503341,326.315335 65.9186637,326.635998 66.508,326.948 L66.508,327 L60.112,327 L60.112,326.948 C60.7013363,326.635998 61.0696659,326.315335 61.217,325.986 C61.3643341,325.656665 61.438,325.050004 61.438,324.166 L61.438,310.386 C61.438,309.571329 61.3296677,308.973335 61.113,308.592 C60.8963322,308.210665 60.4846697,307.872668 59.878,307.578 L59.878,307.526 L65.182,307.526 Z M72.644,307.526 L72.644,324.166 C72.644,325.050004 72.7176659,325.656665 72.865,325.986 C73.0123341,326.315335 73.3806637,326.635998 73.97,326.948 L73.97,327 L67.574,327 L67.574,326.948 C68.1633363,326.635998 68.5316659,326.315335 68.679,325.986 C68.8263341,325.656665 68.9,325.050004 68.9,324.166 L68.9,310.386 C68.9,309.571329 68.7916677,308.973335 68.575,308.592 C68.3583322,308.210665 67.9466697,307.872668 67.34,307.578 L67.34,307.526 L72.644,307.526 Z M84.734,321.384 L84.734,317.094 C84.734,316.261996 84.6386676,315.664002 84.448,315.3 C84.2573324,314.935998 83.8586697,314.589335 83.252,314.26 L83.252,314.208 L88.478,314.208 L88.478,324.322 C88.478,325.119337 88.581999,325.682665 88.79,326.012 C88.998001,326.341335 89.4053303,326.653332 90.012,326.948 L90.012,327 L84.734,327 L84.734,323.438 C84.4219984,324.651339 83.863004,325.591663 83.057,326.259 C82.250996,326.926337 81.2846723,327.26 80.158,327.26 C78.8753269,327.26 77.8786702,326.848337 77.168,326.025 C76.4573298,325.201663 76.102,324.10534 76.102,322.736 L76.102,317.094 C76.102,316.244662 76.0110009,315.642335 75.829,315.287 C75.6469991,314.931665 75.2526697,314.589335 74.646,314.26 L74.646,314.208 L79.846,314.208 L79.846,322.71 C79.846,323.455337 80.0236649,324.083664 80.379,324.595 C80.7343351,325.106336 81.2586632,325.362 81.952,325.362 C82.7666707,325.362 83.4339974,325.011004 83.954,324.309 C84.4740026,323.606996 84.734,322.632006 84.734,321.384 L84.734,321.384 Z M95.81,314.442 C95.15133,314.442 94.6313352,314.615332 94.25,314.962 C93.8686648,315.308668 93.678,315.750664 93.678,316.288 C93.678,316.89467 93.8903312,317.349665 94.315,317.653 C94.7396688,317.956335 95.5846603,318.289998 96.85,318.654 C98.5660086,319.139336 99.7836631,319.715663 100.503,320.383 C101.222337,321.050337 101.582,321.964661 101.582,323.126 C101.582,324.408673 101.105338,325.41833 100.152,326.155 C99.1986619,326.89167 97.9940073,327.26 96.538,327.26 C95.8619966,327.26 95.1080042,327.160334 94.276,326.961 C93.4439958,326.761666 92.9153345,326.662 92.69,326.662 C92.2913313,326.662 91.8753355,326.861331 91.442,327.26 L91.156,322.45 L91.208,322.45 C92.5946736,325.344681 94.3713225,326.792 96.538,326.792 C97.2486702,326.792 97.8336644,326.601335 98.293,326.22 C98.7523356,325.838665 98.982,325.310003 98.982,324.634 C98.982,323.992663 98.7306692,323.516002 98.228,323.204 C97.7253308,322.891998 96.8673394,322.571335 95.654,322.242 C94.1113256,321.791331 92.9976701,321.22367 92.313,320.539 C91.6283299,319.85433 91.286,318.940006 91.286,317.796 C91.286,316.634661 91.719329,315.703004 92.586,315.001 C93.452671,314.298996 94.5273269,313.948 95.81,313.948 C96.3993363,313.948 97.0623296,314.056332 97.799,314.273 C98.5356703,314.489668 99.0253321,314.598 99.268,314.598 C99.6840021,314.598 100.151997,314.381335 100.672,313.948 L100.672,318.186 L100.62,318.186 C100.065331,317.059328 99.3590043,316.15367 98.501,315.469 C97.6429957,314.78433 96.7460047,314.442 95.81,314.442 L95.81,314.442 Z M111.93,322.476 L112.19,322.554 C111.825998,325.691349 110.422012,327.26 107.978,327.26 C106.799327,327.26 105.863337,326.90467 105.17,326.194 C104.476663,325.48333 104.138667,324.452007 104.156,323.1 L104.182,314.884 L102.622,314.884 L102.622,314.65 C103.852673,314.389999 104.909996,313.826671 105.794,312.96 C106.678004,312.093329 107.293332,311.010006 107.64,309.71 L107.9,309.71 L107.9,314.208 L111.852,314.208 L111.722,314.884 L107.9,314.884 L107.9,323.126 C107.9,324.634008 108.445995,325.388 109.538,325.388 C110.786006,325.388 111.583332,324.417343 111.93,322.476 L111.93,322.476 Z M121.784,318.732 C122.321336,318.541332 122.59,318.134003 122.59,317.51 C122.59,317.076664 122.455668,316.738668 122.187,316.496 C121.918332,316.253332 121.541336,316.132 121.056,316.132 C120.29333,316.132 119.634669,316.552329 119.08,317.393 C118.525331,318.233671 118.248,319.28666 118.248,320.552 L118.248,324.166 C118.248,324.980671 118.403998,325.574331 118.716,325.947 C119.028002,326.319669 119.573996,326.653332 120.354,326.948 L120.354,327 L113.204,327 L113.204,326.948 C113.776003,326.635998 114.135666,326.315335 114.283,325.986 C114.430334,325.656665 114.504,325.050004 114.504,324.166 L114.504,317.094 C114.504,316.244662 114.413001,315.642335 114.231,315.287 C114.048999,314.931665 113.65467,314.589335 113.048,314.26 L113.048,314.208 L118.248,314.208 L118.248,318.472 C119.028004,315.455985 120.414657,313.948 122.408,313.948 C123.188004,313.948 123.824998,314.177664 124.319,314.637 C124.813002,315.096336 125.06,315.689996 125.06,316.418 C125.06,317.232671 124.826002,317.869664 124.358,318.329 C123.889998,318.788336 123.335337,319.018 122.694,319.018 C122.277998,319.018 121.974668,318.922668 121.784,318.732 L121.784,318.732 Z M139.854,326.012 L139.854,326.064 C139.19533,326.844004 138.250673,327.234 137.02,327.234 C135.251991,327.234 134.255334,326.462674 134.03,324.92 C134.03,324.885333 134.021333,324.746668 134.004,324.504 C133.986667,324.261332 133.978,324.105334 133.978,324.036 C133.787332,324.937338 133.302004,325.686997 132.522,326.285 C131.741996,326.883003 130.814672,327.182 129.74,327.182 C128.647995,327.182 127.742337,326.904669 127.023,326.35 C126.303663,325.795331 125.944,324.989339 125.944,323.932 C125.944,323.377331 126.060999,322.887669 126.295,322.463 C126.529001,322.038331 126.806332,321.700335 127.127,321.449 C127.447668,321.197665 127.915664,320.963668 128.531,320.747 C129.146336,320.530332 129.674998,320.370001 130.117,320.266 C130.559002,320.161999 131.178663,320.040667 131.976,319.902 L133.952,319.538 L133.952,317.406 C133.952,316.539329 133.757002,315.828669 133.367,315.274 C132.976998,314.719331 132.374671,314.442 131.56,314.442 C130.84933,314.442 130.312002,314.632665 129.948,315.014 C129.583998,315.395335 129.402,315.880664 129.402,316.47 C129.402,316.955336 129.510332,317.327999 129.727,317.588 C129.943668,317.848001 130.242665,317.978 130.624,317.978 C130.762667,317.978 130.909999,317.952 131.066,317.9 C130.701998,318.836005 129.948006,319.304 128.804,319.304 C128.14533,319.304 127.603669,319.113335 127.179,318.732 C126.754331,318.350665 126.542,317.848003 126.542,317.224 C126.542,316.287995 127.018662,315.508003 127.972,314.884 C128.925338,314.259997 130.147326,313.948 131.638,313.948 C133.648677,313.948 135.160995,314.307663 136.175,315.027 C137.189005,315.746337 137.696,316.885992 137.696,318.446 C137.696,319.087337 137.687333,319.979994 137.67,321.124 C137.652667,322.268006 137.644,323.125997 137.644,323.698 C137.644,324.547338 137.756666,325.171331 137.982,325.57 C138.207334,325.968669 138.614664,326.168 139.204,326.168 C139.446668,326.168 139.663332,326.116001 139.854,326.012 L139.854,326.012 Z M133.952,320.006 L132.6,320.292 C131.594662,320.500001 130.858002,320.855331 130.39,321.358 C129.921998,321.860669 129.688,322.545329 129.688,323.412 C129.688,324.140004 129.843998,324.694665 130.156,325.076 C130.468002,325.457335 130.901331,325.648 131.456,325.648 C132.149337,325.648 132.725664,325.35767 133.185,324.777 C133.644336,324.19633 133.882667,323.446671 133.9,322.528 L133.952,320.006 Z M148.928,322.476 L149.188,322.554 C148.823998,325.691349 147.420012,327.26 144.976,327.26 C143.797327,327.26 142.861337,326.90467 142.168,326.194 C141.474663,325.48333 141.136667,324.452007 141.154,323.1 L141.18,314.884 L139.62,314.884 L139.62,314.65 C140.850673,314.389999 141.907996,313.826671 142.792,312.96 C143.676004,312.093329 144.291332,311.010006 144.638,309.71 L144.898,309.71 L144.898,314.208 L148.85,314.208 L148.72,314.884 L144.898,314.884 L144.898,323.126 C144.898,324.634008 145.443995,325.388 146.536,325.388 C147.784006,325.388 148.581332,324.417343 148.928,322.476 L148.928,322.476 Z M151.06,310.022 C151.06,309.41533 151.272331,308.904002 151.697,308.488 C152.121669,308.071998 152.654663,307.864 153.296,307.864 C153.937337,307.864 154.470331,308.071998 154.895,308.488 C155.319669,308.904002 155.532,309.41533 155.532,310.022 C155.532,310.62867 155.319669,311.139998 154.895,311.556 C154.470331,311.972002 153.937337,312.18 153.296,312.18 C152.654663,312.18 152.121669,311.972002 151.697,311.556 C151.272331,311.139998 151.06,310.62867 151.06,310.022 L151.06,310.022 Z M155.246,314.208 L155.246,324.166 C155.246,325.032671 155.323999,325.634998 155.48,325.973 C155.636001,326.311002 155.999997,326.635998 156.572,326.948 L156.572,327 L150.202,327 L150.202,326.948 C150.774003,326.635998 151.133666,326.315335 151.281,325.986 C151.428334,325.656665 151.502,325.050004 151.502,324.166 L151.502,317.094 C151.502,316.244662 151.411001,315.642335 151.229,315.287 C151.046999,314.931665 150.65267,314.589335 150.046,314.26 L150.046,314.208 L155.246,314.208 Z M164.528,327.26 C162.586657,327.26 160.961673,326.636006 159.653,325.388 C158.344327,324.139994 157.69,322.545343 157.69,320.604 C157.69,318.662657 158.344327,317.068006 159.653,315.82 C160.961673,314.571994 162.586657,313.948 164.528,313.948 C166.486676,313.948 168.120327,314.56766 169.429,315.807 C170.737673,317.04634 171.392,318.645324 171.392,320.604 C171.392,322.562676 170.737673,324.16166 169.429,325.401 C168.120327,326.64034 166.486676,327.26 164.528,327.26 L164.528,327.26 Z M164.528,326.792 C165.464005,326.792 166.170331,326.250339 166.647,325.167 C167.123669,324.083661 167.362,322.562676 167.362,320.604 C167.362,318.645324 167.123669,317.128672 166.647,316.054 C166.170331,314.979328 165.464005,314.442 164.528,314.442 C163.591995,314.442 162.890002,314.979328 162.422,316.054 C161.953998,317.128672 161.72,318.645324 161.72,320.604 C161.72,322.562676 161.953998,324.083661 162.422,325.167 C162.890002,326.250339 163.591995,326.792 164.528,326.792 L164.528,326.792 Z M172.536,314.208 L177.736,314.208 L177.736,317.692 C178.082668,316.513327 178.650329,315.59467 179.439,314.936 C180.227671,314.27733 181.176661,313.948 182.286,313.948 C183.586006,313.948 184.59133,314.355329 185.302,315.17 C186.01267,315.984671 186.368,317.085326 186.368,318.472 L186.368,324.166 C186.368,325.032671 186.445999,325.634998 186.602,325.973 C186.758001,326.311002 187.121997,326.635998 187.694,326.948 L187.694,327 L181.324,327 L181.324,326.948 C181.896003,326.635998 182.255666,326.315335 182.403,325.986 C182.550334,325.656665 182.624,325.050004 182.624,324.166 L182.624,318.472 C182.624,317.691996 182.450668,317.055002 182.104,316.561 C181.757332,316.066998 181.220004,315.82 180.492,315.82 C179.659996,315.82 178.992669,316.170996 178.49,316.873 C177.987331,317.575004 177.736,318.55866 177.736,319.824 L177.736,324.166 C177.736,325.032671 177.813999,325.634998 177.97,325.973 C178.126001,326.311002 178.489997,326.635998 179.062,326.948 L179.062,327 L172.692,327 L172.692,326.948 C173.264003,326.635998 173.623666,326.315335 173.771,325.986 C173.918334,325.656665 173.992,325.050004 173.992,324.166 L173.992,317.094 C173.992,316.244662 173.901001,315.642335 173.719,315.287 C173.536999,314.931665 173.14267,314.589335 172.536,314.26 L172.536,314.208 Z" id="ui/ux-design" fill="#000000"></path>
            </g>
        </g>
    </g>
</svg>